<?xml version="1.0" encoding="UTF-8" ?>
<!DOCTYPE svg PUBLIC "-//W3C//DTD SVG 1.1//EN" "http://www.w3.org/Graphics/SVG/1.1/DTD/svg11.dtd">
<svg width="600pt" fill="none" height="590pt" viewBox="0 0 600 590" version="1.1" xmlns="http://www.w3.org/2000/svg">
<path fill="#000" d=" M 34.69 0.00 L 35.49 0.00 C 45.87 0.33 56.14 5.11 62.51 13.40 C 67.88 19.96 70.29 28.50 70.17 36.89 C 99.87 66.67 129.62 96.39 159.34 126.15 C 188.85 96.63 218.33 67.07 247.86 37.56 C 239.26 63.03 230.60 88.48 222.03 113.96 C 221.45 115.87 220.14 117.41 218.74 118.78 C 212.26 125.14 205.90 131.61 199.48 138.03 C 233.01 171.59 266.55 205.16 300.10 238.71 C 333.65 205.15 367.20 171.59 400.74 138.03 C 394.12 131.41 387.52 124.75 380.85 118.17 C 378.10 115.77 377.53 112.01 376.34 108.75 C 368.32 84.97 360.23 61.21 352.20 37.43 C 381.75 66.99 411.27 96.58 440.81 126.15 C 470.48 96.47 500.18 66.81 529.83 37.12 C 529.65 28.44 532.25 19.60 537.92 12.93 C 544.33 4.93 554.37 0.30 564.56 0.00 L 565.41 0.00 C 575.58 0.34 585.59 4.99 591.96 12.99 C 597.09 19.04 599.67 26.91 600.00 34.77 L 600.00 35.56 C 599.69 45.97 594.86 56.22 586.55 62.59 C 579.98 68.00 571.39 70.40 562.95 70.23 C 533.24 99.89 503.56 129.58 473.88 159.26 C 503.46 188.85 533.06 218.43 562.62 248.04 C 537.34 239.51 512.10 230.87 486.81 222.37 C 484.87 221.82 483.17 220.70 481.82 219.22 C 475.31 212.59 468.71 206.06 462.16 199.48 C 428.61 233.03 395.07 266.59 361.54 300.16 C 432.92 371.56 504.25 443.00 575.66 514.37 C 576.59 515.30 577.45 516.41 577.59 517.79 C 581.60 541.86 585.63 565.92 589.65 589.99 C 566.12 586.09 542.60 582.07 519.06 578.21 C 517.51 577.89 515.79 577.77 514.68 576.52 C 443.10 504.94 371.54 433.34 299.97 361.76 C 228.61 433.16 157.22 504.55 85.89 575.98 C 84.91 577.08 83.57 577.75 82.10 577.89 C 58.23 581.85 34.37 585.86 10.50 589.85 C 14.50 566.02 18.55 542.21 22.52 518.39 C 22.72 516.89 23.34 515.48 24.47 514.47 C 95.88 443.08 167.23 371.63 238.62 300.22 C 205.05 266.65 171.48 233.10 137.91 199.54 C 131.18 206.27 124.44 213.01 117.74 219.77 C 115.57 222.08 112.32 222.62 109.47 223.67 C 85.47 231.76 61.50 239.94 37.51 248.05 C 67.04 218.49 96.58 188.93 126.12 159.38 C 96.43 129.67 66.76 99.92 37.05 70.23 C 26.44 70.61 15.74 66.29 8.79 58.19 C 3.21 52.00 0.31 43.76 0.00 35.50 L 0.00 34.64 C 0.37 26.81 2.94 18.99 8.05 12.98 C 14.44 4.95 24.49 0.31 34.69 0.00 Z" />
</svg>
