<svg id="Layer_1" data-name="Layer 1" xmlns="http://www.w3.org/2000/svg" viewBox="0 0 395.2 479.9"><defs><style>.cls-1{fill:#b49022;}</style></defs><title>Greyjoy-emblem</title><path class="cls-1" d="M387.9,90c9.1,20.5-1.5,39-22.5,39-10.1,0-16.7-3.3-38.9-19.4a62.7,62.7,0,0,0-17.4-8.7c-9.9-3.5-11-3.7-17.2-3-8.4,1.1-14.7,3.9-19.6,8.8-13.6,13.6-17.3,38.3-9.7,64.4,0.4,1.4,0,1.5-3,.5l-1.1-.4c-2.3-.8-2.6-1.8-3.7-7.2a69.2,69.2,0,0,1-1.1-9.2c-0.6-9.4.2-20.3,2.1-27.1,4.5-16,10.9-24.5,22.9-30.4,6.9-3.4,8.2-3.7,16.2-3.7,14.7,0,18.8,2,52.1,25.1,6.9,4.8,11.3,6.3,18.7,6.3s9.9-1.3,13.7-4.8,6.6-9.8,6.6-17.2c0-12.8-3.1-18-14.5-24.5-6.9-3.9-8.8-4.5-13.7-4.5s-6.2.3-9.8,3.6l-4.1,3.7-11.7-.6A120.6,120.6,0,0,1,311,77.8l-9.5-2.3,6.1-.7c3.3-.5,13-2.6,21.5-4.7,17.2-4.5,18.6-4.6,20.8-2.8s4.5,1.9,8.1,2.6a56.3,56.3,0,0,1,22,9.6C383.7,82.2,385.4,84.5,387.9,90Z" transform="translate(0.1)"/><path class="cls-1" d="M142.5,130.1c1.4,5,1.6,9.1,1.2,18.9-0.7,15.9-2.3,22-6.1,23.3-1.5.5-2.9,0.7-3.1,0.5s0.7-4.4,2-9.4c7.1-27.3-2.8-55.5-21.8-62.1-3.6-1.2-8.1-1.8-14.7-1.7-9.5,0-9.6.1-18.3,4.8a153.3,153.3,0,0,0-18,12.1c-11.9,9.4-19.1,13.3-26.5,14.6-19.8,3.5-34.7-11.8-30.1-30.9C8.4,94.7,14,84.8,17.4,82c5-4.1,12.9-7.5,22-9.5,4.3-1,8-2.3,8.3-3.1S52.2,67.7,70,72c9.1,2.2,19,4,22,4.1h5.5L93,77.9c-2.5,1.1-4.9,1.7-5.3,1.4s-1.5.1-2.3,0.8a9.1,9.1,0,0,1-4.2,1.4c-1.6,0-2.6.5-2.5,1.2A0.9,0.9,0,0,1,78,84a1,1,0,0,1-1-1.1c0-2.1-8.2-.3-10.1,2.3s-2,2.1-3,1-1-1.2-.1-1.2a1.1,1.1,0,0,0,1.2-.9c0-.5-1.6-0.9-3.5-0.8s-3.4.5-3.1,1.4,0.3,1.3,0,1.3S50,80.9,50,80s-5.7-4-9.5-4S20.8,83.4,17,87.6c-5.1,5.8-7.3,17.2-5,25.5,3.6,13,16.7,18.5,29.5,12.5,5.1-2.3,20.9-13,25.5-17.2s17.4-10.3,24.3-12S108.4,95,117,97.5C127.4,100.7,138.5,114.8,142.5,130.1Z" transform="translate(0.1)"/><path d="M395.1,0l-0.3,143.2-0.4,143.3-2.2,11c-3.7,18.4-8,30.4-15.9,45-3.7,6.8-15.1,20-22.7,26.4-10.4,8.7-18.5,14.1-42.4,28.2-10.7,6.3-21,12.4-23,13.7S276.6,417,267,421.9c-20.2,10.4-31.3,17.3-40.8,25.6s-18.1,18.3-23.6,26.3c-2.2,3.4-4.5,6.1-5.1,6.1s-2.9-2.7-5.1-6.1c-5.5-8-15.3-18.9-23.6-26.3s-20.6-15.2-40.8-25.6c-9.6-4.9-19.1-9.9-21.2-11.1s-12.3-7.4-23-13.7S61.1,383.4,57,380.7c-31.3-20.9-46.3-43.9-54.2-83.2l-2.2-11L0.2,143.2-0.1,0H395.1ZM365.4,129c21,0,31.6-18.5,22.5-39-2.5-5.5-4.2-7.8-7.9-10.5a56.3,56.3,0,0,0-22-9.6c-3.6-.7-7.2-1.9-8.1-2.6s-3.6-1.7-20.8,2.8c-8.5,2.1-18.2,4.2-21.5,4.7l-6.1.7,9.5,2.3a120.6,120.6,0,0,0,21.2,2.9l11.7,0.6,4.1-3.7c3.6-3.3,4.5-3.6,9.8-3.6s6.8,0.6,13.7,4.5C382.9,85,386,90.2,386,103c0,7.4-2.2,13.1-6.6,17.2S372,125,365.7,125s-11.8-1.5-18.7-6.3c-33.3-23.1-37.4-25.1-52.1-25.1-8,0-9.3.3-16.2,3.7-12,5.9-18.4,14.4-22.9,30.4-1.9,6.8-2.7,17.7-2.1,27.1h-2.2c0-.3-0.1-0.7-0.2-1.1a14.2,14.2,0,0,0-.9-3.6c-0.6-.7-3.4,2.1-3.4,3.5s-1.7,1.8-2.3.1-0.9-.7-2.4.5a6.8,6.8,0,0,1-3.6,1.8,2.6,2.6,0,0,0-2.2,1c-0.4.6,0.1,0.7,1.1,0.3s1.5-.2,1.2.8-1.9,1.4-4,1.5c-4.1.1-5.9,1-5.3,2.7s-7.3,7.3-8.3,6.2,0.8-3.4,2.5-6.8a54.4,54.4,0,0,0,4.9-12.2c0.1-.6,1.2-4.6,2.4-9,4.1-15.2,6-22.8,6-24.2a20.7,20.7,0,0,1,1.6-5.1,26.9,26.9,0,0,0,1.9-5.3C241,101,254,84,257.1,84a1.1,1.1,0,0,0,.9-1.2c0-.9-0.3-0.9-1.2,0a5.2,5.2,0,0,1-2.7,1.3c-0.9,0-3.6,2.4-6.1,5.4s-4.6,5-5.2,3.7-0.7-1.4-.8.3c-0.1,3.2-3.9,10.7-5,10s-1,.5-1,1.9-0.4,2.6-1,2.6-1,1.8-1,4.1-0.4,3.8-1,3.4-0.7.1-.4,1-0.1,2.4-1.1,3.5a4.3,4.3,0,0,0-1.1,3.8c0.4,1.3.1,2.2-.9,2.6s-1.5,1.8-1.5,3.5-0.4,3.2-.9,3.5-0.6,1.7-.3,3.1,0,2.5-.7,2.5-1.1,1.3-1.1,2.9-0.5,3.1-1.2,3.3-1.2,2-1.2,3.9-0.6,3.3-1.3,3.2-1.3.7-1.3,2a9.1,9.1,0,0,1-1.6,4.5,34.8,34.8,0,0,0-3,7.4c-0.8,2.9-1.8,6-2.1,6.8a5.5,5.5,0,0,0-.4,2.3c0.3,1.6-2.7,9.2-3.5,8.7s-1-.6,1.8-11.5c3.6-14.1,3.9-16.7,3.8-34,0-11.3-.5-19.9-1.6-25.5-1.9-10.1-2.6-29.8-1.3-34l1.8-6c0.9-2.7.8-2.8-1-1.7a2.4,2.4,0,0,0-1.3,3c0.4,1.3,0,2-1.5,2.4s-2.1,1.1-2.1,1.9,0.6,1.1,1.5.8,1.2,0.1-.2,4.3a22.3,22.3,0,0,1-2.4,5.7c-0.4.5-.1,1.9,0.8,3.3a7.9,7.9,0,0,1,1,5.8c-0.3,2.1-.1,3.6.6,3.9s0.9,0.8-.1,1.2-1,.9-0.1,2,1,3.2.6,6.2-0.1,5.5.5,6.6,0.7,2.1-.2,2.6-0.9,1.3,0,3.1,1,2.4.2,2.7-0.9.9-.2,2.3a3.8,3.8,0,0,1,.1,3.7c-0.7,1.3-.6,2.3.1,3s0.9,1.5,0,2.4a3.8,3.8,0,0,0-1.1,2.7q0,1.7.6,0.3c1.1-2.7,2.3-1,2.3,3.2s-1.5,7.1-2.3,3.9c-0.2-1-.3-0.6-0.1.9s-0.1,3-.7,3.4-0.8,1.7-.5,2.9,0.2,2.7-.4,3-1.2,3.5.4,2.9,1.3,1-1.4,9.8c-1.4,4.8-7.8,18.8-8.5,18.8s-1.5-2.1-2.6-4.8-2.9-6.5-3.8-8.7c-2.4-5.4-3.5-9.8-2.1-9s1.3-1.8-.2-3.3-0.9-1.5,0-2.4,0.7-1.7-1-3.5-1.9-2.3-.5-2.3,2.1-1.3-.3-3.5-2.6-3.7-.5-2.9,1.8-2.5-.7-4.7-2-1.8-.5-1.9,2.5-4,.7-4-1.2-2.7.3-3.4,1-.7,0-1.2-1.7-4.4-.2-4.4,0.9-1,.4-2.7c-1.1-4.5-1.1-4.8.3-4.5s1.5-.7.2-2.8a2.4,2.4,0,0,1,.1-2.7c0.7-.8.7-1.8,0-3.2s-0.4-7.8,1-8.7,0.6-3.4.3-7-0.3-6.4.5-6.4,1.4-2.7-.1-3.3-1-.7.1-2.1,1.1-1.9-.5-3.8-1.6-2.2-.6-2.5,1.5-3-.4-3.7-1.3-1-1-1.4-0.6-2-1.9-3.2c-2.9-2.7-3-2.4-1.1,2.7a36,36,0,0,1,1.9,8.3c0.5,4.4-.6,23.1-1.7,27.8-2.4,10.8-3.5,41.4-1.6,48.7,1.2,4.9,1.2,6.5.2,6.5s-6.2-10.9-5.6-12.5a1.6,1.6,0,0,0-1-2.1,2.1,2.1,0,0,1-1.6-1.6,4.9,4.9,0,0,0-1.6-2.5,4.7,4.7,0,0,1-1-4.4c0.4-1.9.1-2.9-1-3.3s-1.4-1.4-1-3.2a4,4,0,0,0-.9-4,4,4,0,0,1-1-3.5c0.4-1.1.2-1.9-.5-1.9s-1-.8-0.7-2.2-0.2-3.1-1.4-4.6-1.7-2.7-.7-3.4,1-1,.2-1.6-4.7-7.2-3.8-7.2-0.1-.9-1.1-2-1.5-2.3-1.1-2.7,1.1-.1,1.6.7,1,1,1,.4a4.3,4.3,0,0,0-1.5-2.4,4.8,4.8,0,0,1-1.5-3.1c0-1-1.2-2.4-2.6-3.1s-2.6-1.7-2.4-2.2a2.3,2.3,0,0,0-1.4-1.8,2.2,2.2,0,0,1-1-2.6c0.5-1.3.4-1.4-.4-0.4s-1.3.8-2.9-1.2-2.3-2.3-2.6-1.9a1.8,1.8,0,0,1-1.9-.4c-2-1.5-5-2.4-4.3-1.3a2.1,2.1,0,0,0,1.7,1c1.7,0,8.8,7.2,10.7,11l4.4,8.5c1.4,2.7,3.5,9.3,4.8,14.5,5.4,22.7,8.3,33,12.2,43,1.2,3.1,1.5,3.7,5.2,9,5.5,7.8,6.5,9.5,6.5,10.8s-0.5,1.2-1.3.4a20.1,20.1,0,0,1-2.9-4.5,31.9,31.9,0,0,0-11.1-12.4c-2.4-1.7-3.4-2.9-2.6-3.3s-0.4-2.1-3.8-1.8-11.6-4.3-9.5-5a1.6,1.6,0,0,0,1.2-1.4c0-.5-0.9-0.6-2.1-0.3a2.7,2.7,0,0,1-3.4-1.2c-0.7-1-1.7-1.5-2.1-1s-0.2.7,0.4,0.7a1.1,1.1,0,0,1,1.2,1.1c0,0.6-.7.8-1.6,0.5s-1.5,0-1.2,2.1,1,3,1.8,3.4l9,5c4.1,2.3,7.7,4.5,8,4.8l5.5,4a78.8,78.8,0,0,1,11.2,9.6c2,2.1,3.3,3.8,2.9,4.2s-2.6-1.3-5-3.7c-4.7-4.6-9.3-7-13.3-7a17.7,17.7,0,0,1-6.5-2.2c-3.7-2.1-4-2.1-4.9-.5a4.1,4.1,0,0,1-3.1,1.7c-1.7,0-1.8-.2-0.8-1.5s0.9-1.5-1-1.5-2,.5-1.7,1.4a1.4,1.4,0,0,1-.8,1.9c-0.7.3-1.5-.3-1.8-1.5s-1-1.7-1.6-1.4a1.7,1.7,0,0,0-.5,2c0.4,1-.8,1.6-4,2s-5,.4-5.6.1-1-.2-1,0.4-10,3.5-15,3.6a11.9,11.9,0,0,0-4.9.9c-0.8.5-1.6,0.5-2-.1s-3.5-1-7-1.1-7-.7-7.8-1.3-1.6-1-1.9-.7,1.7,1.6,4.3,2.9,6.3,2.4,14.3,2.4a102.7,102.7,0,0,0,14.3-.9l4.7-.8-3.6,7.3c-5.3,10.7-13.9,37.7-15.9,49.8-2.9,17.2-.7,34.1,5.2,41.2,8.9,10.5,17.4,13.5,29.4,10.5,7.6-2,12.6-6.3,16.5-14.3,5.3-10.8,4.2-21.6-4.4-40.8-7.9-17.7-8.7-28.1-3.1-37s12.5-9.3,23.1-4c2.6,1.3,4.8,2.2,4.8,1.9s-2.2-4-3.9-5.9l0.8-.7a37.1,37.1,0,0,1,10.2,27.7c-0.3,4.3-6.3,19.7-7.3,18.7s-0.4-2.1.2-3.6a5.1,5.1,0,0,0-.1-4.7c-1-2,.9-6.5,4.9-11.1,1.4-1.6,1-2-4.4-4.5s-17.3-3.8-19.6-1.4-0.8,1.3,1.6.7c4.3-1,8.8,1,11.6,5.1s2.5,4.2,2.3,17.2c-0.1,7.5-.5,16.3-0.8,19.6-0.6,7.4-.8,31.6-0.2,37A143.5,143.5,0,0,0,184,314c2.4,7.8,2.4,8,.6,8s-1.9,1.5-2.6,3.4c-1.2,3.6-4.4,5.6-9,5.6-3.1,0-4.8,1.5-2.6,2.3s2.6,6.3,1.5,10.2a16.2,16.2,0,0,1-3.9,6c-3.7,3.5-3.7,4.1-.2,4.8s8.2,4.5,8.2,7.1a8.4,8.4,0,0,1-1.4,4.2c-1.4,2-1.3,2,4.5,1.6s6.3-.1,9.5,2.3a26.5,26.5,0,0,1,5.6,6.1c1.1,1.9,1.7,2.7,2.5,2.8a2.2,2.2,0,0,0,1.3-.4c1.4-.8,1.9-0.6,2.2.7s1.2-.2,2.8-3.3c3.3-6.4,7.4-8.6,15.3-8.1,5.4,0.3,7.4-.4,4.2-1.7s-0.4-9.6,3.2-9.6a1.2,1.2,0,0,0,1.3-1c0-.6,1.1-1,2.5-1,3.3,0,3.2-.7-0.6-4.6a13.7,13.7,0,0,1-2.5-15.2c1.6-3.2,1.6-3.2-.8-3.2a12.3,12.3,0,0,1-11.7-8c-0.4-.9-1,0.2-1.7,3s-2.6,10.1-4.5,17-4.2,16.8-5.2,22a46.8,46.8,0,0,1-2.4,8.7l-1.2-.6h0c0.1-.8.8-5.1,1.6-9.5s1.7-9.2,2-10.7a86.1,86.1,0,0,1,3.5-13.3,50.2,50.2,0,0,0,2-7c0.7-2.8,2.3-8.4,3.7-12.5a67.5,67.5,0,0,0,2.9-11,40.8,40.8,0,0,1,1.1-5.5c0.8-2.5.9-3,2.2-20.3,0.7-7.9.9-15.1,0.7-16s-2.7-29.3-2.7-37.4a33.1,33.1,0,0,1,.2-3.3c0.6-5.9,2.6-11.2,5.4-13.5,1-.9,3.8-1.5,6.6-1.5,5.9,0,4.8-1.5-1.5-2.2-4.4-.5-15.5,2.4-18,4.8-0.6.5,0.4,3,2.3,6.1s2.8,4.8,2.5,6a4.4,4.4,0,0,1-.5,1.4c-1.7,3.2-3.3,2.1-5.3-3.7-3.4-9.5-.7-21.6,6.1-31l1.3,0.6c-1.7,2.2-.8,2.4,2.8.7,8.6-4.4,18-3.4,23.1,2.3,2.2,2.6,3,4.6,3.5,9.8s0.1,13.2-1.4,15.2a44.4,44.4,0,0,0-2.5,6.5c-1,3-3.5,9.5-5.6,14.5a53.4,53.4,0,0,0-4.5,17.3c-0.6,7.9-.5,8.5,2.4,14.5,5.4,10.9,14,16.7,24.7,16.7,15.7,0,26-12.1,28.4-33.3,1.1-9.7.3-17.3-3.3-30.7-3-10.8-3.9-13.5-10.8-31.3l-5-12.7,0.5-2.2a104.5,104.5,0,0,0,14.2,2c7.9,0.6,9.5.5,13.6-1.4s6.5-3.9,4.9-4.9-2.2.5-3.5,1.9c-2.7,3-7.2,3.5-7.7.9s-0.5-1.5-2.2.3-2.1,1.5-2.4.6-1.6-1-4.2-.6-4,.2-4.4-0.4a1.7,1.7,0,0,0-2.1-.5,1,1,0,0,1-1.5-1.1,1.4,1.4,0,0,0-1.1-1.6c-0.5,0-.7.4-0.4,1s-1.5,1-3.2-1-3.5-2.6-2.7-.5-1.3,1.8-3.3-.5a6.2,6.2,0,0,0-3.6-2.1l0.8-1.7,1.1,0.4c3,1,3.4.9,3-.5-7.6-26.1-3.9-50.8,9.7-64.4,4.9-4.9,11.2-7.7,19.6-8.8,6.2-.7,7.3-0.5,17.2,3a62.7,62.7,0,0,1,17.4,8.7C348.7,125.7,355.3,129,365.4,129ZM143.7,149c0.4-9.8.2-13.9-1.2-18.9-4-15.3-15.1-29.4-25.5-32.6-8.6-2.5-18.5-3-25.7-1.1S71,104.8,67,108.4s-20.4,14.9-25.5,17.2c-12.8,6-25.9.5-29.5-12.5-2.3-8.3-.1-19.7,5-25.5C20.8,83.4,35.7,76,40.5,76S50,78.4,50,80s7.2,6,8.4,6,0.3-.6,0-1.3,0.6-1.3,3.1-1.4,3.5,0.3,3.5.8a1.1,1.1,0,0,1-1.2.9c-0.9,0-.9.3,0.1,1.2s1.6,0.8,3-1S77,80.8,77,82.9A1,1,0,0,0,78,84a0.9,0.9,0,0,0,.7-1.3c-0.1-.7.9-1.2,2.5-1.2a9.1,9.1,0,0,0,4.2-1.4c0.8-.7,1.9-1.1,2.3-0.8s2.8-.3,5.3-1.4l4.5-1.8H92C89,76,79.1,74.2,70,72c-17.8-4.3-21.5-4.7-22.3-2.6s-4,2.1-8.3,3.1c-9.1,2-17,5.4-22,9.5-3.4,2.8-9,12.7-10.3,18.2-4.6,19.1,10.3,34.4,30.1,30.9,7.4-1.3,14.6-5.2,26.5-14.6a153.3,153.3,0,0,1,18-12.1c8.7-4.7,8.8-4.8,18.3-4.8,6.6-.1,11.1.5,14.7,1.7,19,6.6,28.9,34.8,21.8,62.1-1.3,5-2.2,9.2-2,9.4s1.6,0,3.1-.5C141.4,171,143,164.9,143.7,149Z" transform="translate(0.1)"/><path class="cls-1" d="M300,176.5c1.6,1,.1,2.5-4.9,4.9s-5.7,2-13.6,1.4a104.5,104.5,0,0,1-14.2-2l-1.3-.3a134.6,134.6,0,0,0-15.3-2.6c-11.3-1.4-20.1.5-27.9,6a38.6,38.6,0,0,0-9.1,9c-6.8,9.4-9.5,21.5-6.1,31,2,5.8,3.6,6.9,5.3,3.7a4.4,4.4,0,0,0,.5-1.4l2.6,0.3a33.1,33.1,0,0,0-.2,3.3c0,8.1,1.9,35,2.7,37.4s0,8.1-.7,16c-1.3,17.3-1.4,17.8-2.2,20.3a40.8,40.8,0,0,0-1.1,5.5,67.5,67.5,0,0,1-2.9,11c-1.4,4.1-3,9.7-3.7,12.5a50.2,50.2,0,0,1-2,7,86.1,86.1,0,0,0-3.5,13.3c-0.3,1.5-1.1,6.3-2,10.7s-1.5,8.7-1.6,9.5h0a61.4,61.4,0,0,1-2-9.1c-2-10.8-2.2-11.4-3.2-14-0.3-.8-1.1-3.9-1.7-6.8-1.2-5-2.4-7-3.3-5.5S193,358.3,194,359s2.3,12.5,2.2,16.3c0,0.9.2,1.7,0.6,1.7v1.4c-0.8-.1-1.5-0.9-2.5-2.7a26.5,26.5,0,0,0-5.6-6.1c-3.2-2.4-4.2-2.7-9.5-2.3s-5.9.4-4.5-1.6a8.4,8.4,0,0,0,1.4-4.2c0-2.6-4.3-6.3-8.2-7.1s-3.5-1.3.2-4.8a16.2,16.2,0,0,0,3.9-6c1.1-3.9.2-9.5-1.5-10.2s-0.5-2.3,2.6-2.3c4.6,0,7.8-2,9-5.6,0.7-1.9,1.8-3.4,2.6-3.4s1.8-.2-0.6-8a143.5,143.5,0,0,1-4.7-23.5c-0.6-5.4-.4-29.6.2-37,0.3-3.3.7-12.1,0.8-19.6,0.2-13,.1-13.7-2.3-17.2s-7.3-6.1-11.6-5.1c-2.4.6-2.7,0.4-1.6-.7s12.9-1.6,19.6,1.4,5.8,2.9,4.4,4.5c-4,4.6-5.9,9.1-4.9,11.1a5.1,5.1,0,0,1,.1,4.7c-0.6,1.5-.7,3.1-0.2,3.6s7-14.4,7.3-18.7a37.1,37.1,0,0,0-10.2-27.7,37.7,37.7,0,0,0-11.7-8.6c-5-2.3-6.9-2.6-15.2-2.6s-11.2.3-17.7,1.9c-2,.4-3.1,1.1-3.2,1.7l-1.1-.3-4.7.8a102.7,102.7,0,0,1-14.3.9c-8,0-10.3-.4-14.3-2.4s-4.5-2.6-4.3-2.9,1.2,0,1.9.7,4.3,1.2,7.8,1.3,6.7,0.6,7,1.1,1.2,0.6,2,.1a11.9,11.9,0,0,1,4.9-.9c5-.1,15-2.5,15-3.6s0.5-.7,1-0.4,3.1,0.3,5.6-.1,4.4-1,4-2a1.7,1.7,0,0,1,.5-2c0.6-.3,1.3.3,1.6,1.4s1.1,1.8,1.8,1.5a1.4,1.4,0,0,0,.8-1.9c-0.3-.9.2-1.4,1.7-1.4s2,0.2,1,1.5-0.9,1.5.8,1.5a4.1,4.1,0,0,0,3.1-1.7c0.9-1.6,1.2-1.6,4.9.5a17.7,17.7,0,0,0,6.5,2.2c4,0,8.6,2.4,13.3,7,2.4,2.4,4.7,4,5,3.7s-0.9-2-2.9-4.2l2.1-.3c0.8,0.8,1.3.7,1.3-.4s-1-3-6.5-10.8c-3.7-5.3-4-5.9-5.2-9-3.9-10-6.8-20.3-12.2-43-1.3-5.2-3.4-11.8-4.8-14.5L151.9,96c-1.9-3.8-9-11-10.7-11a2.1,2.1,0,0,1-1.7-1c-0.7-1.1,2.3-.2,4.3,1.3a1.8,1.8,0,0,0,1.9.4c0.3-.4,1.5.5,2.6,1.9s2.2,2.3,2.9,1.2,0.9-.9.4,0.4a2.2,2.2,0,0,0,1,2.6,2.3,2.3,0,0,1,1.4,1.8c-0.2.5,0.9,1.5,2.4,2.2s2.6,2.1,2.6,3.1a4.8,4.8,0,0,0,1.5,3.1,4.3,4.3,0,0,1,1.5,2.4c0,0.6-.4.4-1-0.4s-1.2-1.1-1.6-.7,0.1,1.6,1.1,2.7,1.5,2,1.1,2,2.4,6.3,3.8,7.2,0.7,1-.2,1.6-0.8,1.4.7,3.4,1.8,3.3,1.4,4.6-0.1,2.2.7,2.2,0.9,0.8.5,1.9a4,4,0,0,0,1,3.5,4,4,0,0,1,.9,4c-0.4,1.8-.2,2.8,1,3.2s1.4,1.4,1,3.3a4.7,4.7,0,0,0,1,4.4,4.9,4.9,0,0,1,1.6,2.5,2.1,2.1,0,0,0,1.6,1.6,1.6,1.6,0,0,1,1,2.1c-0.6,1.6,4.3,12.5,5.6,12.5s1-1.6-.2-6.5c-1.9-7.3-.8-37.9,1.6-48.7,1.1-4.7,2.2-23.4,1.7-27.8a36,36,0,0,0-1.9-8.3c-1.9-5.1-1.8-5.4,1.1-2.7,1.3,1.2,2.2,2.7,1.9,3.2s0.2,1.1,1,1.4,2.1,3.1.4,3.7-0.8,1,.6,2.5,1.7,2.4.5,3.8-1.1,1.8-.1,2.1,1.6,3.3.1,3.3-1,1.9-.5,6.4,0.2,6.7-.3,7-2.1,6.6-1,8.7,0.7,2.4,0,3.2a2.4,2.4,0,0,0-.1,2.7c1.3,2.1,1.2,3-.2,2.8s-1.4,0-.3,4.5c0.5,1.7.3,2.7-.4,2.7s-1.4,3.7.2,4.4,1,0.7,0,1.2-1.7,3.4-.3,3.4,1.1,4-.7,4-1.5.3,0.5,1.9,3.1,5.6.7,4.7-1.9.8,0.5,2.9,2.6,3.5.3,3.5-1.3.3,0.5,2.3,1.9,2.6,1,3.5-0.9,1.5,0,2.4,1.6,4.2.2,3.3-0.3,3.6,2.1,9c0.9,2.2,2.6,6.1,3.8,8.7s2.2,4.8,2.6,4.8,7.1-14,8.5-18.8c2.7-8.8,2.9-10.4,1.4-9.8s-2-1.9-.4-2.9,0.7-1.7.4-3-0.1-2.6.5-2.9,0.9-1.9.7-3.4-0.1-1.9.1-.9c0.8,3.2,2.3.7,2.3-3.9s-1.2-5.9-2.3-3.2q-0.6,1.4-.6-0.3a3.8,3.8,0,0,1,1.1-2.7c0.9-.9.9-1.5,0-2.4s-0.8-1.7-.1-3a3.8,3.8,0,0,0-.1-3.7c-0.7-1.4-.7-2,0.2-2.3s0.8-1-.2-2.7-0.9-2.5,0-3.1,0.9-1.3.2-2.6-0.8-4-.5-6.6,0.1-5.3-.6-6.2-0.9-1.5.1-2,1-.7.1-1.2-0.9-1.8-.6-3.9a7.9,7.9,0,0,0-1-5.8c-0.9-1.4-1.2-2.8-.8-3.3a22.3,22.3,0,0,0,2.4-5.7c1.4-4.2,1.4-4.8.2-4.3s-1.5,0-1.5-.8,0.9-1.6,2.1-1.9,1.9-1.1,1.5-2.4a2.4,2.4,0,0,1,1.3-3c1.8-1.1,1.9-1,1,1.7l-1.8,6c-1.3,4.2-.6,23.9,1.3,34,1.1,5.6,1.6,14.2,1.6,25.5,0.1,17.3-.2,19.9-3.8,34-2.8,10.9-2.8,10.9-1.8,11.5s3.8-7.1,3.5-8.7a5.5,5.5,0,0,1,.4-2.3c0.3-.8,1.3-3.9,2.1-6.8a34.8,34.8,0,0,1,3-7.4,9.1,9.1,0,0,0,1.6-4.5c0-1.3.5-2.2,1.3-2s1.2-1,1.3-3.2,0.5-3.6,1.2-3.9,1.2-1.7,1.2-3.3,0.5-2.9,1.1-2.9,0.9-1,.7-2.5-0.1-2.8.3-3.1,0.9-1.9.9-3.5,0.6-3.2,1.5-3.5,1.3-1.3.9-2.6a4.3,4.3,0,0,1,1.1-3.8c1-1.1,1.5-2.6,1.1-3.5s-0.2-1.3.4-1,1-1,1-3.4,0.5-4.1,1-4.1,1-1.2,1-2.6,0.4-2.3,1-1.9,4.9-6.8,5-10c0.1-1.7.2-1.7,0.8-.3s1.6,0.6,5.2-3.7,5.2-5.4,6.1-5.4a5.2,5.2,0,0,0,2.7-1.3c0.9-.9,1.2-0.9,1.2,0a1.1,1.1,0,0,1-.9,1.2c-3.1,0-16.1,17-16.6,21.9a26.9,26.9,0,0,1-1.9,5.3,20.7,20.7,0,0,0-1.6,5.1c0,1.4-1.9,9-6,24.2-1.2,4.4-2.3,8.4-2.4,9a54.4,54.4,0,0,1-4.9,12.2c-1.7,3.4-2.9,6.5-2.5,6.8s8.8-4.8,8.3-6.2,1.2-2.6,5.3-2.7c2.1-.1,3.7-0.7,4-1.5s0-1.2-1.2-.8-1.5.3-1.1-.3a2.6,2.6,0,0,1,2.2-1,6.8,6.8,0,0,0,3.6-1.8c1.5-1.2,2.1-1.4,2.4-.5s2.3,1.6,2.3-.1,2.8-4.2,3.4-3.5a14.2,14.2,0,0,1,.9,3.6c0.1,0.4.1,0.8,0.2,1.1,0.2,2.1-1.2,2.9-9.8,8.2l-16,9.8c-6.3,3.8-13.2,11.3-12.5,13.4s1.4-.2,2.8-2.3,8.1-7.2,13.3-8.5c1.5-.3,2.7-1.3,2.7-2.1s0.6-1.3,2.3-.8c5.5,1.8,8.8,1.7,10.1,0s5.3-1.4,4.2.4,1.8,2.1,6,2.1c2.1,0,3.3-.4,2.9-1s-0.3-1.1.2-1.1a6.2,6.2,0,0,1,3.6,2.1c2,2.3,4.2,2.7,3.3.5s0.6-1.9,2.7.5,4.3,2.8,3.2,1-0.1-1,.4-1a1.4,1.4,0,0,1,1.1,1.6,1,1,0,0,0,1.5,1.1,1.7,1.7,0,0,1,2.1.5c0.4,0.6,2.2.8,4.4,0.4s4-.2,4.2.6,1,0.7,2.4-.6,1.9-1.8,2.2-.3,5,2.1,7.7-.9C297.8,177,299.4,176.1,300,176.5Z" transform="translate(0.1)"/><path class="cls-1" d="M282.6,227c3.6,13.4,4.4,21,3.3,30.7-2.4,21.2-12.7,33.3-28.4,33.3-10.7,0-19.3-5.8-24.7-16.7-2.9-6-3-6.6-2.4-14.5a53.4,53.4,0,0,1,4.5-17.3c2.1-5,4.6-11.5,5.6-14.5a44.4,44.4,0,0,1,2.5-6.5c1.5-2,2.1-8.9,1.4-15.2s-1.3-7.2-3.5-9.8c-5.1-5.7-14.5-6.7-23.1-2.3-3.6,1.8-4.5,1.6-2.8-.7l1.3-1.5c7.6-8.7,18.6-10.8,26.5-5.1,4.1,2.9,6.8,7.5,8.7,14.7s1.2,16.4-2.7,26.9c-11.8,32-12.4,34.7-8.8,42.7s8.7,10.8,17.7,10.8,14.2-3.7,18.4-13,4.2-24.5.5-38.5c-2.1-8.2-11-34.2-14.1-41.1-1.4-3.1-2.5-5.8-2.5-6s1.5-.4,3.4-0.4h3.4l5,12.7C278.7,213.5,279.6,216.2,282.6,227Z" transform="translate(0.1)"/><path d="M276.6,230.5c3.7,14,3.5,29.7-.5,38.5s-9.5,13-18.4,13-14.4-3.3-17.7-10.8-3-10.7,8.8-42.7c3.9-10.5,4.7-19.2,2.7-26.9s-4.6-11.8-8.7-14.7c-7.9-5.7-18.9-3.6-26.5,5.1l-1.3,1.5-1.3-.6a38.6,38.6,0,0,1,9.1-9c7.8-5.5,16.6-7.4,27.9-6a134.6,134.6,0,0,1,15.3,2.6l1.3,0.3-0.5,2.2h-3.4c-1.9,0-3.4.2-3.4,0.4s1.1,2.9,2.5,6C265.6,196.3,274.5,222.3,276.6,230.5Z" transform="translate(0.1)"/><path d="M258.5,171.2l-0.8,1.7c-0.5,0-.7.3-0.2,1.1s-0.8,1-2.9,1c-4.2,0-6.8-.9-6-2.1s-2.9-2.2-4.2-.4-4.6,1.8-10.1,0c-1.7-.5-2.3-0.3-2.3.8s-1.2,1.8-2.7,2.1c-5.2,1.3-10.9,4.9-13.3,8.5s-2.5,3.1-2.8,2.3,6.2-9.6,12.5-13.4l16-9.8c8.6-5.3,10-6.1,9.8-8.2h2.2a69.2,69.2,0,0,0,1.1,9.2C255.9,169.4,256.2,170.4,258.5,171.2Z" transform="translate(0.1)"/><path class="cls-1" d="M228.9,349.4c3.8,3.9,3.9,4.6.6,4.6-1.4,0-2.5.4-2.5,1a1.2,1.2,0,0,1-1.3,1c-3.6,0-6.4,8.4-3.2,9.6s1.2,2-4.2,1.7c-7.9-.5-12,1.7-15.3,8.1-1.6,3.1-2.6,4.3-2.8,3.3s-0.8-1.5-2.2-.7a2.2,2.2,0,0,1-1.3.4V377c1.3-.1,2.3-1.1,3.3-3.3a46.8,46.8,0,0,0,2.4-8.7c1-5.2,3.4-15.1,5.2-22s3.9-14.5,4.5-17,1.3-3.9,1.7-3a12.3,12.3,0,0,0,11.7,8c2.4,0,2.4,0,.8,3.2A13.7,13.7,0,0,0,228.9,349.4Z" transform="translate(0.1)"/><path class="cls-1" d="M226.6,209.3c6.3,0.7,7.4,2.2,1.5,2.2-2.8,0-5.6.6-6.6,1.5-2.8,2.3-4.9,7.6-5.4,13.5l-2.6-.3c0.2-1.3-.5-2.7-2.5-6s-2.9-5.6-2.3-6.1C211.1,211.7,222.2,208.8,226.6,209.3Z" transform="translate(0.1)"/><path d="M200.1,373.7c-1,2.2-2,3.2-3.3,3.3s-0.6-.8-0.6-1.7c0.1-3.8-1.5-15.8-2.2-16.3s-5.9-20.3-5.3-21.3,2.1,0.5,3.3,5.5c0.6,2.9,1.4,6,1.7,6.8,1,2.6,1.2,3.2,3.2,14a61.4,61.4,0,0,0,2,9.1Z" transform="translate(0.1)"/><path class="cls-1" d="M184,196.4c0,0.3-2.2-.6-4.8-1.9-10.6-5.3-18-4-23.1,4s-4.8,19.3,3.1,37c8.6,19.2,9.7,30,4.4,40.8-3.9,8-8.9,12.3-16.5,14.3-12,3-20.5,0-29.4-10.5-5.9-7.1-8.1-24-5.2-41.2,2-12.1,10.6-39.1,15.9-49.8l3.6-7.3,1.1,0.3c-0.1.5,0.5,0.8,2,.8s2,0.4,1.5,2.7a63,63,0,0,1-3.6,8.8c-3.3,6.9-10.1,27.6-13,39.8-5,20.8-.1,41.4,11.2,47.3,3.6,1.9,12.2,1.8,16.4-.2s10.1-8.6,11.4-13.5,0.7-9.4-4.6-22.4-8-20.7-9.2-27.6-0.1-17.2,2.7-22.6c5-9.9,18.5-14.4,26.1-8.8a15.1,15.1,0,0,0,4.4,2.5,4.4,4.4,0,0,1,1.7,1.5C181.8,192.4,184,195.6,184,196.4Z" transform="translate(0.1)"/><path class="cls-1" d="M183.7,182.2l-2.1.3a78.8,78.8,0,0,0-11.2-9.6l-5.5-4c-0.3-.3-3.9-2.5-8-4.8l-9-5c-0.8-.4-1.6-2-1.8-3.4s0-2.6,1.2-2.1,1.6,0.1,1.6-.5a1.1,1.1,0,0,0-1.2-1.1c-0.6,0-.8-0.3-0.4-0.7s1.4,0,2.1,1a2.7,2.7,0,0,0,3.4,1.2c1.2-.3,2.1-0.2,2.1.3a1.6,1.6,0,0,1-1.2,1.4c-2.1.7,6.5,5.2,9.5,5s5.5,0.7,3.8,1.8,0.2,1.6,2.6,3.3a31.9,31.9,0,0,1,11.1,12.4A20.1,20.1,0,0,0,183.7,182.2Z" transform="translate(0.1)"/><path d="M180.9,189.8l-0.7.7a4.4,4.4,0,0,0-1.7-1.5,15.1,15.1,0,0,1-4.4-2.5c-7.6-5.6-21.1-1.1-26.1,8.8-2.8,5.4-4,15.5-2.7,22.6s3.3,13.3,9.2,27.6,6.1,16.9,4.6,22.4-6.7,11.2-11.4,13.5-12.8,2.1-16.4.2c-11.3-5.9-16.2-26.5-11.2-47.3,2.9-12.2,9.7-32.9,13-39.8a63,63,0,0,0,3.6-8.8c0.5-2.3.3-2.7-1.5-2.7s-2.1-.4-2-0.8,1.3-1.2,3.2-1.7c6.5-1.6,8.4-1.8,17.7-1.9s10.2,0.3,15.2,2.6A37.7,37.7,0,0,1,180.9,189.8Z" transform="translate(0.1)"/></svg>