<svg id="Layer_1" data-name="Layer 1" xmlns="http://www.w3.org/2000/svg" viewBox="0 0 395 479.9"><defs><style>.cls-1{fill:#bca873;}.cls-2{fill:#87090a;}.cls-3{fill:none;stroke:#000;stroke-width:0.25px;}</style></defs><title>lannister_emblem</title><g id="layer1"><path class="cls-1" d="M175,272a4.9,4.9,0,0,0,1.1-1.6c1-1.9.8-3-.7-4.4s-2.4-1.5-3.6-1.1-0.8.5-.6,1.4a9,9,0,0,0,1.3,2.4l1.6,2.3A2.5,2.5,0,0,0,175,272Zm32.6-14.6,6.5-8.3c1.7-2.2.3-1.3-3.8,2.6a66.1,66.1,0,0,0-13.9,17.9c-2.3,4.5-2.6,6.5-2.6,14.7,0,5.7-.4,9.7-1.1,10.1s-1-.9-0.9-4.1,0.1-6.5,0-8.4l-0.2-3.5-0.9,3.5a112.8,112.8,0,0,0-.7,16v12.5l1.3-7c0.6-3.9,1.3-6.6,1.4-6s-0.1,9-1,12.8-0.6,3.6.6,2.6a1.7,1.7,0,0,0,.8-2c-0.3-.5,0-1.7.5-2.8s1.3-7.7,1.6-14.7C196.1,275.2,198.1,269.2,207.6,257.3Zm7-5.1c-1-.9-10.5,11.9-13.6,18.4s-3.5,7.9-4.1,22c-0.4,8.1-1.1,15.3-1.5,16s-0.5,1.2-.2,1.2,1.5-2.3,2.7-5,2.5-5,2.8-5,3.3-7,4.2-13.9a48.8,48.8,0,0,1,7.4-21.7c4.5-7.5,4.8-12.1.3-4.9l-5.5,8.8c-1.4,2.2-2.7,3.6-3,3.3s2-4.6,5.1-9.7S214.8,252.4,214.6,252.2ZM105.9,314c0,1.3.8,1.1,1.5-.4s0.8-2.3.1-2.3S105.9,312.9,105.9,314Zm34.7-76.5c8.7-6.8,12.1-8.9,13.5-8.4s-0.3,1.3-2.2,2.3a79.4,79.4,0,0,0-7.5,5.4c-2.3,1.9-5.3,4.3-6.6,5.2s-2,1.7-.9,1.7,2.6-1,3.9-2.4,2.8-2.5,3.4-2.5,2.3-1.2,3.8-2.7,2.8-2.2,2.8-1.7-2.2,2.7-5,4.8-5,4.1-5,4.5,7.5,0,9.8-2.1,2.6-1.9,2.9-1a1,1,0,0,0,1.4.6c0.5-.3.9,0,0.9,0.7s0.3,0.9,1.4,0a3.8,3.8,0,0,0,1-3.5c-0.3-2,.3-2.5,4.7-4s10.9-2.1,10.9-.6-1.5,1-3.2,1.1c-4.2,0-10,2-10.5,3.5s0.7,0.8,3.4-.2a36,36,0,0,1,8.3-1.4c8.8,0,26.4,4.6,32.6,8.6,1.3,0.9,2.7,1.4,3.1,1.1s-16.5-8.8-23.6-9.9c-3.9-.6-7.1-1.4-7.1-1.9s3.3-.6,11.6,1.1a45.4,45.4,0,0,1,16.5,6.6c5.6,3.5,6.2,2.9.7-.9a48,48,0,0,0-16.8-7.8c-2.8-.8-3.8-1.4-2.7-1.7s12.3,2.6,16.7,5.3l4.5,2.7c0.7,0.4,1.1-.6,1-2.5s-0.5-3.3-2-3.5a7.6,7.6,0,0,1-3-1.4l-0.4-.5c1.7,1.2,2.7,1.6,2.7,1s-0.7-2.1-1.5-4.3c-3.9-11.1-8.4-17.5-18.9-26.7-6.1-5.4-11-10.1-12.7-12.3s-8.4-11.6-10.5-15.2a20.9,20.9,0,0,0-1.9-2.9l-1.1.7c-1.4,1-2.2,1.2-2.8.7s-0.6-1.1.4-2.6,1-2.8-.3-3h-0.4a4.1,4.1,0,0,1,2.7-1.6,1.3,1.3,0,0,0,1.4-.8c0-.5-2.6-0.6-5.7-0.4-4.8.3-6.3,0-8.5-1.7s-4.2-6.3-3-10.6l0.9-3,0.7,3.8c0.9,5.1,4.3,7.2,9.3,6,3.3-.8,4-1.5,5.7-5.8,2.4-5.8,2.4-6,3.1-5.4s-1.5,7.7-3.4,10-3.4,2.5-6.7,3l-4.9.6,4.3,0.2c5.6,0.1,9.1-3.2,12.2-11.6a25.9,25.9,0,0,1,7.1-10.7,10.9,10.9,0,0,1,3.4-2c1.1-.4-0.1,1.1-2.6,3.3s-5.1,5.5-6.9,10.3-3.4,7.6-4.9,9.2-2.2,2.6-.6,1.8,5.1-4.3,6.4-8.3,4.8-9,11-13.9c2.9-2.3,5.9-5.6,6.6-7.3s1.4-2.4,1.5-1.5c0,3-2,6.3-5.6,8.7s-11.4,10.9-11.4,12.5,1.2-.4,2.7-2.1l2.1,0.2L171,152c-1.7,1.9-2.5,4.2-2.8,8.4a52.2,52.2,0,0,1-1,7.4c-0.4,1.2-.3,1.3.7,0.2s1.6-3.3,1.9-5.9,1.1-4.8,1.8-5.1,1.2,0,.3,1.6c-1.9,3.5-1.2,11.2,1,11.2,0.5,0,.9-1,0.9-2.3a8.4,8.4,0,0,1,1-3.7c0.7-1.1.9-.5,0.8,2.3-0.1,4.4.7,5.5,3,4.1a3.9,3.9,0,0,0,1.7-2.2l2.2,0.3c-0.5,1.7-.3,1.5.8,0.1s1.5-4.3,1.5-8.6c0-5.8.4-7.2,2.8-10.6a41.8,41.8,0,0,1,4.7-5.4,29.2,29.2,0,0,0,4.6-6c1.6-2.5,2.9-3.8,2.9-2.9s-4.6,8.6-7.4,10.8-5.6,8.8-5.6,14.9c0,4.5-.5,6.6-2.1,8.6s-1.6,2.6-1,2.6,4-4.4,4.6-10c1-9.1,1.4-9.9,7-16,3.7-4,5.7-7.2,6.5-10.2,1.4-5.8,3.9-10.6,7.4-14a30.8,30.8,0,0,0,4.7-7.6c1.4-3.6,1.8-4.1,1.8-2.2,0.1,3.5-3.1,10-6.3,12.9a15.9,15.9,0,0,0-3.6,6.5c-1.9,7.3-4.2,11.4-8.1,14.6s-7.6,8.7-6.5,9.8,0.6,0,.6-0.7c0-2.3,8.2-10.2,10-9.6s6-2.6,7.6-8.9a22.7,22.7,0,0,1,6-10.9c5.8-6.4,7.1-11,5.4-18.1s-0.9-11.4,2-17.7a23.5,23.5,0,0,0,2-7.9c0.1-3,.2-3.2,1-1.3s0.5,4.1-1.5,9.8c-0.6,1.6-.5,1.7.4,0.5,2.6-3.6,3.2-9,1.7-14.5s-2-7.8,0-4.1a26.5,26.5,0,0,1,2.4,7.5l0.8,4.6V79.8a38.8,38.8,0,0,0-1-8.5c-1.7-6.8-1.8-7-3.1-5.7a4.4,4.4,0,0,1-2.7,1.2c-0.9,0,.2-1.2,2.4-2.5,4.2-2.6,3.8-3.5-.5-1a12,12,0,0,1-5,1.5c-2.4.1-2.4,0.1-.6,1.5s1.9,1.5.2,1.5-1.7.5-1.2,2.6,0.3,2.3-.4,1.9-1.3-.3,1,5.5,2.5,8.6-.1,13q-2.1,3.6-1.5,1.2c0.2-1.2,0-2-.5-1.6a2.2,2.2,0,0,0-.9,1.7c0,1.4-6.1,8.6-6.9,8.3v-0.2c0-.6,1.1-2.1,2.5-3.4,3.4-3.2,4.8-8,3.5-11.5a6.1,6.1,0,0,1-.6-3.3c0.3-.3,1,0.7,1.5,2.2,1.4,3.6,2.2,3.3,1-.6s-0.3-5.1,1-1.7c0.7,1.8,1,2,1,.6s-0.8-3.5-1.8-5.5c-2.7-5.2-3.7-11.2-2-11.2s1-.3.1-1.2-1.2-.9-1.6-0.8l-1.7-.5a17.9,17.9,0,0,0,1.5-3.4c0.4-1.8.3-2.1-.8-1.2s-4.3.3-5-1.9-1.8-1.8-4.9-2a16.6,16.6,0,0,0-3.1.1V54.4h0.3c0.7-.7-4.3-3.7-5.4-3.2s-1.4,2.7-.9,3.3h0.1l-0.3.3c-1.1-1.1-2-1.8-2.5-1.7l-4.9.5-0.2-1.4a5.8,5.8,0,0,0,3.4-1.5,25.7,25.7,0,0,0,3.4-3.1l1.5-1.8h4.8a78.9,78.9,0,0,1,8.7.5c5.2,0.7,6.8.7,8.6-.2s2.4-1.6,3.4-3.7,0.5-1.2-.5-3.3-1-2.3-.7-2.6,4.1,3.3,5,5.3a7.6,7.6,0,0,1,.6,2.3l-0.3.5c-0.6.9-4.2,2.7-8,4-6.2,2.1-7.6,2.2-11.7,1.2-2.6-.7-5.1-0.9-5.4-0.5s0,1.8,3.1,2.1c1.5,0.2,3,.7,3.3,1.2a4.7,4.7,0,0,0,2.2,1.2c2.2,0.5,4.1,2.3,3.4,3.3s0.3,1.1,3.8-1.1a10.3,10.3,0,0,1,7.2-1.8,31.8,31.8,0,0,1,6.6,1.8c4.7,1.6,5.6,1.7,6.3.4a2.7,2.7,0,0,1,2.1-1.4h0.1c-0.4.7-.2,1.1,1,1.6a30,30,0,0,1,4.7,4.1c2.3,2.4,4,3.8,5,4.2a3.7,3.7,0,0,1,1.5.9,2.3,2.3,0,0,1-.9.8c-0.7.5-1.5,0.6-4.4,0.4s-3.5,0-3.5.1a8.9,8.9,0,0,0,1.6,2,12.9,12.9,0,0,1,2.1,2.9c0.7,1.6,2.9,3.5,4.1,3.5s3.6,0.5,3.6,1-3.1,2-5.9,2.2a7,7,0,0,0-2.6.4,18.3,18.3,0,0,0,.5,2,26.7,26.7,0,0,1,.8,3.7c0.3,2.6,3,7.5,4.9,9a4.7,4.7,0,0,1,1.3,1.3c0,0.7-1.4.7-3.8,0l-3.3-.7c-0.7,0-.6.2,0.8,1.6s3.1,3.1,4.1,5.2a8.6,8.6,0,0,1,1,4.6c0,2.4-.1,2.8-1,4.2a7.6,7.6,0,0,1-4.8,3.2l-1.3.2-0.3,5c-0.2,2.7-.2,5.8-0.1,6.8s1.4,4,2.3,4a5,5,0,0,0,2-1.4c1.4-1.5,2.7-1.9,2.7-.9a7,7,0,0,1-1.6,2.3c-1.3,1.4-1.6,1.9-1.4,2.6a1,1,0,0,1,0,.9,11.4,11.4,0,0,1-3.4-1.6,12.6,12.6,0,0,0-2.9-1.2c-2.5-.8-3.9-2-5.9-4.9a6.8,6.8,0,0,0-1.6-1.9c-0.5,0-.3,1.6.2,2.3s0.7,8.2.2,11.3-0.2,5.2,1.3,7a10,10,0,0,0,4.5,3.3c1.9,0.5,4.1-2.3,3.7-4.7s0.3-2.3.8-1.7a6.2,6.2,0,0,1,.9,4.1c-0.3,1.9-1.5,3.5-3.7,5.2s-6.3,2.8-10.2.7c-2.2-1.2-2.6-.8-2.6,2.3s0.1,2.8,1.5,5.4c3.5,6.7,3.4,10.3-.7,15-1.7,2-2.1,2.6-1.9,3.3l0.5,2.5c1,6,2.4,12.4,3.2,15.1,0.4,1.2,1.2,4.3,1.9,6.9a158.6,158.6,0,0,0,11.5,29.4c3.9,7.9,4.4,9.3,5.2,13.4s2.7,8.2,7,10.6a21.4,21.4,0,0,0,7.1,2.9c-2.7.2-2.7,0.7-2.5,2.2a6.2,6.2,0,0,0,1,3c0.5,0.4.5-.1,0.2-1s-0.2-2,.3-2.3,1,0.3,1,1.4a3.5,3.5,0,0,0,1,2.6c0.6,0.3,1-.4,1-1.7s0.2-2,.9-0.8a2.1,2.1,0,0,1,.5,2.1,1.2,1.2,0,0,0,.6,1.4c0.6,0.3,1-.4,1-1.7v-2.3l1.5,2.5c0.8,1.4,1.3,1.7,1,.7s1.2-2.3,2-.2,2.5,1.9,1.7-.3-0.3-1.5.8-.5a4.3,4.3,0,0,0,2.2,1.3c0.4,0,.5-0.6.1-1.3s-0.3-.8.9,0.1,6.1,0.7,5.2-.9,0.9-1.1,2.4.3a1.4,1.4,0,0,0,.9.6l0.3,0.5-2.5,1.5a31.9,31.9,0,0,1-10,3c-4.2.6-6.5,0.4-13.1-1.1-3.7-.9-12-4.7-13.3-6.2s-1.7-.9-2.9,1.3a45.7,45.7,0,0,1-3.1,4.8c-2.5,3.3-2.8,4.2-2.5,6a3,3,0,0,0,1.5,2.2c1.7,1.2,3.1,1.1,4.2-.1l1.9-2.2c0.9-1.1,1.1-1.2,1.3-.6a6.5,6.5,0,0,1-.4,2.8,7.1,7.1,0,0,1-3.6,4.4c-0.7.4-.7,0.5,0.3,2.3s1.2,3.9-.2,6.5-2.2,2.8-2.3.4a2.7,2.7,0,0,0-1.3-2.6,2.4,2.4,0,0,0-2.4-.7,4.1,4.1,0,0,0-3.2,2.4c-0.6,1.2-.6,1.3.2,3.3a8.6,8.6,0,0,0,3.1,4c2.1,1.8,2.3,1.9,3.7,1.7,3.1-.4,4.7-1.1,6.5-2.4a10.6,10.6,0,0,1,2.2-1.4c0.7,0,.7,1.2,0,2.8-2.6,5.7-3.9,7.4-6.2,8.3-0.7.3-1.2,0.6-1.1,1s3.5,1.7,7.4,2.5,5.5,3.4,5.5,7.3c0,1.7-.2,2.4-0.9,2.2a6,6,0,0,1-2.1-1.6c-2.2-2.2-3.9-2.7-5.2-1.5s-1.1,1.7,0,3.2,2.1,2.1,5.5,2.1h1.7a4.6,4.6,0,0,1,3,1.1c3.4,2.4,7.3,5.8,7.3,6.3s-1.6,1.4-2.9,1.4-4.2,2.4-3.9,3c1.7,2.9,3.4,3.8,6.4,3.1a5,5,0,0,0,3-1.6c1.2-1.3,1.9-1.5,2.3-.7a16.5,16.5,0,0,1-.9,4.2c-1,3.3-1.3,3.9-2.8,5.3a18.6,18.6,0,0,1-3.6,2.6l-1.9,1-0.2,2.3c-0.3,3.4-.8,4.2-3.7,6.4s-2.8,1.6-3.2,1h0a7.8,7.8,0,0,1,.4-2.2c0.7-2.6.4-4.3-1.1-5.8s-3-1.5-3.5.3-0.1,1.7,1,4.3a12.2,12.2,0,0,1,1.1,3.7,6.2,6.2,0,0,1-.8,3.4,28.1,28.1,0,0,1-5,6c-0.8.5-1.5,0-1.9-1.6s-2-4.1-2.9-4.3-1.3.1-.8,1.7a12,12,0,0,1,.1,6.7,20.3,20.3,0,0,1-2.7,3.6,14.9,14.9,0,0,0-2.4,3.4,5.9,5.9,0,0,1-.7,1.6,2.7,2.7,0,0,0-.5,1.3c0,0.6-2.2,2.9-3.5,3.5a5.1,5.1,0,0,1-3.8.7c-1.2-.5-1.1-0.8.6-1.7s2.1-1.7,2.1-4.1a4.7,4.7,0,0,0-1.1-3.4,5.4,5.4,0,0,1-1.1-2.4,7.1,7.1,0,0,1,1.1-2.6c1.7-2.8,1.3-3.8-.7-1.5s-2.5,3.8-2.5,4.9-3.3,6.9-4.7,6.9-2.7,1.1-4.4,4a14.3,14.3,0,0,1-4.3,4.9,13.3,13.3,0,0,0-2.7,2.4c-0.1.3,0.3,1,1,1.7s1.4,1.1,2.7,1,1.5-.1,1.7.4-5.5,2.8-8.7,1.1-3.4-3.3-3-4.7-1.3-2.9-3.2-2.9a3.5,3.5,0,0,0-1.9.4c-0.6.6-.5,2.4,0.1,3.9s0.3,2-.7,2-3.6-2-4.4-3.1-0.7-1.2-.5-3.6a17.7,17.7,0,0,0,0-5.6c-0.3-2.1-.8-2.4-1.9-0.9a3.2,3.2,0,0,0-.5,2.6c0.3,2.2-.3,2.5-1.9,1s-1.2-1.3-1.2-3.7,0.1-2.7,1.2-4.2a19.5,19.5,0,0,0,2-3.9c1.1-3.1,2.7-4.8,6.3-7.1l7.4-4.7c7.7-4.9,10.4-7.6,13.2-13.1a15.1,15.1,0,0,0,1.5-5.8c0.4-3.5.4-3.6-.4-4.4a1.9,1.9,0,0,1-.6-1.9,2.3,2.3,0,0,0-.6-2c-1-1.2-1.8-1.1-2.3.3s-1.3,1.2-1.6.2,0.3-2.5.9-2.5,0.4-.8-0.6-1.9-1-1-1.8-.6-1.7.2-1.4-1.2a1.7,1.7,0,0,0-.7-2l-0.9-.8-0.8.8c-1.6,1.5-2.7.5-1.6-1.4s-0.1-2-1.8-1.9h-1.4l-0.2-2.1c-0.2-2.1-.2-2.1-1.4-2.1s-1.6-.5-1.4-1.8-1.2-3.5-2.1-3.5a2,2,0,0,0-1.2.9,24.1,24.1,0,0,1-6.5,6.1,11.4,11.4,0,0,0-3.6,3.3,23.5,23.5,0,0,1-2,2.8c-1.3,1.5-4.7,4.3-5.3,4.3s-0.4-1.4.8-2.3,4.2-4.1,3.6-4.7a4.3,4.3,0,0,0-1.7.6,10.3,10.3,0,0,1-7.2.1c-1.9-.9-1.6-2.2.4-1.5l2.7,0.6c1.5,0.3,1.8.2,3-.8s5.1-6.6,5.1-7.5a0.6,0.6,0,0,0-.7-0.5c-1.1,0-1.2-.6-0.2-2.8s1.6-5.7,1-5.7a2.9,2.9,0,0,0-1.2.9,2.8,2.8,0,0,1-1.3.9c-0.6,0-.6-0.8.2-2.7l1-2.2c1.4-2.9,1.6-3.7,1.6-5.6s-0.5-2.9-1.5-1.2a2,2,0,0,1-1.2,1.1c-0.9,0-.6-1.4.7-3.6s1.8-4.3,2.6-8.5a2.5,2.5,0,0,0-.4-1.7c-0.7-1-.5-2.5,1.1-6.9a70.1,70.1,0,0,1,3.3-7.9c0.7-1.4,1.4-2.8,2.2-3.9s1.7-2.8.7-3.3-6.4,1-6.4,3.6a3.5,3.5,0,0,0,.7,1.8c0.7,0.8.9,1.4,0.8,1.7s-1.6.2-3.2-1.3-1.9-1.5-2.1-1.4a2.3,2.3,0,0,0-.4,1.5,8.7,8.7,0,0,1-2.9,6.7,16.9,16.9,0,0,1-2.7,2.1c-1,.5-1,0.6-2,4.5-0.5,2.2-.5,2.3.2,3.1a2.7,2.7,0,0,0,2.2.8c2.7,0,3.1,1.1.6,1.8a12.1,12.1,0,0,1-10.7-2.3c-2.8-2.3-2.7-2.2-2.4-1.2s2.3,3,5.7,4.7,6.4,4.1,7.4,7.1a28.8,28.8,0,0,1,1.1,5.3c0.2,2.2.4,3,1.1,3.8a2.4,2.4,0,0,1,.7,1.3c0,1-2.1.7-3.9-1.1s-2.6-1.8-2.6-.6-1.3,3.6-2.7,5a16.5,16.5,0,0,1-3.4,2.4c-2.4,1.3-4.5,3.3-4.8,4.4a4.3,4.3,0,0,0,1.4,3.3c0.8,0.7.7,1.4-.3,1.4s-2.9-2-3.6-4a17,17,0,0,1,0-8.4c0.6-1.8.3-2.5-1.2-2.2s-3.9,3.1-6.8,10.1c-2,4.9-4.7,7.8-8.3,9a12.3,12.3,0,0,0-3.2,1.7,8.8,8.8,0,0,1-4.5,2.3c-2.3.5-6.7-.8-6.1-1.8a5.9,5.9,0,0,1,2.2-.5c2.2-.3,3-0.8,3.9-2.4a2.2,2.2,0,0,0,.1-2.1c-0.7-2-.5-4.4.6-5.6s0.8-1.2.6-1.5-1.8.1-5.1,3.8-3.8,4-6,5.3a12.3,12.3,0,0,1-3.7,1.6,1.6,1.6,0,0,0-1.5,1.1c-0.8,1.5-.7,2.1.5,3.7a6.6,6.6,0,0,1,1,1.7c0,0.6-1.9-.1-3.8-1.4s-3.3-3.4-3.2-5.3a8.7,8.7,0,0,0-.5-3c-0.6-1.5-.8-1.7-2.2-2.1l-1.7-.3-1.1,1.5a3.1,3.1,0,0,0-.8,2.9c0.2,1.3.1,1.6-.4,1.8s-2-1.3-3-3.8a9.4,9.4,0,0,0-2-3.1,7,7,0,0,1-2.3-4.6c0-1.2,2-4.5,3-5.1a9.4,9.4,0,0,0,2.1-2.6c3.1-5.3,8.3-9.1,15-11a65.4,65.4,0,0,1,11.9-2,11.5,11.5,0,0,0,6.3-2.9c1.7-2,1.8-2.3.9-5a14.4,14.4,0,0,0-1.2-2.8c-0.2-.2-0.8.1-1.7,1.1s-6.6,3.7-7.2,2.6a3.5,3.5,0,0,1,1.2-1.7c2.5-2.5,2.5-5,0-2.9s-1.7,1.2-1.7.3,1.7-3.3,2.8-4.4,1-1.6.5-1.9a6.5,6.5,0,0,0-2.2,1.8,8.8,8.8,0,0,1-2.4,1.9c-1,0-.4-1.6,1.4-4.1a38.2,38.2,0,0,0,2.5-3.6c0.7-1.3,2.1-6.9,1.9-7.1a18,18,0,0,0-3.2,2.9c-2.8,2.8-4.5,3.8-4.5,2.7A19,19,0,0,1,130,264c4.6-5.5,5.2-6.5,2.9-5.4a31.2,31.2,0,0,1-4.2,1.4c-3.4.9-5.5,0.9-10.8-.3s-4.1-1.7-.4-2.2,4.1-1.4,6.6-4,3.1-3.9,2.7-4.2l-1.9-1.1c-2.6-1.5-4.8-3.3-5.5-4.8a14.9,14.9,0,0,0-2.6-3.1c-1.9-1.7-2.7-3.1-2.2-4.2s0.7-.6,1.7,1.1,2,2.1,2,.2,0.7-2.4,1.4-2a7.4,7.4,0,0,1,.6,2.7c0.4,3.7.5,3.8,4.9,3.7a19.2,19.2,0,0,0,3.4-.2l0.3,1.6c-1.4.6-.7,0.5,1.7,0.1S136.7,240.6,140.6,237.5Z"/><path class="cls-2" d="M167,280.6a12.1,12.1,0,0,0,10.7,2.3c2.4-.7,2-1.7-0.6-1.7a2.7,2.7,0,0,1-2.2-.8c-0.7-.8-0.7-0.9-0.2-3.1,0.9-3.9,1-4.1,2-4.5a16.9,16.9,0,0,0,2.7-2.1,8.7,8.7,0,0,0,2.9-6.7,2.3,2.3,0,0,1,.4-1.5c0.2-.1,1.2.5,2.1,1.4s3,1.9,3.2,1.3H190a70.1,70.1,0,0,0-3.3,7.9c-1.5,4.4-1.8,5.9-1.1,6.9a2.5,2.5,0,0,1,.4,1.7c-0.8,4.2-1.5,6.8-2.6,8.5s-1.6,3.6-.7,3.6a2,2,0,0,0,1.2-1.1c1-1.7,1.5-1.4,1.5,1.2s-0.2,2.7-1.6,5.6l-1,2.2h-2.2a2.4,2.4,0,0,0-.7-1.3c-0.7-.8-0.9-1.6-1.1-3.8a28.8,28.8,0,0,0-1.1-5.3c-1-3.1-2.8-4.8-7.4-7.1s-5.2-3.3-5.7-4.7S164.2,278.3,167,280.6Z"/><path class="cls-2" d="M187.9,265.3c0.1-.3-0.1-0.9-0.7-1.7a3.5,3.5,0,0,1-.7-1.8c0-2.6,4-4.8,6.4-3.6s0.9,0.8-.7,3.3-1.4,2.4-2.2,3.9h-2.1Z"/><path class="cls-2" d="M314.7,131.9c1.1,1.2,3.3,2,6.2,2.3s5-.8,7.6-3.1l2.5-2,0.7-.5c1.6-1,2.8-2.8,3.9-5.5a15,15,0,0,0-.6-10.3,6,6,0,0,1-.7-2.6,2.5,2.5,0,0,1,1.6-.4,7.6,7.6,0,0,0,4.1-2l0.3-.4c0.5-.7,1.3-0.3,3.5,1.8s2.3,2.4,2.3,3.5a7.9,7.9,0,0,1-4.3,6.7,3.1,3.1,0,0,0-1.3,1c0,0.6,1.5.7,2.4,0.2l1.3-.5c0.8,0,2.8-2,3.8-4s1.2-2.6,1.3-5.4a9.6,9.6,0,0,0-.2-3.8,8.9,8.9,0,0,1,.5,1.3c0.3,1.4,1,2.5,1.4,2.5,2,0-2-9.3-4.8-11-1.1-.6-1.4-0.9-1-1.3h0l1.1-.7c2.2-1.3,5.7-5,5.7-6s-0.7-.2-1.7.2a9.8,9.8,0,0,0,.9-7l-0.7-2.4a1.4,1.4,0,0,0-.9-1c-0.5-.1-0.6.2-0.6,2.8s-0.6,5.2-2.8,7.1-3.1,2.1-4.8.9-0.7-.4-1.1.2a1.6,1.6,0,0,1-1.1.6c-1.7,0-6.1-3.3-7.2-5.4s-0.5-1,.1-0.7,6.5-.2,7.6-1.3,2.2-5.1,1.9-6.3-2.7-3.9-4-3.9-2.1.3-2.7,1.4a6.2,6.2,0,0,0-.5,1.2c0,0.4,1.4.2,1.8-.3a1.1,1.1,0,0,1,1.2-.3c1,0.3,2.3,1.6,2.3,2.3s-1.9,3.3-3.2,4.2-1.5.8-4.2,0.7-3.3-.3-6.2-1.7a12.3,12.3,0,0,1-3.2-1.9,3,3,0,0,1,1.6-.9c3.2-1.1,4.5-2.3,6.2-5.6a5.4,5.4,0,0,0,.8-3.8c-0.2-2-1.8-5.3-2.8-5.9s-1.3.3-.9,2,0.3,1.8-1.6,3.8-3.9,3.1-7.7,3.9a22.6,22.6,0,0,0-7.9,2.9l-1.3.8-0.4-.3c0-.3-1-1-2.4-1.7a30.9,30.9,0,0,0-11.7-3.7,18.5,18.5,0,0,0-7.6,0,31.4,31.4,0,0,0-11.6,4.2c-3.4,1.9-4.7,3-8.8,6.9a42.7,42.7,0,0,0-12,20.7c-0.9,3.9-1,4.5-1,13.1s0.1,9.6.8,13.7a152.4,152.4,0,0,0,7.4,25.5c1.7,4.2,2.5,6.8,2.3,7l-0.5.2-0.8-.2c-2.6-1-8.8,0-11.5,1.8s-3.4,2.9-4.8,6.1a16.7,16.7,0,0,0-1.9,8c0,4.1,2.3,10.3,3.7,9.8a1.5,1.5,0,0,0,.2-2.1c-0.6-.4-0.4-3.8.3-5.3s3.2-3.7,6.8-3.7a3.9,3.9,0,0,1,3.6,1.4c1.2,1.1,1.5,1.5,1.2,1.9l-1.9,2.5a9,9,0,0,0-1.8,7.7c0.4,2.1,1.7,4.6,2.2,4.5s0.5-1.2.6-2.8,0.9-4.4,3-5.9a6.4,6.4,0,0,1,6.5-.5l1.2,0.8-1.1.9a10.4,10.4,0,0,0-3.6,6,6,6,0,0,0,.9,3.9c1,2,1.8,2.7,2.3,1.9a5.8,5.8,0,0,0-.4-2.2c-0.8-2.4-.6-3.7,1.1-5.7s2.9-2.6,5.5-1.8a25.5,25.5,0,0,0,4.5.8l2.5,0.2,1.5,3c2.1,4.1,4.3,9.3,4.3,10.2s-0.6,1-2.2,1.7l-3.7,2c-1.8,1.2-4.7,5.3-4.7,6.8a6.6,6.6,0,0,1-.7,2.4c-1.5,2.9-.6,3.5,1.8,1.3a8.4,8.4,0,0,1,2.7-1.8l1.6-.3c0.4-.1.6,0,0.6,0.2s-2.6,3.3-4,4l-2.2,1.1a19.1,19.1,0,0,1-4.8,1.3,10.5,10.5,0,0,1-4.6-.8,12.6,12.6,0,0,1-4-3.3c-1.5-1.8-1.7-2-1.8,1.1l-1.4-1.3,0.2-2.3a10.7,10.7,0,0,1,1.4-4.5c1.3-2.3,1.1-3.3-.3-2.5s-3.4,4.4-4.3,9.5-0.9,7.6,0,10.5,2.3,4.5,4.9,5.5,2.4,0.8,13.4-.3c4.2-.4,6,0,9.1,2.1a7.4,7.4,0,0,1,3.6,7.2c-0.3,4.1-.4,4.5-2.4,6.6a14.2,14.2,0,0,1-5.1,3.5,33.5,33.5,0,0,1-8.6,2.8H261.8a21.4,21.4,0,0,1-7.1-2.9c-4.3-2.5-6.1-5.2-7-10.6s-1.3-5.6-5.2-13.4A158.6,158.6,0,0,1,230.9,201c-0.7-2.6-1.6-5.7-1.9-6.9-0.8-2.7-2.2-9.1-3.2-15.1l-0.5-2.5c-0.2-.7.2-1.3,1.9-3.3,4.1-4.7,4.2-8.3.7-15-1.4-2.7-1.5-3.2-1.5-5.4s0.4-3.4,2.6-2.3c3.9,2.1,6.8,1.9,10.2-.7s3.4-3.2,3.7-5.2a6.2,6.2,0,0,0-.9-4.1c-0.5-.5-1,0.5-0.8,1.7s-1.8,5.1-3.7,4.7a10,10,0,0,1-4.5-3.3c-1.5-1.8-1.9-4-1.3-7s0.5-10.5-.2-11.3-0.7-2.3-.2-2.3a6.8,6.8,0,0,1,1.6,1.9c2,2.9,3.4,4,5.9,4.9a12.6,12.6,0,0,1,2.9,1.3,11.4,11.4,0,0,0,3.4,1.6,1,1,0,0,0,0-.9c-0.2-.8,0-1.2,1.4-2.6a7,7,0,0,0,1.6-2.3c0-1-1.2-.6-2.7.9a5,5,0,0,1-2,1.4c-1,0-2.2-2-2.3-4s0-4.1.1-6.8l0.3-5,1.3-.2a7.6,7.6,0,0,0,4.8-3.2c0.9-1.3,1-1.8,1-4.2a8.6,8.6,0,0,0-1-4.6c-1-2-1.5-2.6-4.1-5.2s-1.5-1.6-.8-1.6l3.3,0.7c2.4,0.7,3.8.7,3.8,0a4.7,4.7,0,0,0-1.3-1.3c-1.9-1.5-4.5-6.4-4.9-9A26.7,26.7,0,0,0,243,81a18.3,18.3,0,0,1-.5-2,7,7,0,0,1,2.6-.4c2.8-.2,5.9-1.3,5.9-2.2s-1.7-.9-3.6-1-3.4-1.9-4.1-3.5a12.9,12.9,0,0,0-2.1-2.9,8.9,8.9,0,0,1-1.6-2c0-.2,1.6-0.2,3.5-0.1s3.7,0.1,4.4-.4a2.3,2.3,0,0,0,.9-0.8,3.7,3.7,0,0,0-1.5-.9c-1-.4-2.7-1.8-5-4.2a30,30,0,0,0-4.7-4.1c-1.1-.5-1.4-0.9-1-1.6s2.5-2,2.5-3.6-0.7.1-1.7,0.6,0-.5,0-0.8c0-2.3-.1-2.8-0.8-3.7s-1.5-1-1.8.9a4.5,4.5,0,0,1-1.1,2.5,9.9,9.9,0,0,1-2.8,1.9l0.7-1.4c2.2-4.3,2-6.1-.4-4.1V46.9a8.7,8.7,0,0,0-1.5-4.9,6.5,6.5,0,0,0-1.9-2.2c-0.9-.2-1.1.9-0.3,2.3s0.6,4.8-2.2,6.6l-1,.5,0.3-.9a11.3,11.3,0,0,0,.2-4c-0.3-1.3-.4-1.5-1-0.5a7.6,7.6,0,0,0-.6-2.3c-0.9-2-4.5-5.8-5-5.2s-0.1,1,.7,2.6,1.1,2.3.5,3.3-1.9,3-3.4,3.7-3.3.9-8.6,0.2a78.9,78.9,0,0,0-8.7-.5h-4.8l-1.5,1.8a25.7,25.7,0,0,1-3.4,3.1,5.8,5.8,0,0,1-3.4,1.5h-1.3c-5.9.5-13.4,2-14.5,3a1.6,1.6,0,0,0-.4,1.8,14,14,0,0,1,.2,2.1c-0.1,4.6.1,5.5,1.4,9.6,0.5,1.6.9,3.1,1.1,3.9a1.9,1.9,0,0,1,.1.7c-0.3.5-2.7,0.4-5.4,0a25.9,25.9,0,0,1-7.8-3.4c-1.1-.8-1-1.4.8-3.3s1.8-2.5.9-3.1a4.1,4.1,0,0,0-1.9-.6c-4.1-2.4-10.1-1-13.2,3.1-1.2,1.5-1.2,4.8-.2,6.9a11.4,11.4,0,0,0,6.3,5c2.1,0.7,2.8.8,7.3,0.6s5.4-.3,6.3-0.7a14.3,14.3,0,0,1,3-.8l3.1-.6,2.8-.4h0.1v0.5c-0.7,0-2.6,2.1-2.9,3.2a18.2,18.2,0,0,1-1.1,2.5c-1.5,2.9-2,7-1,7.8s0.8,0.4,1.8-.1,5-1,8.7-.7l3,0.3v1.1a7.7,7.7,0,0,1-5,6.3c-2.3.8-3.4,0.7-7.5-.7-6.6-2.2-10.2-1.6-16.2,2.7a14.6,14.6,0,0,0-2.1,1.7,1.2,1.2,0,0,1-.9.4,0.6,0.6,0,0,1-.7-0.8,1.6,1.6,0,0,0-1.5-1.8,1.4,1.4,0,0,1-.9-0.6,5.9,5.9,0,0,1-.6-1.6c-0.7-2.3-1.4-3.2-2.3-2.7l-0.5.2-0.6-1h0a2.6,2.6,0,0,0-.8-1.5l-1.4-1.8V89.2a1,1,0,0,0-.8-0.8l-3.1-3.4-0.5-.6a5.6,5.6,0,0,1-.5-2,1.8,1.8,0,0,0-1.1-.8,3.4,3.4,0,0,1-1.6-1.4,6.6,6.6,0,0,0-1.2-1.6,2.5,2.5,0,0,1-.7-1.8,2.4,2.4,0,0,0-.6-1.6c-0.5-.4-0.6-0.3-1.1.3h0c-0.7-1.4-1.7-2.6-2.3-2.7a3.3,3.3,0,0,1-.2-1.3c0.1-1.1,0-1.2-1.1-1.4h-0.4c-0.8-.1-0.8-0.4-1-1.9s-0.4-2-1.7-1.5-0.1-1.1-.1-1.7c-0.1-3.7-.4-5.5-0.6-3.9a5.3,5.3,0,0,1-.5,1.7,74,74,0,0,1,.5-10.3c0.3-2.4.5-6.4,0.5-8.9v1.8l0.6,8,0.2-7.6c0.2-5.7-.2-8-1.3-8.9l-0.2-.2L122.7,35l-0.3-.9a25.1,25.1,0,0,0-1.5-4.1c-0.6-1.1-.7-1.7-0.7-4.1s0-2.9-.8-3.7-6-3.1-6-1.7a4.6,4.6,0,0,0,1.5,1.9c1.3,1.1,1.5,1.4,1.1,2a1,1,0,0,1-.8.5l-2.6-.2h-1.3c-1.3-.2-1.7-0.8-2.2-2.7a3.9,3.9,0,0,0-1.7-2.3l-1.3-.9-2.2.6c-2.2.7-3,1.3-2.7,1.9a1.5,1.5,0,0,0,1.1.4c1.9,0,3.2,2.6,2.1,4s-3.5,4.2-3.9,4.2a6.4,6.4,0,0,1-1.8-1c-2-1.4-3.5-2.2-4.4-2.1s-5,2.9-5.2,3.9,0,0.8.7,0.6l1.5-.4c0.5-.1,1.2.2,2.1,1l1.4,1.2-0.4,1.6a10.7,10.7,0,0,0,.3,7c0.8,1.6,3.4,4.6,4,4.6s3.1,2.6,3.1,3.4a3.3,3.3,0,0,1-.6,1.6l-0.3.5H98.2a0.9,0.9,0,0,0-.1-0.8,1.5,1.5,0,0,0-.6-0.7l-2.2,1.4c-4.4,3-5.2,5.1-3.4,8.5a7.9,7.9,0,0,1,.9,4.3c0,3.4.6,4.5,4.9,8.4s4.3,4.3,2.8,3.8l-3.4-.6c-2.3-.3-2.7-0.3-4.1.4a6.6,6.6,0,0,0-3.3,4.3c-0.3,1.5.4,1.7,1.9,0.6s4-1.2,8.1,2a11.3,11.3,0,0,0,3.3,2c1.2,0,1.2,1,.1,2.2s-2.8,5.1-1.6,7.2,4.9,5.1,5.8,5.1,0.6-.3.6-1.5a3.1,3.1,0,0,1,.3-1.4,1,1,0,0,0,.5.6c0.5,0.3,1-.1,1-0.9a3.7,3.7,0,0,1,1.5-2.4h1.6a8.3,8.3,0,0,1,2.3.5,4.4,4.4,0,0,1-.3,2.1c-0.5,1.8-.5,1.9.4,4.2a7.3,7.3,0,0,0,1.3,2.3c0.5,0,.3,1.6-0.2,2.3a5.7,5.7,0,0,0-.5,2.8c0,2,.1,2.3,1.8,4.5a11.4,11.4,0,0,0,2.1,2.4c0.6,0,1.2-1.1,1-1.9a1.6,1.6,0,0,1,.7-1.7l0.9-.9v0.3h0.2l0.5,0.6c0.5,0.6.7,1.4,0.7,3.3v2.4l-2.6,1.9a37.3,37.3,0,0,0-3.6,3,3,3,0,0,1-4.1.5c-1.4-.8-1.6-1.8-0.9-4.3s0.8-3-.4-2.3a7.8,7.8,0,0,0-3,4.9c0,1.9,1.7,4,4.5,5.5s2.3,1.2,3.8.8a38.2,38.2,0,0,0,4.4-1.8c4.6-2.2,8.3-2,6.5.4a4.8,4.8,0,0,1-3.8,1.5c-2,0-2.2.6-.6,2.6s3.4,3,6.8,4,2.7,0.7,4.1.2,2.1-.7,2,0.2-0.3.8-3.5,1-3.5.3-4.7,1.2a6.9,6.9,0,0,0-2.4,4.5c0,1.1,1,1.3,1.9.4s4-1.1,4.3,0-3.6,4.6-6.2,4.6-6.5-1.9-7-4.9c-0.3-1.4-.4-1.7-1.2-1.7s-0.9.2-1,1.2a5.9,5.9,0,0,0,2.4,5.3,11.3,11.3,0,0,0,3,1.8c1.9,0.6,1.8,1.7-.2,2a13.8,13.8,0,0,1-4.9,0,1.7,1.7,0,0,0-1.2.3c-0.7.5-.7,0.5,0,1.3s0.5,1.3-1.6.8-1.8-.3-2,0.3-1,.9-1.3.1-1.4-.7-2,0-0.4.6,0.2,1a1.3,1.3,0,0,1,.5,1.1c-0.1.3-.3,0.5-1.1,0.6h-2.5c-3.4.1-7.4-.5-9.1-1.4L92.2,153c-5.3-1.1-8.2-2-10.8-3.6L77,147.1c-2.4-1.1-2.5-1.1-6.8-.9s-4.7.1-5.5-.4-5.1-.4-6.6.6-3.2,3.4-3.2,4.5,0.9,1.4,2.2.3,2.5-1.2,3.4-.6-1.4,2.7-3.7,3.7a5.7,5.7,0,0,0-2.6,2.1c-1.5,2.4-1.3,7,.3,7.2s0.8-.2,1.1-1.3a2.5,2.5,0,0,1,1.3-1.8c2.1-1,2.5-.4,1.9,2.5A7.8,7.8,0,0,1,57,167c-2,2.4-2.2,3.3-1.3,5.1s3.2,4.7,4.2,4.1,0.4-.5,0-1.7-0.4-1.5.4-2.5,1.7-1.5,2.8-.9,3.7,0.6,5.9-.5a6.5,6.5,0,0,1,4.4-.9,12,12,0,0,0,4.4-.5c3.2-1,4.8-1.2,5.5-.8s0.2,1.7-1.6,1.8a2.2,2.2,0,0,0-2.2,1.3,15.2,15.2,0,0,1-1.7,2.3c-1.2,1.3-2.2,1.1-4.1-.5s-1.7-1.3-2-.3,0.5,3.4,2.1,4.9,2.5,1.8,4.8.7a7.2,7.2,0,0,1,4.9-.5c1.5,0.3,5.8-.8,7.6-1.9a33.8,33.8,0,0,0,5-4.4h0l1.5-1.4c0.3,0.3.4,1.2,0.2,2.6s-1.5,4.7-2.9,5.3a3.7,3.7,0,0,0-1.5,1.2c-0.7,1.1,0,1.4,3.3,1.1a8.5,8.5,0,0,0,4.8-1.4,11.1,11.1,0,0,0,2.9-2.6l1-1.2,0.3-.2a1.5,1.5,0,0,1,.3,1.3c0,1,.3,1.6,1.3,2.6s4.3,2.3,9.3,1.9c3.3-.3,3.7-0.4,3.7-1s-0.5-.8-2-1.4a4.8,4.8,0,0,1-2.9-2c-1.1-1.7-1.1-2.6.1-4s1.7-1.3,5.7,1.8,4.9,3.5,8.1,4,3,0.3,3.1-.2h1.2c-0.3.4-.2,0.6,0.1,1a7.3,7.3,0,0,0,4.4,1.5,6.4,6.4,0,0,0,4-1.7l0.6-.9h0c1.3-.8,2.3-2.4,3.2-5a11.7,11.7,0,0,1,1.2-2.7,2.9,2.9,0,0,1,1.9.9c1.2,1.2.9,3.1-.8,4.8a2.8,2.8,0,0,0-1,1.6c0.3,0.5,2.6-.1,3.4-0.8s1.6-3.3,1.9-5.9a5.3,5.3,0,0,1,.8-2.2,3.9,3.9,0,0,0,1.8-1.3l0.2-.2h0.4c1.3,0.2,1.4,1.3.3,3s-1.1,2-.4,2.6,1.4,0.2,2.8-.7l1.1-.7a20.9,20.9,0,0,1,1.9,2.9c2.2,3.6,8,12,10.5,15.2s6.6,6.9,12.7,12.3c10.5,9.3,15,15.7,18.9,26.7,0.8,2.3,1.5,4.2,1.5,4.3s-1,.2-2.7-1c-0.2-.3.1-0.2,0.7,0.1s1.2,0.5,1.2.1-7.7-5.5-13-7.9l-3.8-2.6a9.1,9.1,0,0,0-2-1.3,1.2,1.2,0,0,0-.3,1.1c0,0.7-.1.9-0.3,0.9h-0.3c-3.8-1.2-5.4-1.3-13.7-1.6s-9.3-.4-11.4-1-3.3-.9-3.3-0.3,1.4,1.9,2.6,2.2,1.6,0.8,1.1,1.3a26.9,26.9,0,0,1-4.7,1.2l-1.7.3c-3.4.6-5.2,0.4-10.9-.7s-5.9-1-5.8-.5,2.2,2.1,2.9,2.1l2.6,0.6,3.7,0.8,1.6,0.2-1.2.7a52.5,52.5,0,0,0-8.9,6.3l-3.5,3.8a17.2,17.2,0,0,1-3.8,3.2,6.5,6.5,0,0,1-2,.7,19.2,19.2,0,0,1-3.4.2c-4.4,0-4.5-.1-4.9-3.7a7.4,7.4,0,0,0-.6-2.7c-0.6-.4-1.4.7-1.4,2s-0.8,1.8-2-.2-1.4-1.9-1.7-1.1,0.3,2.5,2.2,4.2a14.9,14.9,0,0,1,2.6,3.1c0.7,1.4,2.8,3.3,5.5,4.8l1.9,1.1c0.4,0.3-1,2.5-2.7,4.2s-4.3,3.6-6.6,4-3.5,1.4.4,2.2,7.4,1.2,10.8.3a31.2,31.2,0,0,0,4.3-1.4c2.2-1.2,1.7-.1-2.9,5.4a19,19,0,0,0-2.4,3.3c0,1.1,1.7.1,4.5-2.7a18,18,0,0,1,3.2-2.9c0.3,0.3-1.2,5.9-1.9,7.1a38.2,38.2,0,0,1-2.5,3.6c-1.8,2.4-2.4,4.1-1.4,4.1a8.8,8.8,0,0,0,2.4-1.9,6.5,6.5,0,0,1,2.2-1.7c0.5,0.3.3,1.2-.5,1.9s-2.8,3.7-2.8,4.4,0.5,0.8,1.8-.3,2.6,0.4,0,2.9a3.5,3.5,0,0,0-1.2,1.7c0.6,1.1,5.3-.7,7.3-2.6s1.5-1.3,1.8-1.1a14.4,14.4,0,0,1,1.2,2.8c0.9,2.7.9,2.9-.9,5a11.5,11.5,0,0,1-6.3,2.9,65.4,65.4,0,0,0-11.9,2c-6.7,1.9-11.8,5.7-15,11a9.4,9.4,0,0,1-2.1,2.6c-1,.6-3,3.9-3,5.1a7,7,0,0,0,2.3,4.6,9.4,9.4,0,0,1,2,3.1c1,2.5,2.2,4.1,3,3.8s0.5-.5.4-1.8a3.1,3.1,0,0,1,.8-2.9l1.1-1.5,1.7,0.3c1.4,0.4,1.6.6,2.2,2.1a8.7,8.7,0,0,1,.5,3c-0.1,1.9,1,3.9,3.2,5.3s3.8,2,3.8,1.4a6.6,6.6,0,0,0-1-1.7c-1.2-1.6-1.3-2.2-.5-3.7a1.6,1.6,0,0,1,1.5-1.1,12.3,12.3,0,0,0,3.7-1.6c2.2-1.3,3.4-2.4,6-5.3s4.3-4.5,5.1-3.8,0.1,0.7-.6,1.5-1.3,3.5-.6,5.6a2.2,2.2,0,0,1-.1,2.1c-0.8,1.6-1.7,2.1-3.9,2.4a5.9,5.9,0,0,0-2.2.5c-0.6,1,3.8,2.3,6.1,1.8a8.8,8.8,0,0,0,4.5-2.3,12.3,12.3,0,0,1,3.2-1.7c3.5-1.1,6.3-4.1,8.3-9,2.9-7,4.8-9.8,6.8-10.1s1.8,0.4,1.2,2.2a17,17,0,0,0,0,8.4c0.7,2,2.4,4,3.6,4s1.1-.8.3-1.4a4.3,4.3,0,0,1-1.4-3.3c0.3-1.2,2.5-3.2,4.8-4.4a16.5,16.5,0,0,0,3.4-2.4c1.4-1.4,2.7-3.8,2.7-5s1-1,2.6.6,3.9,2.1,3.9,1.1h2.2c-0.7,1.9-.8,2.7-0.2,2.7a2.8,2.8,0,0,0,1.3-.9,2.9,2.9,0,0,1,1.2-.9c0.6,0,0,3.4-1,5.8s-0.9,2.8.2,2.8a0.6,0.6,0,0,1,.7.5c0,0.9-3.7,6.4-5.1,7.5s-1.4,1.1-3,.8l-2.7-.6c-2-.7-2.3.6-0.4,1.5a10.3,10.3,0,0,0,7.2-.1,4.3,4.3,0,0,1,1.7-.6c0.5,0.5-1.3,2.9-3.6,4.7s-1.7,2.3-.8,2.3,4-2.7,5.3-4.2a23.5,23.5,0,0,0,2-2.8,11.4,11.4,0,0,1,3.6-3.3,24.1,24.1,0,0,0,6.5-6.1,2,2,0,0,1,1.2-.9c0.8,0,2.3,2.4,2.1,3.5s0.1,1.8,1.4,1.8,1.2,0,1.4,2.1l0.3,2.1h1.4c1.7-.1,2.5.7,1.8,1.9s0,2.8,1.6,1.4l0.8-.8,0.9,0.8a1.7,1.7,0,0,1,.7,2c-0.2,1.4.2,1.7,1.4,1.2s1-.3,1.8.6,1.2,1.9.6,1.9-1.1,1.7-.9,2.5,1.2,0.8,1.6-.2,1.4-1.5,2.3-.3a2.3,2.3,0,0,1,.6,2,1.9,1.9,0,0,0,.6,1.9c0.8,0.8.8,0.9,0.4,4.4a15.1,15.1,0,0,1-1.5,5.8c-2.8,5.5-5.5,8.2-13.2,13.1l-7.4,4.7c-3.6,2.3-5.2,4.1-6.3,7.1a19.5,19.5,0,0,1-2,3.9c-1.1,1.5-1.2,1.9-1.2,4.2s0.1,2.6,1.2,3.7,2.1,1.2,1.9-1a3.2,3.2,0,0,1,.5-2.6c1.1-1.5,1.6-1.2,1.9.9a17.7,17.7,0,0,1,0,5.6c-0.2,2.4-.2,2.8.5,3.6s3.7,3.1,4.4,3.1,1.3-.8.7-2-0.7-3.3-.1-3.9a3.5,3.5,0,0,1,1.9-.4c1.9,0,3.5,1.5,3.2,2.9s1.1,3.7,3,4.7,9.5,0.9,8.7-1.1-0.5-.6-1.7-0.4-1.6.1-2.7-1-1.2-1.4-1-1.7a13.3,13.3,0,0,1,2.7-2.4,14.3,14.3,0,0,0,4.3-4.9c1.8-2.9,3-4,4.4-4s4.7-4.8,4.7-6.9,1.1-3.3,2.5-4.9,2.4-1.3.7,1.5a7.1,7.1,0,0,0-1.1,2.6,5.4,5.4,0,0,0,1.1,2.4,4.7,4.7,0,0,1,1.1,3.4c0,2.4-.3,3.1-2.1,4.1s-1.7,1.3-.6,1.7a5.1,5.1,0,0,0,3.8-.7c1.3-.7,3.5-2.9,3.5-3.5a2.7,2.7,0,0,1,.5-1.3,5.9,5.9,0,0,0,.7-1.6,14.9,14.9,0,0,1,2.4-3.4,20.3,20.3,0,0,0,2.7-3.6,12,12,0,0,0-.1-6.7c-0.6-1.6-.4-2,0.8-1.7s2.4,2.4,2.9,4.3,1,2.1,1.9,1.6a28.1,28.1,0,0,0,5-6,6.2,6.2,0,0,0,.8-3.4l2.1-.3h0c0.4,0.6,1.5.3,3.2-1s3.4-3,3.7-6.4l0.2-2.3,1.9-1a18.6,18.6,0,0,0,3.6-2.6c1.4-1.4,1.8-2,2.8-5.3a16.5,16.5,0,0,0,.9-4.2c-0.3-.8-1.1-0.6-2.3.7a5,5,0,0,1-3,1.6c-3,.7-4.7-0.2-6.4-3.1-0.3-.5,2.9-3,3.9-3s2.9-.8,2.9-1.4-3.9-3.9-7.3-6.3a4.6,4.6,0,0,0-3-1.1v-2.2c0.7,0.2.9-.5,0.9-2.2,0-3.8-2-6.5-5.5-7.2s-7.3-2-7.4-2.5,0.4-.7,1.1-1c2.4-.9,3.6-2.6,6.2-8.3,0.7-1.6.7-2.8,0-2.8a10.6,10.6,0,0,0-2.2,1.4c-1.8,1.3-3.4,1.9-6.5,2.4-1.4.2-1.6,0.1-3.7-1.7a8.6,8.6,0,0,1-3.1-4c-0.8-2.1-.8-2.1-0.2-3.3a4.1,4.1,0,0,1,3.2-2.4,2.4,2.4,0,0,1,2.4.7,2.7,2.7,0,0,1,1.3,2.6c0.2,2.3.9,2.2,2.3-.4s1.4-4,.2-6.5-1-2-.3-2.3a7.1,7.1,0,0,0,3.6-4.4,6.5,6.5,0,0,0,.4-2.8c-0.2-.6-0.4-0.5-1.3.6l-1.9,2.2c-1.1,1.2-2.4,1.3-4.2.1a3,3,0,0,1-1.5-2.2c-0.3-1.8.1-2.7,2.5-6a45.7,45.7,0,0,0,3.1-4.8c1.2-2.2,1.8-2.5,2.9-1.3s9.6,5.3,13.3,6.2c6.6,1.5,8.9,1.7,13.1,1.1a31.9,31.9,0,0,0,10-3l2.5-1.5a42.4,42.4,0,0,0,11.9-11.7l1.9-2.9,2.5,0.2a9.2,9.2,0,0,0,4.3-.4,95.7,95.7,0,0,1,11.8-2.2c3-.4,8.2-5,8.2-7.2s-0.6-1-3.4,2.4a13.6,13.6,0,0,1-6.6,3.9c-1.7.4-2.4,0.3-2.4-.4s3-4.8,3.7-5.2,5.2-4,5.5-4.8a8.4,8.4,0,0,1,.8-1.3,0.7,0.7,0,0,0,.1-1c-0.3-.3-1,0.2-2.5,1.7a19.5,19.5,0,0,1-2,1.9c0.1-.3-0.2-0.3-0.8.1h-0.2a2.7,2.7,0,0,1-.4-1.4,17.6,17.6,0,0,0,1.2-3.7l0.5-2-1.5,2-0.4.5c0-.9-0.1-1.7-0.2-2.4a12.6,12.6,0,0,0,.3-5.9c-0.7-2.1-.7-2.1-1.5-0.2l-0.2.5-0.7-1.2c0-.1,0-0.2,0-0.3-0.1-1.7-.4-2.4-0.7-1.8l-0.4.7-2-2a14.2,14.2,0,0,0-1.6-4.4c-1-1.7-1.3-1.8-.9-0.5a17.4,17.4,0,0,1,.7,3.2l-0.4-.7a20.8,20.8,0,0,0-1.4-3.3,12.4,12.4,0,0,0-1.9-3.1h0a10,10,0,0,0-2.9-2.5,12.1,12.1,0,0,0-3.1-1.4,7.3,7.3,0,0,1-2.4-1.9l-1.3-2.8a3.4,3.4,0,0,0,.7-3c-0.5-1.7-.7-2-2.3-1l-0.6-1.3c1.3-.8,1-1.4-1.1-6s-3.2-12.5-1.4-15.9a2.4,2.4,0,0,0,.1-2.7,10.8,10.8,0,0,0-1.5-2c-3.9-4.2-4.1-10-1.1-13.7l0.7-.3c3-1.4,4.5-1.2,6.9.9s2.7,3.4,2.7,4.7-1.4,4.1-3.2,5.9-2.3,3-.8,2.6,6.4-3.3,7.6-5.6a13.4,13.4,0,0,0,.9-2.2c0.6,0.9,1.9-1.3,2.2-4.6a10.6,10.6,0,0,0-5.8-10.5,16.3,16.3,0,0,0-3.9-1.3l-0.3-.2c-2-1-2.6-1.1-6.3-1.3s-4.4-.1-6.6.6a22.1,22.1,0,0,0-4.6,2.2c-2.6,1.7-6.4,5.4-7.1,6.7a1.8,1.8,0,0,1-.9,1,0.8,0.8,0,0,1-.4-0.4c1.2-.3,1-0.9-0.7-4.8a14.8,14.8,0,0,0-2.9-4.4l-0.5-1.8c1.2,0.1,1.1-.5.5-3-2.7-9.7-3.7-24.4-2.2-31.3,2.2-9.9,6.1-17.9,11.5-23.1,3.3-2.4,6.2-3.5,11-4.5a11.5,11.5,0,0,1,6.4,0l3.4,0.8c0.2,0.1-.3,1.2-0.9,2.4a11.6,11.6,0,0,0-1.2,2.8,21.8,21.8,0,0,1-.9,3.3c-1.1,3.4-3.2,6.1-5.7,7.1a4.9,4.9,0,0,1-1.7.5l-1.4-.3c-2.2-.7-3.1-1.7-3.1-3.6a7.6,7.6,0,0,1,.7-2.9c1.5-3,.2-3.7-1.6-0.8a7.3,7.3,0,0,0-1.2,3.9c-0.1,2,0,2.3,1.3,4.3s3.2,3.8,6.1,4.6,2.4,0.6,4.3,0a18.2,18.2,0,0,0,4.5-2.5,15.2,15.2,0,0,0,4.5-3.3l1.1-1.1c0.9,1.2,3,8.3,3,10.4a10.3,10.3,0,0,1-3,7,5.4,5.4,0,0,1-5.4,1c-1.8-.9-1.9-2.1-0.6-4.7s0.9-2.9,0-2.9-4.4,3.2-5.2,4.4a8.9,8.9,0,0,0-.9,2.1c-0.9,3,1,7.4,4,9.3a7.5,7.5,0,0,0,4.1,1.2,7.7,7.7,0,0,0,3.4-.3c1.3-.7,1.7.1,1,1.5-2.4,4.7-2.2,10.4.4,14s7.7,6.6,10.4,6.4,2.2-.9,1.1-1.2l-2.5-1.1a4.6,4.6,0,0,1-2.6-2.6c-0.8-1.6-.8-1.8-0.3-4.2v-0.2l0.7,1.3,0.8-2.9a13.5,13.5,0,0,1,2.1-4A1.9,1.9,0,0,1,314.7,131.9ZM395,0V136.2c0,140.2-.2,149.9-4.1,167.8-6.3,29.4-18.8,50.3-40.3,67.6-10,8-19.6,14.1-64.6,40.6-1.9,1.2-11.4,6.1-21,11.1s-21.3,11.4-26,14.5c-11.1,7.4-25.9,21.8-34,33.1-3.6,4.9-6.9,9-7.5,9s-3.9-4.1-7.5-9c-8.1-11.3-22.9-25.6-34-33.1-4.7-3.1-16.4-9.6-26-14.6s-19.1-9.8-21-11c-39.5-23.1-54.8-32.7-64.6-40.6C18.4,350.7,4.7,323,1,283.5c-0.6-6.9-1-62.4-1-147.3V0H395Z"/><path class="cls-2" d="M249.1,346.4c0.5-1.8,1.8-1.9,3.5-.3s1.9,3.2,1.1,5.8a7.8,7.8,0,0,0-.4,2.2l-2.1.3a12.2,12.2,0,0,0-1.1-3.7C249,348.2,248.8,347.5,249.1,346.4Z"/><path class="cls-2" d="M254.5,316.5v2.2h-1.7c-3.4,0-4.2-.3-5.5-2.1s-1.1-2.1,0-3.2,3-.8,5.2,1.5A6,6,0,0,0,254.5,316.5Z"/><path d="M200.7,299.8c-0.3,0-1.6,2.2-2.8,5s-2.4,5-2.7,5-0.2-.5.2-1.2,1.1-7.9,1.5-16c0.6-14.1.8-15.1,4.1-22s12.6-19.3,13.6-18.4-2.2,4.5-5.4,9.5-5.4,9.4-5.1,9.7,1.6-1.1,3-3.3l5.5-8.8c4.5-7.2,4.2-2.6-.3,4.9a48.8,48.8,0,0,0-7.4,21.7C204,292.8,201.9,299.8,200.7,299.8Z"/><path class="cls-1" d="M178.1,150.7c0.6-4.9-1-5.1-5.5-.4l-2.1-.2,0.9-1.1a55,55,0,0,1,8-7.3c4.9-3.3,6.6-6,8.3-13.4s2.3-7.2,8.3-11.3,6.5-6.1,5.9-9.2c-0.2-1.2,0-1.2.9-.3s0.4,5.9-3.1,8.5c-7.5,5.6-9.6,8.3-10.8,13.7s-4.1,10.5-8.4,12.8c-1.8.9-2.7,1.8-1.9,2.1s3.2-1.2,5.6-3.2,4.6-4.4,5.1-7.8c1-5.7,3-9.6,6.9-12.7,6-4.9,10.6-10.6,10.7-13.1a12.9,12.9,0,0,1,.9-4.5,1.3,1.3,0,0,1,.5-0.8c0.3,0,.3,1,0.3,3.3-0.1,5.1-1.7,8.4-5.7,11.8-1.9,1.6-2.1,2.1-.7,1.6s0.2,1-2.2,3.4-4.2,5.1-4.2,6.9c0,5.8-2,10.2-6.1,13.5-5.8,4.7-7.9,9.5-6.6,15.8,0.6,3.3.6,5.9-.2,8.2l-0.4,1.3-2.2-.3c0.6-1.8.2-4.5-1-8.3A21.5,21.5,0,0,1,178.1,150.7Z"/><path class="cls-1" d="M182.9,167c0.8-2.3.8-4.9,0.2-8.2-1.3-6.3.8-11.1,6.6-15.8,4.1-3.3,6.1-7.7,6.1-13.5,0-1.8,1.3-4,4.2-6.9s3.3-3.9,2.2-3.4-1.2,0,.7-1.6c4-3.4,5.6-6.7,5.7-11.8,0.1-2.2,0-3.3-.2-3.3l0.5-2.2c0.9,0.3,6.9-6.9,6.9-8.3a2.2,2.2,0,0,1,.9-1.7c0.5-.4.7,0.4,0.5,1.6s0.1,1.2,1.5-1.2c2.6-4.4,2.6-6.7.1-13s-2.4-6.4-1-5.5,0.9-.2.4-1.9-0.3-2.6,1.2-2.6,1.6-.1-0.2-1.5-1.8-1.4.6-1.5a12,12,0,0,0,5-1.5c4.3-2.5,4.7-1.6.5,1-2.2,1.3-3.3,2.5-2.4,2.5a4.4,4.4,0,0,0,2.7-1.2c1.3-1.3,1.4-1.1,3.1,5.7a38.8,38.8,0,0,1,1,8.5v4.5l-0.8-4.6a26.5,26.5,0,0,0-2.4-7.5c-2-3.7-2-2.5,0,4.1s0.9,10.9-1.7,14.5c-0.9,1.2-1,1.1-.4-0.5,2-5.7,2.3-7.8,1.5-9.8s-0.9-1.7-1,1.3a23.5,23.5,0,0,1-2,7.9c-2.9,6.3-3.5,11.5-2,17.7s0.4,11.7-5.4,18.1a22.7,22.7,0,0,0-6,10.9c-1.6,6.3-4.7,9.8-7.6,8.9s-10,7.3-10,9.6c0,0.7-.3,1-0.6.7s2.6-6.7,6.5-9.8,6.2-7.3,8.1-14.6a15.9,15.9,0,0,1,3.6-6.5c3.2-2.9,6.4-9.4,6.3-12.9,0-1.9-.4-1.4-1.8,2.2a30.8,30.8,0,0,1-4.7,7.6c-3.5,3.4-6,8.2-7.4,14-0.8,3-2.8,6.2-6.5,10.2-5.6,6.1-6,6.9-7,16-0.6,5.6-2.7,10-4.6,10s-0.1-1.2,1-2.6,2.1-4.1,2.1-8.6c0-6.1,2.3-12.1,5.6-14.9s7.4-9,7.4-10.8-1.3.4-2.9,2.9a29.2,29.2,0,0,1-4.6,6,41.8,41.8,0,0,0-4.7,5.4c-2.4,3.4-2.8,4.8-2.8,10.6,0,4.3-.5,7.3-1.5,8.6s-1.3,1.6-.8-0.1Z"/><path d="M167.2,167.8a52.2,52.2,0,0,0,1-7.4c0.3-4.2,1.1-6.5,2.8-8.4l1.6-1.7c4.5-4.7,6.1-4.5,5.5.4a21.5,21.5,0,0,0,1.2,9c1.2,3.8,1.6,6.5,1,8.3a3.9,3.9,0,0,1-1.7,2.2c-2.3,1.4-3.1.3-3-4.1,0.1-2.8-.1-3.4-0.8-2.3a8.4,8.4,0,0,0-1,3.7c0,1.3-.4,2.3-0.9,2.3-2.2,0-2.9-7.7-1-11.2,0.9-1.6.8-1.9-.3-1.6s-1.5,2.5-1.8,5.1-1.2,5.3-1.9,5.9S166.8,169,167.2,167.8Z"/><path d="M349.4,108.3a8.9,8.9,0,0,0-.5-1.3h0a10.9,10.9,0,0,0-.7-1.5,16.9,16.9,0,0,0-2.7-3.7,8.2,8.2,0,0,1-1.6-1.9,6.2,6.2,0,0,1,1.1-1.4c-0.4.4-.1,0.7,1,1.3,2.8,1.7,6.8,11,4.8,11C350.4,110.8,349.7,109.7,349.4,108.3Z"/><path class="cls-1" d="M195.9,59.7a5.6,5.6,0,0,1,1.7,2.8c0.2,1.5-.2,1.4-2-0.8a15.3,15.3,0,0,0-5.6-3.9c-3.2-1.1-3.5-1-6.2,2.3a18.4,18.4,0,0,1-6,4.8c-1.6.7-3,1.6-3,2.1s1.4,1.1,4.2-.7l2.6,1.5c-1.3.8-2.7,3.1-2.6,4.3l-2.6.2a1.5,1.5,0,0,0-1.2-1c-0.3,0-.5.7-0.4,1.3l-2.8.2c-0.2-.8-0.6-2.3-1.1-3.9-1.3-4.1-1.5-5-1.4-9.6a14,14,0,0,0-.2-2.1,1.6,1.6,0,0,1,.4-1.8c1.1-.9,8.5-2.5,14.5-3h1.3l0.2,1.4c-2.9.3-4.1,1.2-6.2,4.4s-3.1,3.9-3.6,3.9a0.9,0.9,0,0,0-1,1c0,2.1,2.3.9,6.7-3.4s4.7-4.3,7.6-3.5A16.4,16.4,0,0,1,195.9,59.7Z"/><path class="cls-2" d="M194.1,51.1c1.1-.4,6.1,2.6,5.4,3.3h-0.3l-2.8.2a7.9,7.9,0,0,1-3.2-.2h-0.1C192.7,53.8,193.4,51.4,194.1,51.1Z"/><path class="cls-1" d="M100.4,29.8c0.3,0,1.7-1.5,3.9-4.2s-0.2-4-2.1-4a1.5,1.5,0,0,1-1.1-.4c-0.4-.6.4-1.2,2.7-1.9l2.2-.6,1.3,0.9a3.9,3.9,0,0,1,1.8,2.3c0.5,1.8.9,2.4,2.2,2.7v0.4a7.6,7.6,0,0,0-3.1,1.5L105.9,28l3.4,3.5c1.9,2,3.5,4.5,3.5,5.5s0.5,1.6,1,1.3,0.9,0.7.9,2.7-0.3,2.6-.6,1-1.1-2.2-1.9-2.2a2.4,2.4,0,0,1-2-1.5,2.8,2.8,0,0,0-2.3-1.5c-1.4,0-1.4-.2-0.1-1s1.1-1-.6-1a3.3,3.3,0,0,1-2.8-1.5,2.3,2.3,0,0,0-3.2-1.3Z"/><path class="cls-1" d="M132.9,169.2a5,5,0,0,1,1.3-3.3c1.3-1.1,1.6-1.1,1.6-.1s0.5,0.9,1.8-.2a5.4,5.4,0,0,1,2.8-1.5V165h-0.4c-0.7.5-.5,1.8,0.6,4s1.9,3,2.4,2.3,0.7-.6.4,0.4a1.6,1.6,0,0,1-1.5,1.3,3.3,3.3,0,0,0-2.3,1.4c-1.2,1.4-1.1,1.5.9,0.9s2.8-.3.6,1.8-1.2,1.6-.2,1.6a3.8,3.8,0,0,0,2.1-.6l-0.6.9a6.4,6.4,0,0,1-4,1.7,7.3,7.3,0,0,1-4.4-1.5c-0.3-.4-0.5-0.6-0.1-1l1.3-1.3c2.2-2,2.7-3.6,1.7-5.7a3.4,3.4,0,0,0-3.5-2.1h-0.6Z"/><path class="cls-1" d="M236.3,47.3c0.7,0.9.8,1.4,0.8,3.7,0,0.3,0,.5,0,0.8L234.9,53c-4.1,2.3-5.4,2.3-4.3-.4a9.9,9.9,0,0,0,2.8-1.9,4.5,4.5,0,0,0,1.1-2.5C234.8,46.3,235.3,46.1,236.3,47.3Z"/><path d="M287.6,209.6c0.7-.7,3-1.2,5.2-1.2,4.1,0.1,5.4-1.1,2.3-1.9-1-.3-0.1-0.5,2.1-0.6a12.5,12.5,0,0,1,4.1.6c3.3,1.8,4.9,2.8,5.9,3.9h0a10.6,10.6,0,0,1,1.6,3.7c1.6,5.9.7,14.1-1.9,17.7s-2.4,3.7-2,3.7v2.3c-2.3-.1-3.2,1-3.7,3.5s-1.1,3.8-1.7,4.2-0.6.2-.6,0a2.8,2.8,0,0,1,.3-1.3,35.2,35.2,0,0,0,1.2-4.9c0.4-2.9.4-2.9-1,.5s-1.5,3.1-1.5,1.2a8.8,8.8,0,0,0-2.7-4.7c-3.3-3.1-6.4-3.5-3.4-.5,1.1,1.1,2,2.6,1.9,3.2s-0.5.3-1.1-.8a7.8,7.8,0,0,0-3.6-3.3c-1.7-.8-2.2-1.5-1.5-2.2a2.2,2.2,0,0,1,1.7-.4,13.6,13.6,0,0,1,7.5,3.9c1.4,1.6,1.6,1.4,3.2-2.6,2.4-5.8,2.3-9.4-.2-13.5s-6.5-6.3-12.1-6.4h-4.3l4-1.3a16,16,0,0,1,6.5-.8c2.2,0.4,2.3.3,0.7-.7a8,8,0,0,0-5-.6C287,210.7,286.6,210.6,287.6,209.6Z"/><path class="cls-2" d="M133.5,169.1a3.4,3.4,0,0,1,3.5,2.1c1,2.1.5,3.7-1.7,5.7l-1.3,1.3h-1.2c0.1-.3-0.2-0.8-1-1.7l-0.3-.4c1.6,0.3,1.7-1.5,1.5-5.6a8.6,8.6,0,0,1,0-1.5h0.6Z"/><path d="M122.6,62.8a5.3,5.3,0,0,0,.5-1.7c0.2-1.6.5,0.2,0.6,3.9,0,0.6,0,1.2.1,1.7h-0.1c-0.5.2-.6-0.1-0.8-1.4s-0.2-1.6-.2-2.6h0Z"/><path class="cls-1" d="M230.6,47.4a28.3,28.3,0,0,1-5.3,3.4l-3.7,1.8h-0.2a0.6,0.6,0,0,1-.5-0.7,1.4,1.4,0,0,1,1.5-1.1,2.4,2.4,0,0,0,1.8-1.5l1-.5c2.8-1.8,3.5-4.1,2.2-6.6s-0.6-2.5.3-2.3a6.5,6.5,0,0,1,1.9,2.2,8.7,8.7,0,0,1,1.5,4.9v0.3Z"/><path d="M230.6,52.6c-1.1,2.7.2,2.7,4.3,0.4l2.2-1.2a5.1,5.1,0,0,1-.5,2.6l-0.3.4h-0.1a2.7,2.7,0,0,0-2.1,1.4c-0.7,1.3-1.6,1.2-6.3-.4a31.8,31.8,0,0,0-6.6-1.8l0.2-1.4h0.3l3.7-1.8a28.3,28.3,0,0,0,5.3-3.4l0.3-.3c0.2,2.2.1,2.8-.5,4a3,3,0,0,0-.5,1.6A0.9,0.9,0,0,0,230.6,52.6Z"/><path d="M263,134.2l-0.9-1c-2-2.6-3.2-6.3-3.8-11.9-0.4-3.4,2.4-20.8,4-24.7,5.5-14,21.2-24.6,34.5-23.2a36.1,36.1,0,0,1,8.3,2.1l1.3,0.6,1.6,1,0.8,0.6a1.9,1.9,0,0,1-1.3.9,19.5,19.5,0,0,1-6.7,1.3c-9.2-1.1-11.7-1-16.2,1a24.6,24.6,0,0,0-7.5,5.1l-2.6,2.1c-5.2,4.5-8.6,12.2-10,22.7a47.3,47.3,0,0,0-.5,10.1,105,105,0,0,0,1.9,16.2h-0.4C265.4,136.8,264.6,135.8,263,134.2Z"/><path d="M351.8,91.7c0,1-3.5,4.7-5.7,6l-1.1.8,1.4-1.5a18.3,18.3,0,0,0,3.7-5.1C351.1,91.6,351.8,91.4,351.8,91.7Z"/><path class="cls-1" d="M158.9,78.6c-4.5.2-5.2,0.1-7.3-.6a11.4,11.4,0,0,1-6.3-5c-1-2.1-1-5.4.2-6.9,3.1-4.1,9.1-5.4,13.2-3.1-3.4-.3-8.3,2.1-9.3,5.1s-0.6,3.1,1.7,5.5,3.4,2.7,10.7,2.7c4.8-.1,8.5-0.6,9.2-1.3s0.6-1.2-1.5-1.2a12,12,0,0,1-2.8-.4c2.7,0.4,5.1.5,5.4,0a1.9,1.9,0,0,0-.1-0.7l2.8-.2a1.1,1.1,0,0,0,.2.6,1,1,0,0,0,.7.3V76h-1.5l-2.8.4-3.1.6a14.3,14.3,0,0,0-3,.8C164.3,78.3,162.3,78.5,158.9,78.6Z"/><path class="cls-1" d="M111.3,24.5h1.3l2.6,0.2a1,1,0,0,0,.8-0.5c0.4-.6.2-0.8-1.1-2a4.6,4.6,0,0,1-1.5-1.9c0-1.4,4.3-.2,6,1.7s0.9,1.2.8,3.8,0.1,3,.7,4.1a25.1,25.1,0,0,1,1.5,4.1h0a1.7,1.7,0,0,0-.7-0.8c-0.8-.5-1,0.6-0.6,3.7,0.6,5.8-1.2,26.1-2.4,27.4s-0.7-.6-0.3-3.5a105.7,105.7,0,0,0,.8-14.7c0.1-9.1-.1-10.4-1.9-11.7s-1.6-1.6-1.1-1.6,0.1-.7-1-1.5-1.4-1.4-.5-1.5-0.6-3-2.6-3-1.1-.5-0.8-1,0.3-.9-0.1-0.9V24.5Z"/><path class="cls-1" d="M335.3,107.5h4l0.5,0.3a7.6,7.6,0,0,1-4.1,2,2.5,2.5,0,0,0-1.6.4,6,6,0,0,0,.8,2.6,15,15,0,0,1,.6,10.3c-1,2.7-2.2,4.5-3.9,5.5l-0.7.5-1.4-1.8,0.2-3.6c0.1-3.2-3.2-10-5.8-11.9s-6.2-8.1-5.9-9.2,1.1,0,2.1,1.8a16.9,16.9,0,0,0,3.3,4.5c1.6,1.3,1.6,1.2.6-.8s-1.5-5.5.4-5.1,1.5,0.7,1.4,1.2S330.9,107.5,335.3,107.5Z"/><path class="cls-1" d="M341.5,79.4c0.3,1.3-1,5.4-1.9,6.3s-6.1,1.9-7.6,1.3-0.6-.2-0.1.8,5.5,5.4,7.2,5.4a1.6,1.6,0,0,0,1.1-.6c0.4-.5.6-0.5,1.1-0.2s2.7,1,4.8-.9,2.8-3.6,2.8-7.1,0.1-2.9.6-2.8a1.4,1.4,0,0,1,.9,1L351,85a9.8,9.8,0,0,1-.9,7c-1.9.7-4.8,2.4-5.1,3.2-1.2,2.6-3.2,3.3-8.4,2.7s-10.3-2.9-12.6-7.2-6.2-8.8-7.8-8.8-1.3-.4-1-0.9-0.1-1.2-1-1.5-2.1-.7-5.9.6h-0.2l-0.5-1.4a1.9,1.9,0,0,0,1.3-.9l0.4,0.3,1.3-.8a22.6,22.6,0,0,1,7.9-2.9c3.8-.8,5.8-1.8,7.7-3.9s1.9-2.2,1.6-3.8,0-2.5.9-2,2.6,3.9,2.8,5.9a5.4,5.4,0,0,1-.8,3.8c-1.7,3.4-3,4.5-6.2,5.6a3,3,0,0,0-1.6.9,12.3,12.3,0,0,0,3.2,1.9c2.9,1.4,3.5,1.6,6.2,1.7s3.1,0.1,4.2-.7,3.2-3.3,3.2-4.2-1.3-1.9-2.3-2.2a1.1,1.1,0,0,0-1.2.3c-0.4.5-1.8,0.8-1.8,0.3a6.2,6.2,0,0,1,.5-1.2c0.6-1.1,1.2-1.4,2.7-1.4S341.2,77.9,341.5,79.4Z"/><path class="cls-1" d="M316.5,223.8c-0.4,1-.6.7-0.7-1.2Z"/><path d="M311.1,132.8a8.6,8.6,0,0,0-1.6,3.9l-0.6-1.2c-0.8-1.4-1.8-2.6-2.3-2.6s-0.8-3.3,2.8-11.3c2-4.4,3.7-9.6,3.8-11.4,0.1-3.5,1.6-4.7,1.6-1.4a3.5,3.5,0,0,0,1,2.6c2.6,1.6.3,11.3-3.4,14.4s-2,.7.9-3.5c1.4-2,2.5-4.4,2.5-5.2s0.1-2-3.9,5.1c-1.8,3.3-2.7,5.6-2.1,5.2s1-.1.6,1.6-0.7,2.3.8,0.4a36,36,0,0,1,2.9-3.5,14.5,14.5,0,0,0,3.9-9c0.2-2.4.7-3.6,1.1-3.6s0.7,1.2.7,3.5c0,0.2,0,.4,0,0.6a4.5,4.5,0,0,0-1.1-1,2,2,0,0,0-.3,1.5c0.1,4-1.2,8.3-3.2,10.6l-1.2,1.4h0.1l-0.9,1.2C312.6,131.1,312,131.7,311.1,132.8Z"/><path d="M194.4,56.4a23.2,23.2,0,0,0,2.8,2.9l-1.3.3a16.4,16.4,0,0,0-6.8-3.7c-2.9-.8-3.5-0.6-7.6,3.5s-6.7,5.5-6.7,3.4a0.9,0.9,0,0,1,1-1c0.5,0,2.1-1.8,3.6-3.9s3.3-4.1,6.2-4.4l4.9-.5c0.5-.1,1.4.6,2.5,1.7Z"/><path d="M202.4,54.9c3.1,0.2,4.5.8,4.9,2s3.4,3.2,5,1.9,1.2-.6.8,1.2a17.9,17.9,0,0,1-1.5,3.4l-0.6.9c-1.1,1.5-1.3,1.6-.9.3a2,2,0,0,0-.3-2.3c-0.6-.4-1,0.6-1.1,2.2v2.8l-0.8-2.5c-0.8-2.5-.8-2.5-1,0.5v3l-1.1-2.5-1.1-2.5-1.2-.4-2.5-2L198.3,59l2.9-.8c2.2-.5,2.5-0.9,1.4-1.5a5.6,5.6,0,0,0-3.7-.4c-1.2.2-1.9,0-1.5-.6a3.3,3.3,0,0,1,1.9-.7A16.6,16.6,0,0,1,202.4,54.9Z"/><path class="cls-1" d="M340.3,120.5a3.1,3.1,0,0,1,1.3-1,7.9,7.9,0,0,0,4.3-6.7c0-1.1-.3-1.6-2.3-3.5s-3.1-2.6-3.5-1.8l-0.3.4-0.5-.3-4.5-.9c-7.1-1.6-7.8-2-4-2.8a23.9,23.9,0,0,0,5.7-1.8c2.8-1.6,3.4-1.5,2.7.3a0.9,0.9,0,0,0,.9,1.5,13.9,13.9,0,0,1,4.4,1.2,11.2,11.2,0,0,0,3.5,1,1.3,1.3,0,0,1,.9,1h0a9.6,9.6,0,0,1,.2,3.8c-0.1,2.8-.3,3.5-1.3,5.4s-3,4-3.8,4l-1.2.5C341.8,121.2,340.3,121.1,340.3,120.5Z"/><path d="M272.2,223.5l4.5-.3c5.4-.5,7.6-0.3,10.5,1.1s3.8,2,4,2.4-16.5.1-19.9-1l-1.9-.4v-1.5Z"/><path d="M204.6,52.4c-0.3-.5-1.8-1-3.3-1.2-3.1-.3-4.2-1.1-3.1-2.1s2.8-.2,5.4.5c4.1,1,5.5.9,11.7-1.2,3.8-1.3,7.4-3.1,8-4l0.3-.5a9.4,9.4,0,0,1-.3,3.9c-0.5,1.4-.2,1.9.8,1.5a2.4,2.4,0,0,1-1.7,1.5,1.4,1.4,0,0,0-1.5,1.1,0.6,0.6,0,0,0,.5.8L221.2,54a10.3,10.3,0,0,0-7.2,1.8c-3.5,2.2-4.6,2.5-3.8,1.1s-1.2-2.8-3.4-3.3A4.7,4.7,0,0,1,204.6,52.4Z"/><path d="M336.6,97.8c5.2,0.6,7.2-.1,8.4-2.7,0.3-.8,3.2-2.4,5.1-3.2a18.3,18.3,0,0,1-3.7,5.1L345,98.5h0a6.2,6.2,0,0,0-1.1,1.4,8.2,8.2,0,0,0,1.6,1.9,16.9,16.9,0,0,1,2.7,3.7,10.9,10.9,0,0,1,.7,1.5,1.3,1.3,0,0,0-.9-1,11.2,11.2,0,0,1-3.5-1,13.9,13.9,0,0,0-4.4-1.2,0.9,0.9,0,0,1-.9-1.5c0.7-1.8.1-1.9-2.7-.3a23.9,23.9,0,0,1-5.7,1.8c-3.8.8-3.1,1.2,4,2.8l4.5,0.9h-4c-4.4,0-9.7-1.9-9.5-3.3s-0.6-1-1.4-1.2-2.1,2-.4,5.1,1,2.1-.6.8a16.9,16.9,0,0,1-3.3-4.5c-1-1.8-1.8-2.6-2.1-1.8s3.9,7.7,5.9,9.2,5.9,8.7,5.8,11.9l-0.2,3.6-0.6-3.7c-0.4-2.5-2.4-5.5-7.8-11.7l-1.8-2c-8.5-9.5-9.1-10.5-10.1-16.3s-1.2-5.7-1.4-2.8a21.5,21.5,0,0,0,0,4.5c0.1,0.5-.4.5-1.1-0.2s-1.8-.5-4.1,1.6l-0.2-.2c-0.3-.1-1,0.5-1.9,1.4a20.8,20.8,0,0,1-3.6,3.2,7.2,7.2,0,0,1-7.8-.8c-0.8-.6-1.3-1-1.2-1.1s0.9,0,2.4.5c5.4,1.5,8.9-.8,12.7-8.6,2.4-4.8,3.9-6.7,5-6.5a1.3,1.3,0,0,0,1.7-1.3,1.4,1.4,0,0,0-1.3-1.5c-2,0-4.1,2.8-6.1,8s-3.1,6.7-6,8.2-2,1-.4-0.8a30.3,30.3,0,0,0,3.7-7.5c2.3-6.1,4-8,8.4-9.6h0.2c3.8-1.3,4-1.3,5.9-.6s1.3,1,1,1.5,0.1,0.9,1,.9,5.2,4.1,7.8,8.8S330.2,97.1,336.6,97.8Z"/><path d="M262.6,221.2l-0.7-.7c0-3.1.3-2.9,1.8-1.1a12.6,12.6,0,0,0,4,3.3,10.5,10.5,0,0,0,4.6.8l-2.9.3h-0.2C265.5,223.7,264.8,223.4,262.6,221.2Z"/><path class="cls-2" d="M175.7,76l4.2-.2h0.6v1.8a3.8,3.8,0,0,0-1.6.9c-1.7,1.4-2.9,1.2-3.6-.6a2,2,0,0,0-1-1.2V76h1.5Z"/><path class="cls-1" d="M91.9,59.9c-1.8-3.5-.9-5.6,3.4-8.5L97.6,50a1.5,1.5,0,0,1,.6.7,0.9,0.9,0,0,1,.1.8,3,3,0,0,1-.6,1,8.2,8.2,0,0,0-1.3,2.2c-0.5,1.4-.1,1.9,1.7,2l1.9,0.2L99.5,59c-1.6,0-2.7,1.8-2.7,4.7s9.4,12.6,11,11.6,1-.1,1,0.4a1.1,1.1,0,0,1-1,1.2l-1.9.3c-1.6.2-2.5,1.6-1,1.6s1.1,0.2-.1,1-0.3,1,3,1,4.6,1.2.5,2.4c-1.1.3-.3,0.4,1.8,0.3,4.7-.4,4.8.8,0.2,2.3-1.9.6-4,2-4.5,3.1s-0.5,2.4,2-.1,5.6-2.8,4.5-1a2.3,2.3,0,0,1-1.7,1c-1.4,0-3.7,3.1-3.8,4.9s0.4,0.9,1.5-.5,2-1.2.5,1.6a2.7,2.7,0,0,0-.5,1.9,3.1,3.1,0,0,0-.2,1.4c0,1.2-.1,1.5-0.6,1.5s-5-3.6-5.8-5.1-0.5-4.9,1.6-7.2,1.1-2.2-.1-2.2a11.3,11.3,0,0,1-3.3-2c-4.1-3.2-5.8-3.6-8.1-2s-2.2.9-1.9-.6a6.6,6.6,0,0,1,3.3-4.3c1.4-.7,1.8-0.7,4.1-0.4l3.4,0.6c1.5,0.4.8-.5-2.8-3.8s-4.9-5-4.9-8.4A7.9,7.9,0,0,0,91.9,59.9Z"/><path d="M319.5,231.3a17.6,17.6,0,0,1-1.2,3.7c-0.1-.6-0.1-1.5-0.1-2.6v-0.7l0.4-.5,1.5-2Z"/><path class="cls-1" d="M285.5,228.6c-5.3.2-14.7-1.4-16.1-2.8s-0.4-.5,0-0.5l1.9,0.4c3.4,1.1,20.5,1.9,19.9,1s-2-1.4-4-2.4-5.1-1.6-10.5-1.1l-4.5.3a19.1,19.1,0,0,0,4.8-1.3l2.2-1.1c1.4-.7,4-3.3,4-4s-0.3-.3-0.6-0.2l-1.6.3a8.4,8.4,0,0,0-2.7,1.8c-2.4,2.2-3.2,1.6-1.8-1.3a6.6,6.6,0,0,0,.7-2.4c0-1.5,2.9-5.6,4.7-6.8l3.7-2c1.6-.7,2.2-1.2,2.2-1.7s-2.2-6-4.3-10.2l-1.5-3,0.7-2.8H283a4.2,4.2,0,0,1,3.9,2.2c1,1.9,1.2,1.9,2.1.5a2.9,2.9,0,0,1,1.9-1.7c0.6,0,.7.4,0.4,1s-0.2,1,.4,1,0.8,0.7.5,1.5-0.2,1.4,1.2.8l0.7-.2V194l0.2,0.5-0.6.9a19.2,19.2,0,0,1-2.2,2.4c-0.3.3,0,1.3,0.7,2.3s1.5,1.4,2,.8a2.8,2.8,0,0,1,2.3-1.1h0.2l0.3,0.6-1.7,1.4c-1.6,1.1-2.3,2-1.5,2a5.2,5.2,0,0,0,3.8-2l1.3,2.8a7.3,7.3,0,0,0,2.4,1.9,12.5,12.5,0,0,0-4.1-.6c-2.2.1-3.1,0.3-2.1,0.6,3.1,0.8,1.8,2-2.3,1.9-2.2,0-4.5.5-5.2,1.2s-0.6,1.1,1.9.6a8,8,0,0,1,5,.6c1.6,1,1.5,1.1-.7.7a16,16,0,0,0-6.5.8l-4,1.3h4.3c5.6,0.1,9.5,2.2,12.1,6.4s2.6,7.7.2,13.5c-1.6,4-1.8,4.2-3.2,2.6a13.6,13.6,0,0,0-7.5-3.9l0.2-1.8c2.2,0.3,2.6.1,1.7-.8S288,228.5,285.5,228.6Z"/><path class="cls-1" d="M263.7,164.1a16.7,16.7,0,0,0-6.4,1c-3.4,1.6-5.6,4-7.3,7.9s-0.2,3.7,1.8,1.3,3.4-2,2.4-.3-0.4,1,.7,0a5.3,5.3,0,0,1,2.9-1.2H258c1,0.1.9,0.3-.5,1.4s-1.3,1.1-.7,1.4l-1.2,2.3c-3.6,0-5.6,1.1-6.8,3.7s-0.9,5-.3,5.3a1.5,1.5,0,0,1-.2,2.1c-1.4.5-3.8-5.6-3.7-9.8a16.7,16.7,0,0,1,1.9-8c1.5-3.1,2.5-4.5,4.8-6.1s8.9-2.8,11.5-1.8l0.8,0.2v0.5Z"/><path class="cls-1" d="M147.3,97.5a34.2,34.2,0,0,1-2.9-3.7l0.5-.2c0.9-.5,1.6.4,2.3,2.7a5.9,5.9,0,0,0,.6,1.6l-0.2.2Z"/><path class="cls-2" d="M100.8,51.5a9,9,0,0,0-.4,2.8c0,2-.1,2.5-0.5,2.4l-1.9-.2c-1.8-.1-2.2-0.6-1.7-2a8.2,8.2,0,0,1,1.3-2.2,3,3,0,0,0,.6-1h2.6Z"/><path class="cls-1" d="M288.2,259.9a1.1,1.1,0,0,0-.1-1.4c-0.5-.2-0.2-0.2.5,0s6.7-4.6,9.4-8.9c1.5-2.3,1.6-2.7.2-3.2a6,6,0,0,0-1.7-.5l2.4-.4c0.1,0.2.3,0.2,0.6,0s1.4-2.3,1.7-4.2,1.4-3.6,3.7-3.5a21.1,21.1,0,0,1,4.6.9c2.3,0.7,3.7.5,5.2-.6s2.5-1.2,3-.8a1.4,1.4,0,0,0,1.7-.6l0.2-.5a19.5,19.5,0,0,0,2-1.9c1.5-1.5,2.2-2,2.5-1.7a0.7,0.7,0,0,1-.1,1,8.4,8.4,0,0,0-.8,1.3c-0.4.8-4.3,4.3-5.5,4.8s-3.7,4.5-3.7,5.2,0.6,0.8,2.4.4a13.6,13.6,0,0,0,6.6-3.9c2.9-3.4,3.4-3.8,3.4-2.4s-5.2,6.9-8.2,7.3a95.7,95.7,0,0,0-11.8,2.2,9.2,9.2,0,0,1-4.3.4l-2.5-.2-1.9,2.9a42.4,42.4,0,0,1-11.9,11.7l-0.3-.5c0.2-.1.1-0.7-0.3-1.8s-0.6-2.3.8-1.2S287.9,260.5,288.2,259.9Z"/><path d="M269.4,225.3c-0.4,0-.3.2,0,0.5s10.8,3,16.1,2.8c2.5-.1,4.9.4,5.6,1.2s0.5,1.1-1.7.8l-1.1-.2c-3-.5-3.6-0.4-2.5.4s-1,1-8,.8-10-.7-12.7-2.6-3.3-2.9-3.3-7c0-.6,0-1.1,0-1.5l0.8,0.7c2.3,2.2,2.9,2.4,6.6,2.6h0.2v1.5Z"/><path class="cls-1" d="M197.4,55.7c-0.4.6,0.3,0.8,1.5,0.6a5.6,5.6,0,0,1,3.7.4c1.1,0.6.8,1-1.4,1.5l-2.9.8,2.5,1.9,2.5,2-3.1-1.5a14.8,14.8,0,0,1-3-2.1,23.2,23.2,0,0,1-2.8-2.9L193,54.7l0.3-.2a7.9,7.9,0,0,0,3.2.2l2.8-.2V55A3.3,3.3,0,0,0,197.4,55.7Z"/><path class="cls-1" d="M66.8,161.3c0.1,1.7.3,1.5,1.6-.9s2-2.7,4.5-2.2,2.9,0.1,2.9-.4a1,1,0,0,0-1.1-1c-0.8,0-.8-0.5.1-1.5s5.6-2,6.5-.4a10.4,10.4,0,0,0,3.2,2c2.8,1.1,5.3.1,3.2-1.2s0.3-1.1,8.1.6,12.2,1.9,10.1.6,0.2-.9,2.8-1.3l1.5-.2c3.1-.4,5.8-1.2,6.1-1.7s1.9-.9,3.5-0.9,3-.6,3.3-1.3,3.1-2,6.3-2.7a23.2,23.2,0,0,0,10.2-5.3c6.3-5.4,8-5.9,15.1-4.1,5.5,1.4,6.2,1.4,7.7,0s2.8-2.1,1.9-.7,1.6,2.2,4.3.4l2.3,0.3a25.9,25.9,0,0,0-7.1,10.7c-3.1,8.4-6.6,11.7-12.2,11.6l-4.3-.2,4.9-.6c3.3-.5,5.5-1.5,6.7-3s4.2-9.1,3.4-10-0.7-.4-3.1,5.4c-1.7,4.3-2.4,5-5.7,5.8-5,1.2-8.4-.9-9.3-6l-0.7-3.8-0.9,3c-1.2,4.3-.1,8.1,3,10.6s3.7,2,8.5,1.7c3.1-.2,5.7-0.1,5.7.4a1.3,1.3,0,0,1-1.4.8,4.1,4.1,0,0,0-2.7,1.6,3,3,0,0,0-2,1.5,7,7,0,0,1-2.7.4c-1.9,0-2.8.2-3.5,1.2l-1.3.2c-0.7.3-2,2.7-2,3.8a10.5,10.5,0,0,1-1.2,3.6h0a3.8,3.8,0,0,1-2.1.6c-1,0-.9-0.4.2-1.6s2-2.7-.6-1.8-2.1.5-.9-0.9a3.3,3.3,0,0,1,2.3-1.4,1.6,1.6,0,0,0,1.5-1.3c0.3-1,.2-1.1-0.4-0.4s-1.4-.1-2.4-2.3-1.3-3.5-.6-4h0.4c0.2,0,.2.2,0,0.5a1.8,1.8,0,0,0,.7,2.2c1.1,0.9,1.4.7,1.4-1.2s-0.9-2.5-2.2-2.4a5.4,5.4,0,0,0-2.8,1.5c-1.3,1.1-1.8,1.2-1.8.2s-0.3-1-1.6.1a5,5,0,0,0-1.3,3.3c-2.8.5-3.6,4.3-1.4,7.1-1.2-.2-3.1-1.5-6.3-3.7s-4-3.5-3.8-4.9,0.3-1.9-1.4-.4-3.2,2.1-2.5.3-0.2-1.3-1.8-1.1l-3.1.3c-0.4.1-2.3,2.3-4.3,5.1a28,28,0,0,1-2.7,3.4c-1,1-1.5.9-2.3,0.2a7.2,7.2,0,0,1-1.4-4.4c0-4-.9-4.5-3.2-1.6l-0.9,1c-0.2-.2-0.5,0-0.9.5l-0.7.9h0c-5.2,4-13.3,5.8-13.3,2.1s1.7-3.6,2.3-1.4,0.8,0.9,2-1.7c2.3-5.3.4-6-9.7-3.4-2.2.5-2.5,0.3-2-1s-0.2-1.1-3,.8a10.1,10.1,0,0,1-3.8,1.6c-3.3.6-5.8-1.1-5.7-4.4s0-2.1.9,0.1,2,3,1.3.4a5.6,5.6,0,0,1,.6-3.8C66.7,159.4,66.7,159.4,66.8,161.3Z"/><path class="cls-1" d="M318.3,235a2.7,2.7,0,0,0,.4,1.4c-0.8.5-.9,0.2-0.4-1.2V235Z"/><path class="cls-1" d="M262,212.4a10.7,10.7,0,0,0-1.4,4.5l-0.2,2.3,1.4,1.3c0,0.4,0,.9,0,1.5,0,4.1.4,4.9,3.3,7s4.7,2.3,12.7,2.6,9.1,0,8-.8-0.5-.9,2.5-0.4l1.1,0.2-0.2,1.8a2.2,2.2,0,0,0-1.7.4c-0.7.7-.2,1.4,1.5,2.2a7.8,7.8,0,0,1,3.6,3.3c0.6,1.1,1.1,1.5,1.1.8s-0.8-2.1-1.9-3.2c-3-3,.1-2.6,3.4.5a8.8,8.8,0,0,1,2.7,4.7c0,1.9.3,1.7,1.5-1.2s1.4-3.4,1-.5a35.2,35.2,0,0,1-1.2,4.9,2.8,2.8,0,0,0-.3,1.3l-2.4.4c-0.5,0-.7.4-1.1,1.5s-0.4,1.5.9,0.4,1.5-.8,1.5-0.2a2,2,0,0,1-3.4,1.3c-0.9-.8-1.9-0.4-3.7,1.5-4.7,5.1-8.8,6.7-18.5,6.9a33.5,33.5,0,0,0,8.6-2.8A14.2,14.2,0,0,0,286,251c1.9-2.1,2.1-2.4,2.4-6.6a7.4,7.4,0,0,0-3.6-7.2c-3.1-2.1-4.9-2.5-9.1-2.1-10.9,1.1-11.2,1.1-13.4.3s-3.9-2.5-4.9-5.5-0.9-5.3,0-10.5,2.4-8.5,4.3-9.5S263.2,210.1,262,212.4Z"/><path d="M183.9,236.6c7.1,1.1,24.9,8.5,23.6,9.9s-1.8-.2-3.1-1.1c-6.2-4-23.8-8.6-32.6-8.6a36,36,0,0,0-8.3,1.4c-2.7,1-3.7,1.1-3.4.2s6.3-3.5,10.5-3.5c1.7-.1,3.2-0.6,3.2-1.1s-5.1-1.2-10.9.6-5,2-4.7,4a3.8,3.8,0,0,1-1,3.5c-1.1.9-1.4,0.9-1.4,0s-0.4-1-.9-0.7a1,1,0,0,1-1.4-.6c-0.3-.9-1.2-0.6-2.9,1s-9.8,3.7-9.8,2.1,2.3-2.4,5-4.5,5-4.3,5-4.8-1.3.2-2.8,1.7-3.3,2.7-3.8,2.7-2.1,1.1-3.4,2.5-3.1,2.5-3.9,2.4-0.9-.5.9-1.7,4.3-3.3,6.6-5.2a79.4,79.4,0,0,1,7.5-5.4c1.9-1,2.9-2.1,2.2-2.3s-4.8,1.6-13.5,8.4c-3.9,3.1-8.1,5.6-10,5.9s-3.1.5-1.7-.1l2.2-.8c2.1-.8,5.9-3.5,8.6-6a78.8,78.8,0,0,1,8.8-7,25.6,25.6,0,0,0,4.7-3.6,1.5,1.5,0,0,1,.9-0.6,1.8,1.8,0,0,1,1,.1c0.7,0.2,3.2-.2,5.6-1.1,5.1-1.8,5.1-1.8,5.1-.6s-1.9,1.2-4.2,1.7-4.3,1.4-4.5,2.1,0.9,0.8,4.2-.3,4.9-1.4,5.2-1.1-1.5,1.1-3.8,1.7c-4.7,1.3-11.3,4.9-10.5,5.8a1.9,1.9,0,0,0,1.8-.6,56,56,0,0,1,9.8-3.5c4.7-1.4,8.1-2.6,7.5-2.6-2.1-.2-3.5-1.8-3-3.3s9.8-2.2,16.8-1.1h0.3l3,0.6,3.4,1.2,2.8,1.8,7.4,5.1,0.9,0.7,0.4,0.5a7.6,7.6,0,0,0,3,1.4c1.5,0.2,2,1.1,2,3.5s-0.3,2.9-1,2.5l-4.5-2.7c-4.4-2.7-14.3-5.8-16.7-5.3s-0.1.9,2.7,1.7a48,48,0,0,1,16.8,7.8c5.5,3.8,4.9,4.4-.7.9a45.4,45.4,0,0,0-16.5-6.6c-8.3-1.7-11.6-2-11.6-1.1S180,236,183.9,236.6Z"/><path class="cls-1" d="M139.7,236.5c-2.7,2.5-6.5,5.2-8.6,6l-2.2.8-0.3-1.6a6.5,6.5,0,0,0,2-.7,17.2,17.2,0,0,0,3.8-3.2l3.5-3.8a52.5,52.5,0,0,1,8.9-6.3l1.2-.7-1.6-.2-3.7-.8-2.6-.6c-0.7,0-2.9-1.6-2.9-2.1s1.4-.4,5.8.5,7.5,1.3,10.9.7v0.7a1.5,1.5,0,0,0-.9.6,25.6,25.6,0,0,1-4.7,3.6A78.8,78.8,0,0,0,139.7,236.5Z"/><path class="cls-1" d="M314.7,131.9a1.9,1.9,0,0,0-1.5-.8l0.9-1.2,0.8,0.6c0.8,0.6,1.8.8,4.3,1a6.1,6.1,0,0,0,2.2-.5,5.7,5.7,0,0,0,2.2-1.9c0.9-1.3.9-1.6,0.7-4a11.3,11.3,0,0,0-.8-3.5,36.7,36.7,0,0,0-3.6-4.3c0-.2,0-0.4,0-0.6,0-2.3-.3-3.5-0.7-3.5l2-1.3c5.4,6.2,7.3,9.1,7.8,11.7l0.6,3.7,1.4,1.8-2.5,2c-2.6,2.3-5.2,3.4-7.6,3.1S315.8,133.1,314.7,131.9Z"/><path class="cls-1" d="M275.9,183.9a9,9,0,0,0-5.9-2.1c-3.7,0-3.5-1.6.3-2.1h0.5c3.3-.2,10.9,1.3,11.6,2.2a2.1,2.1,0,0,0,1.7.9c0.6,0-.1-1.2-1.7-2.6-3.6-3.5-6.6-9.9-6.5-14.4v-3.5l0.7,3.5c1,4.9,4.7,11.7,7,13s3.4,1.1-.2-2.9-6.1-10-5.4-15.9c0.5-4.2.4-4.5-.9-2.7s-1.4,1.5-1.4.9c0-2.3,11.6-12.8,13.1-11.9s0.9,0.2.9-.3,4.2-1,7.8-.2a18.3,18.3,0,0,1,6.6,6.5,13.1,13.1,0,0,1,.9,9.9,3.8,3.8,0,0,1-.3-1.8c0-6.4-4.7-9.6-10.6-7.1a9.3,9.3,0,0,0-3.8,2.9,7.2,7.2,0,0,0-3.7,3.5c-1.7,3.2-.4,7.7,2.9,10.4a6.2,6.2,0,0,0,2.5,1.4,0.8,0.8,0,0,1,.8.4c0.2,0.5-.1,1.4-1,3.2a11.5,11.5,0,0,0-1.5,5.8c-0.2,3.8.4,6.1,3.7,12.9l-0.7.2c-1.4.6-1.7,0.4-1.2-.8s0.1-1.5-.5-1.5-0.7-.5-0.4-1,0.2-1-.4-1a2.9,2.9,0,0,0-1.9,1.7c-0.9,1.4-1.1,1.4-2.1-.5a4.2,4.2,0,0,0-3.9-2.2h-0.3a19,19,0,0,1-6.4-2.5c-4.1-2.5-4.2-3.4-.2-1.4C278.2,185.9,278.2,185.8,275.9,183.9Z"/><path class="cls-1" d="M105.5,175.2a28,28,0,0,0,2.7-3.4c2-2.8,3.9-5,4.3-5.1l3.1-.3c1.6-.2,2.1.2,1.8,1.1s0.4,1.6,2.5-.3,1.8-1.5,1.4.4,0.8,2.8,3.8,4.9,5.2,3.6,6.3,3.8l0.3,0.4c0.7,0.8,1.1,1.3,1,1.7s-1.1.5-3.1,0.2-4.3-1-8.1-4-4.4-3.3-5.7-1.8-1.2,2.3-.1,4a4.8,4.8,0,0,0,2.9,2c1.5,0.5,2,.8,2,1.4s-0.4.7-3.7,1c-5.1.4-7.5-.1-9.3-1.9s-1.3-1.6-1.3-2.6a1.5,1.5,0,0,0-.3-1.3l-0.3.3h-0.1Z"/><path class="cls-1" d="M141.2,167.7a1.8,1.8,0,0,1-.7-2.2c0.2-.3.2-0.5,0-0.5v-0.8c1.3-.2,2.2.7,2.2,2.4S142.3,168.6,141.2,167.7Z"/><path d="M201.8,66.3c-0.5,1.1-.9,1.4-0.9.7a1.3,1.3,0,0,0-1.1-1.2c-0.5,0-.7.8-0.3,1.7s-0.4.6-1.6-1a23.1,23.1,0,0,0-6.4-4.7l-4-2-5.2,4L179,66.2c-2.8,1.8-4.2,2-4.2.7s1.4-1.4,3-2.1a18.4,18.4,0,0,0,6-4.8c2.7-3.3,3-3.4,6.2-2.3a15.3,15.3,0,0,1,5.6,3.9c1.8,2.2,2.2,2.3,2,.8a5.6,5.6,0,0,0-1.7-2.7l1.3-.3a14.8,14.8,0,0,0,3,2.1l3.1,1.5,1.2,0.4-0.7,3c-0.7,2.8-.8,2.8-1,0.5S202.6,64.5,201.8,66.3Z"/><path d="M312.8,219.5c0,2.2,1.1,2.9,1.9,1.7l1.1,1.4c0.1,1.9.3,2.2,0.7,1.2a16,16,0,0,1,1.4,5.5h0c-0.9,3.3-.9,3.7.2,2.3v0.7c0,1.1.1,1.9,0.1,2.6v0.2c-0.5,1.4-.4,1.7.4,1.2s0.5,0.2,1-.2l-0.2.5a1.4,1.4,0,0,1-1.7.6c-0.5-.4-1.8,0-3,0.8s-2.9,1.3-5.2.6a21.1,21.1,0,0,0-4.6-.9v-2.3a6,6,0,0,0,2.2-1.6,16.6,16.6,0,0,0,3.5-5.1c0.8-2.2.8-7.4,0.3-11.3l1.6,1.6h0.1v0.3Z"/><path class="cls-1" d="M201.1,98c1.3-3.3,1.3-3.8,0-4.5s-3.2-.7-5.3-0.5-3.6,0-3.3-.8-0.6-1.4-1.9-1.8c-3.5-.9-3.7-0.8-4.4,1.9a10.2,10.2,0,0,1-3.1,4.5c-1.9,1.5-2.1,2-.9,2s2.9-1.9,4.6-4.2,3-3.4,3-2.6-1.1,2.9-2.4,4.4l-4.8,5.7c-2.8,3.4-8.9,4.9-15.9,4-5-.6-11,0.9-12.9,3.2s0,0.9,3.2-.5a14.3,14.3,0,0,1,7.3-1.4c4.4,0.8,4.1,1.1-1.7,1.7a22.4,22.4,0,0,0-10.5,4.3c-2.2,1.5-4.1,2.9-4.9,3.6l-2.6-.9c1.1-.9,1.8-2,1.6-2.7s0.3-1.6,1.5-1.9c3.6-.9,2.3-2.2-4.1-4.5s-16.1-3.2-11.3-1.3a3.8,3.8,0,0,0,2.8.4c1-.6,8.5,3.8,9.1,5.4s-0.1,1.6-4.2-.9c-2-1.2-3.2-1.6-2.8-1s0.1,1.2-.7,1.2a5.2,5.2,0,0,1-2.7-1c-1.2-.8-1.2-1,0.5-1,3.7-.1-0.5-1.8-4.5-1.8s-4.4.6-5.7,2l-1.7,1.9v-0.2l-0.9.9a1.6,1.6,0,0,0-.7,1.7c0.2,0.8-.4,1.9-1,1.9a11.4,11.4,0,0,1-2.1-2.4c-1.7-2.2-1.8-2.5-1.8-4.5a5.7,5.7,0,0,1,.5-2.8c0.5-.7.7-2.3,0.3-2.3a7.3,7.3,0,0,1-1.3-2.3c-1-2.2-1-2.3-.4-4.2a4.4,4.4,0,0,0,.3-2.1,8.3,8.3,0,0,0-2.3-.5h-1.6c1.6-1.3,3.9-2.3,5.4-1.9a4.9,4.9,0,0,0,3.2-.4c1.6-1,1.8-4.1.4-5.1s0.1-1.9,2.6-.9,1.8,1,1.2,1-1.6,2.1.3,2.1,1.4,0.3.5,1.3a1.9,1.9,0,0,0-.3,2.2c0.4,0.5.2,0.5-.5,0.2s-4.3,1.7-4.3,3.3,1,2.1,2.3,3.6,2.9,2.6,5.2,2,2.7-.8.9-2.1-1.7-1.4-.2-1.5a2.8,2.8,0,0,1,2.3,1c0.3,0.5,1.9,1,3.4,1a27.4,27.4,0,0,1,7.1,1.5c4.3,1.5,10,2,10,.9a25.8,25.8,0,0,0-3.1-4.2l0.2-.2a1.4,1.4,0,0,0,.9.6,1.6,1.6,0,0,1,1.5,1.8,0.6,0.6,0,0,0,.7.8,1.2,1.2,0,0,0,.9-0.4,14.6,14.6,0,0,1,2.1-1.7c5.9-4.3,9.6-4.9,16.2-2.7,4.1,1.4,5.2,1.5,7.5.7a7.7,7.7,0,0,0,5-6.3V89.5l-3-.3c-3.7-.3-7.1-0.1-8.7.7s-1.3.5-1.8,0.1-0.5-4.9,1-7.8a18.2,18.2,0,0,0,1.1-2.5c0.3-1.1,2.3-3.2,2.9-3.2a2,2,0,0,1,1,1.2c0.7,1.8,1.9,2,3.6.6a3.8,3.8,0,0,1,1.6-.9,0.8,0.8,0,0,1,.9.9c0,0.7,1.9,2.1,2.9,2.1s1.3-3.9.2-4.7a15.8,15.8,0,0,0-4.2-.1h-0.6l-4.2.3V73.4a0.8,0.8,0,0,0,.9-0.7,1.4,1.4,0,0,0-.1-0.5L179,72a0.6,0.6,0,0,0,.2.4l3,0.2H185V71.1c0-2-1.6-4-3-3.6l-0.5.2L179,66.2l3.3-2.4,5.2-4,4,2a23.1,23.1,0,0,1,6.4,4.7c1.2,1.6,1.9,2,1.6,1s-0.2-1.7.3-1.7a1.3,1.3,0,0,1,1.1,1.2c0,0.7.4,0.4,0.9-.7s0.9-1.8,1,.5,0.3,2.3,1-.5l0.7-3,1.1,2.5,1.1,2.5v-3c0.2-3,.2-3,1-0.5l0.8,2.5V64.5c0.1-1.6.5-2.6,1.1-2.2a2,2,0,0,1,.3,2.3c-0.4,1.3-.2,1.2.9-0.3l0.6-.9,1.8,0.5c-1,.3-1.1,3.1,0,7.4s1.3,6.3,1.1,6.9-1-1.4-1.6-4.6-1.6-5.7-2.1-5.7-0.6.7-.3,1.7,0.3,1.4-.5.9-1.2,0-1.2,1.1-0.2,1.6-1.1.3-0.8-.4-0.5,2.5l0.5,4-1.4-4-1.5-4,0.6,4.5a33.9,33.9,0,0,0,1.6,6.5c0.8,1.8.8,1.8,0.4-.3s0-2.2.6-2.2,0.8,1.4.4,3.5a10.4,10.4,0,0,0,.3,5.4,2.7,2.7,0,0,1,.4,2.5c-0.4.4-1.7-2.4-3-6.1-2.1-6.2-2.4-5.6-.7,1.3,0.5,1.9.4,2.5-.5,2s-1.1-.1-1.1.9-0.5,1.3-1.1.9-0.7.1,0.1,1.6,0.7,7.2-2.1,11.3l-2.1,3.2,3.1-3.4a17.1,17.1,0,0,0,3.9-8.5c1-5.1,1-5.1,1-1.1a14.2,14.2,0,0,1-1.3,6.5,12,12,0,0,0-1.5,5c0,1.8-.3,2.1-0.9,1.1s-1.1-1-1.5-.2a17.5,17.5,0,0,1-4.9,3.2c-4.5,2.3-10.5,7.6-11.5,10.2l-0.9-.4a24,24,0,0,1,1.3-2.7c0.8-1.2,1.1-2.2.7-2.2s-4.7,5.9-6.7,11.4-5.2,9.6-6.8,9.6,0.3-1.5,1.7-3.4a32.8,32.8,0,0,0,4.1-8.6c1.8-6.2,7.6-12.4,15.7-17C198.2,102.5,200,100.8,201.1,98Z"/><path d="M262,172.8c-0.9,0-.1.8,1.8,1.8s3.6,2.4,3.8,3-2.4,1.6-3.2.3-2.4-1.2-4.7-1.6a12.7,12.7,0,0,1-2.9-.7c-0.6-.3-0.2-0.7.7-1.4s1.5-1.3.5-1.4l0.2-1.4a2,2,0,0,0,1.5-.1c2.6-.8,8.7,1.8,10.1,4.4s0.8,2,.3,2-1.7-.8-3.5-2.4S262.9,172.8,262,172.8Z"/><path class="cls-1" d="M310.7,228.8a16.6,16.6,0,0,1-3.5,5.1,6,6,0,0,1-2.2,1.6c-0.5,0,.2-1.3,2-3.7s3.5-11.8,1.9-17.7a10.6,10.6,0,0,0-1.6-3.7,12.4,12.4,0,0,1,1.9,3.1,20.8,20.8,0,0,1,1.4,3.3l0.4,0.7C311.5,221.4,311.5,226.6,310.7,228.8Z"/><path class="cls-2" d="M174.7,72.5c-0.1-.6.1-1.3,0.4-1.3a1.5,1.5,0,0,1,1.3,1.5,0.8,0.8,0,0,1-.9.7,1,1,0,0,1-.7-0.2A1.1,1.1,0,0,1,174.7,72.5Z"/><path class="cls-1" d="M291.4,111.8c0.8-1.1,4.6-4.4,5.2-4.4s0.9,1,0,2.9-1.2,3.8.6,4.8a5.4,5.4,0,0,0,5.4-1,10.3,10.3,0,0,0,3-7c0-2.2-2-9.2-3-10.4,2.2-2.1,3.2-2.5,4.1-1.6s1.2,0.7,1.1.2a21.5,21.5,0,0,1,0-4.5c0.2-2.9.4-2.4,1.4,2.8s1.6,6.8,10.1,16.3l1.8,2-2,1.3c-0.4,0-.9,1.2-1.1,3.6a14.5,14.5,0,0,1-3.9,9,36,36,0,0,0-2.9,3.5c-1.5,1.9-1.5,1.9-.8-0.4s0.3-2.1-.6-1.6,0.3-1.9,2.1-5.2c4-7.1,3.9-7,3.9-5.1s-1.1,3.2-2.5,5.2c-2.9,4.2-3.2,5.4-.9,3.5s6-12.8,3.4-14.4a3.5,3.5,0,0,1-1-2.6c0-3.3-1.5-2.1-1.6,1.4-0.1,1.8-1.8,7-3.8,11.4-3.6,8-4.4,11.3-2.8,11.3s1.5,1.2,2.3,2.6l0.6,1.3v0.2c-0.4,2.4-.4,2.6.3,4.2a4.6,4.6,0,0,0,2.6,2.6l2.5,1.1c1.1,0.3.4,1.1-1.1,1.2s-8-3.1-10.4-6.4-2.8-9.3-.4-14c0.7-1.5.2-2.2-1-1.5a7.7,7.7,0,0,1-3.4.3,7.5,7.5,0,0,1-4.1-1.2c-3-1.9-4.9-6.3-4-9.3A8.9,8.9,0,0,1,291.4,111.8Z"/><path d="M262.5,143c-1.2-4.4-1.9-8.3-1.3-8.9h0.2a1,1,0,0,1,.4,1,2.5,2.5,0,0,0,1.6,2.2c1.3,0.5,2,.6,2,0.1h0.4c0.4,2.1.9,4.2,1.5,6.3l-1.3-.2-2.7-.5Z"/><path d="M298.3,198.8a3.4,3.4,0,0,1-.7,3l-0.6-1.4c0.3-.4.3-0.6-0.3-0.6l-0.4-1.1-0.4-.9C297.6,196.8,297.8,197.1,298.3,198.8Z"/><path class="cls-1" d="M267.6,177.6c-0.2-.6-2-1.9-3.8-3s-2.7-1.8-1.8-1.8,3,1.1,4.6,2.5,3.1,2.4,3.5,2.4l0.7,2h-0.5c-3.8.5-4,2.1-.3,2.1a9,9,0,0,1,5.9,2.1c2.3,1.9,2.3,2,.2,1-4-2-3.9-1.1.2,1.4a19,19,0,0,0,6.4,2.5l-0.7,2.8-2.5-.2a25.5,25.5,0,0,1-4.5-.8c-2.6-.8-3.6-0.4-5.5,1.8s-1.9,3.4-1.1,5.8a5.8,5.8,0,0,1,.4,2.2c-0.5.8-1.3,0.1-2.3-1.9a6,6,0,0,1-.9-3.9,10.4,10.4,0,0,1,3.6-6l1.1-.9-1.2-.8a6.4,6.4,0,0,0-6.5.5c-2.1,1.5-2.8,2.8-3,5.9s-0.4,2.7-.6,2.8-1.8-2.3-2.2-4.5a9,9,0,0,1,1.8-7.7l1.9-2.5c0.3-.4,0-0.8-1.2-1.9a3.9,3.9,0,0,0-3.6-1.4l1.2-2.3a12.7,12.7,0,0,0,2.9.7c2.3,0.4,4.3,1.1,4.7,1.6S268,179,267.6,177.6Z"/><path d="M254.9,174c-1.1,1-1.3,1-.7,0s-0.9-1.5-2.4.3-3,1.7-1.8-1.3,3.9-6.3,7.3-7.9a16.7,16.7,0,0,1,6.4-1c3.2,0,6.3.7,7.7,1.8s2.9,3.9,4.4,7.1l2.8,5.8-2.6-.7c-1.5-.3-4-2.1-5.7-4s-4-3.5-7.7-4-4.8-.2-4.8.6a0.7,0.7,0,0,0,.4.7l-0.2,1.4h-0.2A5.3,5.3,0,0,0,254.9,174Z"/><path class="cls-1" d="M263,134.2c1.6,1.6,2.4,2.6,2.4,3.1s-0.6.4-2-.1a2.5,2.5,0,0,1-1.6-2.2,1,1,0,0,0-.4-1l0.7-.8Z"/><path class="cls-1" d="M93.4,31.7c-0.9-.8-1.7-1.1-2.1-1l-1.5.4c-0.7.2-.8,0.1-0.7-0.6s4-3.9,5.2-3.9,2.4,0.7,4.4,2.1a6.4,6.4,0,0,0,1.8,1l0.8,2.2a4.3,4.3,0,0,0-2.5,2.5c-1.5,4-.4,6.8,3.6,9.3s5.5,4.7,5.5,7c0,0.6-.4.8-1,0.5s-1.2,4.8.5,7.3,0.5,6.1-3,5.5c-1.3-.3-2.2-0.9-1.9-1.4s0-.9-0.6-0.9a0.6,0.6,0,0,1-.5-1c0.3-.6-0.1-1.3-1-1.7H99.5l0.4-2.2c0.4,0.1.5-.3,0.5-2.4a9,9,0,0,1,.4-2.8l0.3-.5a3.3,3.3,0,0,0,.6-1.6c0-.7-2.4-3.4-3.1-3.4s-3.2-3-4-4.6a10.7,10.7,0,0,1-.3-7l0.4-1.6Z"/><path class="cls-1" d="M107.8,88.8c-2.5,2.5-3.4,2.6-2,.1s2.6-2.5,4.5-3.1c4.6-1.5,4.5-2.7-.2-2.3-2.1.1-2.9,0-1.8-.3,4.1-1.2,3.9-2.4-.5-2.4s-4.1-.3-3-1,1.2-1,.1-1-0.6-1.4,1-1.6l1.9-.3a1.1,1.1,0,0,0,1-1.2c0-.5-0.4-0.7-1-0.4s-11-8.8-11-11.6S97.9,59,99.5,59h0.8c0.9,0.4,1.3,1.1,1,1.7a0.6,0.6,0,0,0,.5,1c0.6,0,.9.4,0.6,0.9s0.6,1.1,1.9,1.4c3.5,0.6,5.2-2.5,3-5.5s-2.1-8.3-.5-7.3,1,0.1,1-.5c0-2.3-2.1-4.9-5.5-7s-5.1-5.3-3.6-9.3a4.3,4.3,0,0,1,2.5-2.5,2.3,2.3,0,0,1,3.2,1.3,3.3,3.3,0,0,0,2.8,1.5c1.7,0,1.8.2,0.6,1s-1.3,1,.1,1a2.8,2.8,0,0,1,2.3,1.5,2.4,2.4,0,0,0,2,1.5c0.8,0,1.7,1,1.9,2.2s0.5,1.3.6-1-0.3-3.1-.9-2.7-1-.2-1-1.3-1.6-3.5-3.5-5.5L105.9,28l2.2-1.6a7.6,7.6,0,0,1,3.1-1.5c0.4,0,.5.3,0.1,0.9s0,1,.8,1,4.5,3,2.6,3-0.8.5,0.5,1.5,1.6,1.5,1,1.5,0,0.7,1.1,1.6,2,2.6,1.9,11.7a105.7,105.7,0,0,1-.8,14.7c-0.4,2.9-.4,4.2.3,3.5s3-21.6,2.4-27.4c-0.4-3.1-.2-4.2.6-3.7a1.7,1.7,0,0,1,.7.8,0.9,0.9,0,0,1-.1.8c-0.3.4,0.1,1.1,0.8,1.8a25,25,0,0,1,.6,6.8h0l-0.5-6.2-0.3,7.5c-0.1,4.1-.6,9.9-1,12.8s-0.4,5.5,0,5.8,0.5-.1.7-0.6,0.1,1.9.2,2.6,0.3,1.6.8,1.4h0.1c0.3,4.9,1.3,6.6,2.3,3.8a0.6,0.6,0,0,1,.3-0.4h0.1a1.2,1.2,0,0,1,.2.9,1.8,1.8,0,0,0,1.4,1.8h0.1a3.6,3.6,0,0,0,.5.9,3.8,3.8,0,0,1,.7,1.6c0,0.9.6,1,1.2,0.2v0.2a51.5,51.5,0,0,0,6.7,8.6c0.8,1.9,2.4,3.8,3.5,4h0.1l0.8,1a4.1,4.1,0,0,0,1.1,1.5l0.3,0.3a3.6,3.6,0,0,1,.7,1.3v0.3c0,0.7.2,1,.6,1a34.2,34.2,0,0,0,2.9,3.8l0.4,0.5a25.8,25.8,0,0,1,3.1,4.2c0,1.1-5.7.6-10-.9a27.4,27.4,0,0,0-7.1-1.5c-1.5,0-3.1-.5-3.4-1a2.8,2.8,0,0,0-2.3-1c-1.5.1-1.5,0.2,0.2,1.5s1.7,1.4-.9,2.1-3.3.2-5.2-2-2.3-3.1-2.3-3.6,3.1-4,4.3-3.3,0.9,0.3.5-.2a1.9,1.9,0,0,1,.3-2.2c0.9-1,.8-1.3-0.5-1.3s-2.2-2-.3-2.1,0.1-.5-1.2-1-4.3-.3-2.6.9,1.2,4.1-.4,5.1a4.9,4.9,0,0,1-3.2.4c-1.5-.4-3.8.6-5.4,1.9s-1,.4-1.8,1.3a5.6,5.6,0,0,0-1.2,1.4,2.7,2.7,0,0,1,.5-1.9c1.5-2.8,1.2-3.8-.5-1.6s-1.5,1.6-1.5.5,2.4-4.9,3.8-4.9a2.3,2.3,0,0,0,1.7-1C113.4,86,109.8,86.8,107.8,88.8Z"/><path class="cls-1" d="M155.8,167.4l-0.2.2a3.9,3.9,0,0,1-1.8,1.3A3,3,0,0,1,155.8,167.4Z"/><path class="cls-2" d="M181.5,78.4a0.8,0.8,0,0,0-.9-0.9V75.7a15.8,15.8,0,0,1,4.2.1c1.1,0.8.9,4.7-.2,4.7S181.5,79.1,181.5,78.4Z"/><path d="M269,158.6c-1.5-.7-4.6-8.9-6.5-15.6l0.8-.2L266,144a5.9,5.9,0,0,1,1.8,1.3l0.6,1.8a41.4,41.4,0,0,0,3,7.3h-0.7c-2.6.4-2.4,2,.5,4.7l2.5,2.3-2.5-.2c-1.4,0-2.2-.6-2-1.3A1.1,1.1,0,0,0,269,158.6Z"/><path d="M292.3,200.1c-0.7-1-1-2-.7-2.3a19.2,19.2,0,0,0,2.2-2.4l0.6-.9,0.9,2-0.6.3c-1.1.6-2,1.5-2,2.1s1.1,0.2,2.4-.6l0.8-.5,0.4,0.9,0.4,1.1h-0.2a2.8,2.8,0,0,0-2.3,1.1C293.8,201.5,293.1,201.3,292.3,200.1Z"/><path class="cls-1" d="M257.8,170.7c0-.8,1.4-1,4.8-0.6s5.4,1.4,7.7,4,4.2,3.7,5.7,4l2.6,0.7-2.8-5.8c-1.5-3.2-3.5-6.4-4.4-7.1s-4.5-1.7-7.7-1.8v-0.5l0.5-.2c0.2-.2-0.6-2.8-2.3-7a152.4,152.4,0,0,1-7.4-25.5c-0.7-4.1-.8-5.7-0.8-13.7s0-9.2,1-13.1a42.7,42.7,0,0,1,12-20.7c4.1-3.9,5.5-4.9,8.8-6.9a31.4,31.4,0,0,1,11.6-4.2,18.5,18.5,0,0,1,7.6,0,30.9,30.9,0,0,1,11.8,3.7l-1.3-.6a36.1,36.1,0,0,0-8.3-2.1c-13.3-1.4-29,9.2-34.5,23.2-1.6,3.9-4.4,21.3-4,24.7,0.6,5.6,1.8,9.3,3.8,11.9l-0.7.8h-0.2c-0.6.6,0.1,4.5,1.3,8.9,1.9,6.8,5,14.9,6.5,15.6a1.1,1.1,0,0,1,.2,1.5c-0.2.7,0.6,1.3,2,1.3l2.5,0.2-2.5-2.3c-2.9-2.7-3.1-4.3-.5-4.7h0.7a0.8,0.8,0,0,0,.4.4,1.8,1.8,0,0,0,.9-1c0.7-1.3,4.6-5,7.1-6.7a22.1,22.1,0,0,1,4.6-2.2c2.1-.7,2.9-0.8,6.6-0.6s4.3,0.3,6.3,1.3l0.3,0.2c-3.7-.8-7.8-0.9-7.8.2s-0.4.7-.9,0.3-13.1,9.6-13.1,11.9c0,0.6.6,0.1,1.4-.9s1.4-1.5.9,2.7c-0.7,5.9,1.1,11.1,5.4,15.9s3.7,4.7.2,2.9-6-8.1-7-13l-0.7-3.5v3.5c-0.1,4.5,2.9,10.9,6.5,14.4,1.6,1.4,2.3,2.6,1.7,2.6a2.1,2.1,0,0,1-1.7-.9c-0.7-1-8.3-2.4-11.6-2.2l-0.7-2c0.4,0,.3-0.7-0.3-2s-7.5-5.2-10.1-4.4a2,2,0,0,1-1.5.1A0.7,0.7,0,0,1,257.8,170.7Z"/><path class="cls-2" d="M324.2,125.1c0.2,2.4.2,2.7-.7,4a5.7,5.7,0,0,1-2.2,1.9,6.1,6.1,0,0,1-2.2.5c-2.5-.2-3.5-0.4-4.3-1l-0.7-.6,0.6-.7a16,16,0,0,0,5.1-11.9,36.7,36.7,0,0,1,3.6,4.3A11.3,11.3,0,0,1,324.2,125.1Z"/><path d="M318.8,236.3c0.7-.4.9-0.4,0.8-0.1s-0.8.4-1,.2h0.2Z"/><path d="M319.8,117.3a16,16,0,0,1-5.1,11.9l-0.6.7H314l1.2-1.4c2-2.3,3.3-6.7,3.2-10.6a2,2,0,0,1,.3-1.5A4.5,4.5,0,0,1,319.8,117.3Z"/><path d="M318.2,223.5a12.6,12.6,0,0,1-.3,5.9,16,16,0,0,0-1.4-5.5l0.2-.5C317.5,221.4,317.5,221.4,318.2,223.5Z"/><path class="cls-1" d="M317.9,229.4c0.1,0.8.1,1.5,0.2,2.4s-1.1,1-.2-2.3h0Z"/><path d="M315.8,222.3c0,0.1,0,.2,0,0.3l-1.1-1.4,0.4-.7C315.4,219.9,315.7,220.6,315.8,222.3Z"/><path class="cls-1" d="M314.8,221.2c-0.8,1.2-1.9.5-1.9-1.7v-0.3Z"/><path d="M312.8,219.2h-0.1l-1.6-1.6a17.4,17.4,0,0,0-.7-3.2c-0.4-1.3-.1-1.2.9,0.5A14.2,14.2,0,0,1,312.8,219.2Z"/><path d="M313.2,131.1a13.5,13.5,0,0,0-2.1,4l-0.8,2.9-0.7-1.3a8.6,8.6,0,0,1,1.6-3.9C312,131.7,312.6,131.1,313.2,131.1Z"/><path d="M308.8,77.8l-0.8-.6-1.6-1C307.8,76.8,308.8,77.5,308.8,77.8Z"/><path class="cls-1" d="M308.5,81.8a1.4,1.4,0,0,1,1.3,1.5,1.3,1.3,0,0,1-1.7,1.3c-1.1-.2-2.6,1.7-5,6.5-3.8,7.8-7.3,10.1-12.7,8.6-1.5-.4-2.3-0.6-2.4-0.5l-0.7-.8a4.9,4.9,0,0,0,1.8-.5c2.4-1,4.6-3.7,5.7-7.1a21.8,21.8,0,0,0,.9-3.3,11.6,11.6,0,0,1,1.2-2.8c0.7-1.2,1.1-2.3.9-2.4l-3.4-.8a11.5,11.5,0,0,0-6.4,0c-4.8,1-7.7,2.1-11,4.5a24.6,24.6,0,0,1,7.5-5.1c4.5-2,7-2.1,16.2-1a19.5,19.5,0,0,0,6.7-1.3l0.5,1.4c-4.3,1.6-6.1,3.5-8.4,9.6a30.3,30.3,0,0,1-3.7,7.5c-1.6,1.8-1.6,1.8.4,0.8s3.9-3,6-8.2S306.5,81.8,308.5,81.8Z"/><path d="M301.5,147.1a10.6,10.6,0,0,1,5.8,10.5c-0.3,3.4-1.6,5.6-2.2,4.6a13.1,13.1,0,0,0-.9-9.9,18.3,18.3,0,0,0-6.6-6.5A16.3,16.3,0,0,1,301.5,147.1Z"/><path d="M307.3,210.4c-1.1-1.2-2.6-2.1-5.9-3.9a12.1,12.1,0,0,1,3.1,1.4A10,10,0,0,1,307.3,210.4Z"/><path class="cls-1" d="M304.8,160.4a3.8,3.8,0,0,0,.3,1.8,13.4,13.4,0,0,1-.9,2.2c-1.2,2.3-4.7,4.9-7.6,5.6s-1.2-.6.8-2.6,3.2-4.4,3.2-5.9-1.2-3.4-2.7-4.7-3.9-2.3-6.9-.9l-0.7.3a9.3,9.3,0,0,1,3.8-2.9C300.1,150.8,304.8,154,304.8,160.4Z"/><path d="M302.5,96.5l0.2,0.2-1.1,1.1a15.2,15.2,0,0,1-4.5,3.3,20.8,20.8,0,0,0,3.6-3.2C301.4,97,302.2,96.4,302.5,96.5Z"/><path d="M298.2,246.4c1.4,0.5,1.3.9-.2,3.2-2.7,4.3-8,9.2-9.4,8.9s-1-.2-0.5,0a1.1,1.1,0,0,1,.1,1.4c-0.3.6-1.2,0.5-2.1-.3s-1.5-1-.8,1.2,0.4,1.7.3,1.8a1.4,1.4,0,0,1-.9-0.6c-1.5-1.4-3.3-1.6-2.4-.3s-3.5,2.4-5.2.9-1.5-.9-0.9-0.1,0.3,1.3-.1,1.3a4.3,4.3,0,0,1-2.2-1.3c-1.1-1-1.3-.9-0.8.5s-0.8,2.4-1.7.3-2.7-1.9-2,.2-0.2.7-1-.7l-1.5-2.5v2.3c0,1.3-.4,2-1,1.7a1.2,1.2,0,0,1-.6-1.4,2.1,2.1,0,0,0-.5-2.1c-0.7-1.2-.9-1-0.9.8s-0.4,2-1,1.7a3.5,3.5,0,0,1-1-2.6c0-1.1-.4-1.8-1-1.4s-0.6,1.3-.3,2.3,0.3,1.4-.2,1a6.2,6.2,0,0,1-1-3c-0.2-1.5-.2-2,2.5-2.2a26.3,26.3,0,0,0,4.6.3,32.9,32.9,0,0,0,5.8-.5c9.6-.2,13.8-1.8,18.5-6.9,1.8-1.9,2.8-2.3,3.7-1.5a2,2,0,0,0,3.4-1.3c0-.6-0.6-0.6-1.5.2s-1.4,1-.9-0.4,0.6-1.5,1.1-1.5A6,6,0,0,1,298.2,246.4Z"/><path d="M297,200.4l0.6,1.4a5.2,5.2,0,0,1-3.8,2c-0.8,0-.1-0.9,1.5-2Z"/><path class="cls-2" d="M296.8,199.8c0.5,0,.6.2,0.3,0.6Z"/><path class="cls-1" d="M297,101.1a18.2,18.2,0,0,1-4.5,2.5c-1.9.6-2.1,0.6-4.3,0s-4.3-1.8-6.1-4.6-1.4-2.3-1.3-4.3a7.3,7.3,0,0,1,1.2-3.9c1.8-2.9,3.1-2.3,1.6.8a7.6,7.6,0,0,0-.7,2.9c0,1.9.9,2.9,3.1,3.6l1.4,0.3,0.7,0.8c-0.1.1,0.4,0.5,1.2,1.1A7.2,7.2,0,0,0,297,101.1Z"/><path class="cls-1" d="M295.4,196.5l0.6,1.3-0.8.5c-1.3.8-2.4,1.1-2.4,0.6s0.9-1.5,2-2.1Z"/><path d="M294.3,190.5c2.1,4.6,2.4,5.2,1.1,6l-0.9-2c0.5-.7.4-0.9-0.3-0.7-3.3-6.8-3.9-9.1-3.7-12.9a11.5,11.5,0,0,1,1.5-5.8c0.9-1.8,1.2-2.7,1-3.2H293a2.4,2.4,0,0,1-.1,2.7C291.1,178,291.7,185,294.3,190.5Z"/><path class="cls-2" d="M294.1,193.9c0.7-.2.8-0.1,0.3,0.7l-0.2-.5v-0.2Z"/><path d="M293,171.9h-0.1a0.8,0.8,0,0,0-.8-0.4,6.2,6.2,0,0,1-2.5-1.4c-3.3-2.8-4.6-7.2-2.9-10.4a7.2,7.2,0,0,1,3.7-3.5c-3,3.7-2.8,9.5,1.1,13.7A10.8,10.8,0,0,1,293,171.9Z"/><path d="M274.5,88.2l2.6-2.1c-5.3,5.2-9.3,13.1-11.5,23.1-1.5,6.9-.5,21.6,2.2,31.3,0.6,2.5.7,3.1-.5,3-0.6-2.1-1.1-4.1-1.5-6.3a105,105,0,0,1-1.9-16.2,47.3,47.3,0,0,1,.5-10.1C265.9,100.4,269.2,92.7,274.5,88.2Z"/><path d="M270.7,149.7c1.7,3.9,2,4.5.7,4.8a41.4,41.4,0,0,1-3-7.3l-0.6-1.8A14.8,14.8,0,0,1,270.7,149.7Z"/><path d="M269.7,257.3h2.5a32.9,32.9,0,0,1-5.8.5,26.3,26.3,0,0,1-4.6-.3h7.9Z"/><path class="cls-1" d="M267.3,143.5l0.5,1.8A5.9,5.9,0,0,0,266,144l-2.7-1.2,2.7,0.5Z"/><path d="M237.1,51.8c1-.5,1.7-0.8,1.7-0.6s-1.3,3.5-2.5,3.6l0.3-.4A5.1,5.1,0,0,0,237.1,51.8Z"/><path d="M230.9,47.1c2.4-2,2.6-.3.4,4.1l-0.7,1.4a0.9,0.9,0,0,1-.8.1,3,3,0,0,1,.5-1.6C231,49.9,231.1,49.3,230.9,47.1Z"/><path d="M224.6,44.4a11.3,11.3,0,0,1-.2,4l-0.3.9c-1,.4-1.2-0.1-0.8-1.5a9.4,9.4,0,0,0,.3-3.9C224.2,42.9,224.3,43.1,224.6,44.4Z"/><path class="cls-1" d="M216.9,77c1,2,1.9,4.5,1.8,5.5s-0.3,1.2-1-.6c-1.3-3.4-2-2.1-1,1.7s0.4,4.2-1,.6c-0.5-1.5-1.2-2.5-1.5-2.2a6.1,6.1,0,0,0,.6,3.3c1.3,3.5-.1,8.3-3.5,11.5-1.4,1.3-2.5,2.8-2.5,3.4v0.2l-0.5,2.2a1.3,1.3,0,0,0-.5.8,12.9,12.9,0,0,0-.9,4.5c-0.1,2.5-4.7,8.2-10.7,13.1-3.9,3.1-5.9,7-6.9,12.7-0.5,3.4-1.6,4.9-5.1,7.8s-4.9,3.4-5.6,3.2,0.1-1.2,1.9-2.1c4.3-2.3,7.1-6.4,8.4-12.8s3.3-8.1,10.8-13.7c3.5-2.6,5-6.7,3.1-8.5s-1.1-.9-0.9.3c0.6,3.1-1.4,6.1-5.9,9.2s-6.8,5.2-8.3,11.3-3.4,10.1-8.3,13.4a55,55,0,0,0-8,7.3l-0.9,1.1c-1.5,1.7-2.7,2.7-2.7,2.1s7.3-9.7,11.4-12.5,5.6-5.7,5.6-8.7c-0.1-.9-0.7-0.3-1.5,1.5s-3.7,5-6.6,7.3c-6.2,4.9-9.4,8.9-11,13.9s-3.4,6.8-6.4,8.3-1.5.5,0.6-1.8,3.7-5.7,4.9-9.2,3.4-7.3,6.9-10.3,3.7-3.7,2.6-3.3a10.9,10.9,0,0,0-3.4,2l-2.3-.3c1.5-1,4-2.5,5.5-3.3,5.7-2.8,10.7-10.8,10.7-17a2,2,0,0,1,.2-0.7c1.1-2.6,7-7.9,11.5-10.2a17.5,17.5,0,0,0,4.9-3.2c0.4-.8.9-0.7,1.5,0.2s0.9,0.7.9-1.1a12,12,0,0,1,1.5-5,14.2,14.2,0,0,0,1.3-6.5c0-4,0-4-1,1.1a17.1,17.1,0,0,1-3.9,8.5l-3.1,3.4,2.1-3.2c2.8-4.1,3.6-8.5,2.1-11.3s-0.8-2-.1-1.6,1.1,0,1.1-.9,0.5-1.3,1.1-.9,1-.1.5-2c-1.7-6.9-1.4-7.5.7-1.3,1.3,3.7,2.6,6.5,3,6.1a2.7,2.7,0,0,0-.4-2.5,10.4,10.4,0,0,1-.3-5.4c0.4-2.1.2-3.5-.4-3.5s-0.8,1-.6,2.2,0.4,2.1-.4.3a33.9,33.9,0,0,1-1.6-6.5l-0.6-4.5,1.5,4,1.4,4-0.5-4c-0.3-2.9-.2-3.6.5-2.5s1.1,1.2,1.1-.3,0.4-1.5,1.2-1.1,0.9,0.2.5-.9-0.2-1.7.3-1.7,1.4,2.6,2.1,5.7,1.4,5.3,1.6,4.6-0.3-3.7-1.1-6.9-1.1-7,0-7.4,0.9,0.1,1.6.8,0.9,1.2-.1,1.2S214.2,71.8,216.9,77Z"/><path d="M210.3,251.6c4.1-3.9,5.5-4.8,3.8-2.6l-6.5,8.3c-9.5,11.9-11.5,17.9-12.3,35.9-0.3,7-1,13.7-1.6,14.7s-0.8,2.3-.5,2.8a1.7,1.7,0,0,1-.8,2c-1.2,1-1.3.6-.6-2.6s1.4-10.9,1-12.8-0.8,2.1-1.4,6l-1.3,7V297.8a112.8,112.8,0,0,1,.7-16l0.9-3.5,0.2,3.5c0.1,1.9.1,5.7,0,8.4s0.2,4.6.9,4.1,1.1-4.4,1.1-10.1c0-8.2.3-10.2,2.6-14.7A66.1,66.1,0,0,1,210.3,251.6Z"/><path d="M204.8,232.3c0,0.4-.6.3-1.2-0.1s-0.9-.4-0.7-0.1l-0.9-.7-7.4-5.1-2.8-1.8C197.1,226.8,204.8,231.3,204.8,232.3Z"/><path d="M201.1,93.5c1.3,0.7,1.3,1.2,0,4.5s-2.9,4.5-7,6.8c-8.1,4.6-13.9,10.8-15.7,17a32.8,32.8,0,0,1-4.1,8.6c-1.4,1.9-2.2,3.4-1.7,3.4v0.7h-0.2c-0.7-.2-3.7.4-6.6,1.5-4.5,1.7-6.6,2-13.1,1.4l-7.7-.7-4.9,4.6c-3.2,3-5.1,4.5-5.6,4.5s0.8-1.7,4.1-4.9l5.1-5H154c10,0,10.7-.1,14.5-2.9s10.3-13.3,10.3-16.7c0-1.6,6.6-8.4,8.2-8.4s0.8-.3-0.2-1-1.1-1,.7-1,8.3-5.3,8.3-7.3-1.3.2-2.8,2-4.5,3.6-8.4,4.7a24.3,24.3,0,0,0-9.5,5.2c-2.7,2.6-4.4,3.4-6.1,3.1-3.4-.7-8.6,1-14.1,4.3a27.9,27.9,0,0,1-9.1,3.5l-4.5.6L146,120a57.2,57.2,0,0,0,7.5-3.9,21.1,21.1,0,0,1,14.7-3.9c2.9,0.4,3.7.3,2.6-.4s-3.7-1-6.4-1-6.4.8-11.3,3.5c-3.4,2-6.3,3.4-6.3,3.2l0.4-.5c0.8-.7,2.7-2.1,4.9-3.6a22.4,22.4,0,0,1,10.5-4.3c5.8-.6,6.1-0.9,1.7-1.7a14.3,14.3,0,0,0-7.3,1.4c-3.2,1.4-4.1,1.6-3.2.5s7.9-3.8,12.9-3.2c7,0.9,13.1-.6,15.9-4l4.8-5.7c1.3-1.5,2.4-3.5,2.4-4.4s-1.4.4-3,2.6-3.7,4.2-4.6,4.2-1-.5.9-2a10.2,10.2,0,0,0,3.1-4.5c0.7-2.7.9-2.8,4.4-1.9,1.3,0.4,2.1,1.2,1.9,1.8s0.8,1,3.3.8S200.3,93,201.1,93.5Z"/><path class="cls-1" d="M193,100.5c1.5-1.8,2.8-2.7,2.8-2s-6,7.3-8.3,7.3-1.9.2-.7,1,1.1,1,.2,1-8.2,6.8-8.2,8.4c0,3.4-6.5,14-10.3,16.7s-4.5,2.9-14.5,2.9H143.6l-5.1,5c-3.2,3.2-4.5,4.9-4.1,4.9l0.4,1.1a24.7,24.7,0,0,1-5.4,2c-3.2.7-6,2-6.3,2.7s-1.8,1.3-3.3,1.3-3.1.4-3.5,0.9-3,1.3-6.1,1.7l-1.5.2v-0.2c0.9-.1,1.1-0.3,1.1-0.6a1.3,1.3,0,0,0-.5-1.1c-0.5-.4-0.6-0.6-0.2-1s1.8-.7,2,0,1.1,0.7,1.3-.1,0.4-.6,2-0.3,2.5,0.2,1.6-.8-0.7-.7,0-1.2a1.7,1.7,0,0,1,1.3-.3,13.8,13.8,0,0,0,4.9,0c2-.3,2.1-1.4.2-2a11.3,11.3,0,0,1-3-1.8,5.9,5.9,0,0,1-2.4-5.2c0.1-1.1.3-1.2,1-1.2s0.9,0.2,1.2,1.7c0.5,3,3.3,4.9,7,4.9s6.6-3.1,6.2-4.6-3.2-1.1-4.3,0-1.9.7-1.9-.4a6.9,6.9,0,0,1,2.4-4.5c1.1-.9,1.7-1,4.7-1.2s3.4-.2,3.5-1,0-1-2-.2-1.7.6-4.1-.2-5.4-2.1-6.8-4-1.4-2.6.6-2.6a4.8,4.8,0,0,0,3.8-1.5c1.8-2.4-1.8-2.6-6.5-.4a38.2,38.2,0,0,1-4.4,1.8c-1.5.4-1.6,0.4-3.8-.8s-4.5-3.6-4.5-5.5a7.8,7.8,0,0,1,3-4.9c1.2-.7,1.2-0.5.4,2.3s-0.5,3.5.9,4.3a3,3,0,0,0,4.1-.5,37.3,37.3,0,0,1,3.6-3l2.6-1.9v-2.4c0-1.9-.2-2.6-0.7-3.3l-0.5-.6,2.6-1.7c2.2-1.4,2.8-1.5,2.7-.4a30.1,30.1,0,0,0-.1,4.5c0.1,3,.3,3.2,4.9,3.7s6,0.3,4.2-1.8-0.9-1.5-.4-1.5,0.2-.5-0.6-1-1-1,.7-1h0.7c1.9,0,2.7.4,2.3,1.3a3.7,3.7,0,0,0,.9,3.1c1.2,1.8,1.5,1.8,3.8.2l0.4-.3,2.6,0.9-0.4.5c0,0.2,2.9-1.2,6.3-3.2,4.9-2.7,7.5-3.5,11.3-3.5s5.6,0.5,6.4,1,0.3,0.8-2.6.4a21.1,21.1,0,0,0-14.7,3.9A57.2,57.2,0,0,1,146,120l-4.7,1.9,4.5-.6a27.9,27.9,0,0,0,9.1-3.5c5.5-3.3,10.7-5,14.1-4.3,1.7,0.3,3.4-.5,6.1-3.1a24.3,24.3,0,0,1,9.5-5.2C188.5,104.1,191.1,102.6,193,100.5Z"/><path class="cls-1" d="M188,221.8l3.8,2.6-3.4-1.2-3-.6c0.3,0,.3-0.3.3-0.9a1.2,1.2,0,0,1,.3-1.1A9.1,9.1,0,0,1,188,221.8Z"/><path d="M186.1,112.8c0.4,0,.1,1-0.7,2.2a24,24,0,0,0-1.3,2.7c-0.6,1.5-1.3,3.3-1.9,5-1.7,5.5-7.3,12.1-9.7,11.8v-0.7c1.6,0,4.9-4.7,6.8-9.6S184.9,112.8,186.1,112.8Z"/><path d="M185.2,222.5h0Z"/><path class="cls-1" d="M185.1,222.5h0c-7-1.1-16.1-.6-16.8,1.1s0.9,3.1,3,3.3c0.6,0-2.8,1.2-7.5,2.6A56,56,0,0,0,154,233a1.9,1.9,0,0,1-1.8.6c-0.8-.9,5.8-4.5,10.5-5.8,2.3-.6,4.1-1.4,3.8-1.7s-2.7.2-5.2,1.1-4.5,1.2-4.2.3,2.2-1.6,4.5-2.1,4.2-1.3,4.2-1.7,0-1.2-5.1.6c-2.4.9-4.9,1.3-5.6,1.1a1.8,1.8,0,0,0-1-.1v-0.7l1.7-.3a26.9,26.9,0,0,0,4.7-1.2c0.5-.5,0-1-1.1-1.3s-2.6-1.5-2.6-2.2,0.3-.6,3.3.3,4,0.8,11.4,1S181.3,221.3,185.1,222.5Z"/><path class="cls-2" d="M185,71.1v1.4h-2.9l-3-.2A0.6,0.6,0,0,1,179,72c-0.1-1.1,1.3-3.5,2.6-4.2l0.5-.2C183.4,67.1,185,69.1,185,71.1Z"/><path class="cls-1" d="M184.1,117.7l0.9,0.4a2,2,0,0,0-.2.7c0,6.2-5,14.2-10.7,17-1.5.8-4,2.3-5.5,3.3s-5.4,1.5-4.3-.4-0.2-1.1-1.9.7-2.2,1.4-7.7,0c-7.1-1.8-8.8-1.3-15.1,4.1a24.5,24.5,0,0,1-4.8,3.3l-0.4-1.1c0.4,0,2.3-1.5,5.6-4.5l4.9-4.6,7.7,0.7c6.5,0.6,8.6.3,13.1-1.4,2.9-1.1,5.9-1.7,6.6-1.5h0.2c2.4,0.4,7.9-6.2,9.7-11.8C182.8,121,183.5,119.2,184.1,117.7Z"/><path class="cls-2" d="M175.4,265.9c1.6,1.4,1.7,2.5.7,4.4A4.9,4.9,0,0,1,175,272a2.5,2.5,0,0,1-.9-1l-1.6-2.3a9,9,0,0,1-1.3-2.4c-0.3-1-.2-1.1.6-1.4S174.1,264.7,175.4,265.9Z"/><path d="M169.5,73.8c2.1,0,2.4.3,1.5,1.2s-4.4,1.2-9.2,1.3c-7.3,0-8.1-.2-10.7-2.7s-2.6-3.1-1.7-5.5,5.9-5.4,9.3-5.1l0.5,0.3a3.3,3.3,0,0,1,1.4,1.4,6,6,0,0,1-1.6,2.1,5.6,5.6,0,0,0-1.6,2.2c0,0.9,1.7,2.3,3.5,3a33.9,33.9,0,0,0,5.8,1.3A12,12,0,0,0,169.5,73.8Z"/><path d="M158.9,70a25.9,25.9,0,0,0,7.8,3.4,33.9,33.9,0,0,1-5.8-1.3c-1.9-.7-3.5-2.1-3.5-3a5.6,5.6,0,0,1,1.6-2.2,6,6,0,0,0,1.6-2.1,3.3,3.3,0,0,0-1.4-1.4l-0.5-.3a4.1,4.1,0,0,1,1.9.6c0.9,0.6.7,1.4-.9,3.1S157.8,69.2,158.9,70Z"/><path class="cls-1" d="M153.8,168.9a5.3,5.3,0,0,0-.8,2.3c-0.3,2.6-1.2,5.2-1.9,5.9s-3.1,1.3-3.4.8a2.8,2.8,0,0,1,1-1.6c1.7-1.8,2-3.6.8-4.8a2.9,2.9,0,0,0-1.9-.9c0.7-1.1,1.6-1.2,3.5-1.2A7,7,0,0,0,153.8,168.9Z"/><path d="M143.6,107c6.4,2.3,7.7,3.6,4.1,4.5-1.2.3-1.8,1.1-1.5,1.9s-0.4,1.8-1.6,2.7l-0.4.3c-2.3,1.6-2.6,1.6-3.8-.2a3.7,3.7,0,0,1-.9-3.1c0.4-.9-0.4-1.3-2.3-1.3h-0.7v-1c0.8,0,1.2-.4.7-1.2s0.8-.2,2.8,1c4.1,2.5,4.9,2.7,4.2.9s-8.1-6-9.1-5.4a3.8,3.8,0,0,1-2.8-.4C127.5,103.8,137.7,104.9,143.6,107Z"/><path class="cls-1" d="M146.2,170.8l1.3-.2a11.7,11.7,0,0,0-1.2,2.7c-0.9,2.6-1.9,4.3-3.2,5a10.5,10.5,0,0,0,1.2-3.6C144.2,173.4,145.5,171,146.2,170.8Z"/><path d="M144.4,93.8c-0.4,0-.5-0.3-0.6-1Z"/><path class="cls-1" d="M143.9,92.6h0V92.4a3.6,3.6,0,0,0-.7-1.2A2.6,2.6,0,0,1,143.9,92.6Z"/><path d="M143.1,91.2l-0.3-.3a4.1,4.1,0,0,1-1.1-1.5Z"/><path class="cls-1" d="M141.7,89.2v0.2l-0.8-1A1,1,0,0,1,141.7,89.2Z"/><path d="M140.9,88.3h-0.1c-1.1-.2-2.7-2.1-3.5-4l0.5,0.6Z"/><path d="M136.8,115.3c1.8,2.1,1.2,2.4-4.2,1.8s-4.8-.7-4.9-3.7a30.1,30.1,0,0,1,.1-4.5c0.1-1.1-.5-1-2.7.4l-2.6,1.7h0l1.7-1.9c1.3-1.4,3-2.1,5.7-2s8.2,1.7,4.5,1.8c-1.7,0-1.7.2-.5,1a5.2,5.2,0,0,0,2.7,1v1c-1.6,0-1.7.3-.7,1s1.1,1,.6,1S136.1,114.5,136.8,115.3Z"/><path class="cls-1" d="M136.8,82.4a5.6,5.6,0,0,0,.5,2,51.5,51.5,0,0,1-6.7-8.6V75.5h0c0.5-.6.6-0.7,1.1-0.3a2.4,2.4,0,0,1,.6,1.6,2.5,2.5,0,0,0,.8,1.8,6.6,6.6,0,0,1,1.2,1.6,3.4,3.4,0,0,0,1.6,1.4A1.8,1.8,0,0,1,136.8,82.4Z"/><path class="cls-1" d="M132.9,170.7c0.2,4,.1,5.8-1.5,5.6-2.2-2.8-1.4-6.6,1.4-7.1A8.6,8.6,0,0,0,132.9,170.7Z"/><path d="M130.5,75.5c-0.6.8-1.2,0.7-1.2-.2a3.8,3.8,0,0,0-.7-1.6,3.6,3.6,0,0,1-.5-0.9C128.8,72.9,129.8,74.1,130.5,75.5Z"/><path class="cls-1" d="M128.2,72.8h-0.1a1.8,1.8,0,0,1-1.4-1.8,1.2,1.2,0,0,0-.2-0.9h0.4c1.2,0.2,1.2.3,1.1,1.4A3.3,3.3,0,0,0,128.2,72.8Z"/><path d="M126.5,70.1h0Z"/><path d="M126.4,70.1h0Z"/><path class="cls-1" d="M126.4,70.1a0.6,0.6,0,0,0-.3.4c-1.1,2.9-2.1,1.1-2.3-3.8,1.3-.5,1.5-0.3,1.7,1.5S125.6,70,126.4,70.1Z"/><path d="M123.3,36.8c1.1,0.9,1.5,3.2,1.3,8.9l-0.2,7.6-0.6-8V43.5h0a25,25,0,0,0-.6-6.8Z"/><path class="cls-1" d="M123.2,37.3l0.5,6.2c0,2.5-.2,6.5-0.5,8.9a74,74,0,0,0-.5,10.3h0c-0.2.5-.5,0.7-0.7,0.6s-0.4-2.9,0-5.8,0.9-8.7,1-12.8Z"/><path class="cls-1" d="M122.7,35l0.4,1.6c-0.6-.7-1-1.4-0.7-1.8a0.9,0.9,0,0,0,.1-0.7h0Z"/><polygon points="122.4 110.9 122.5 111 122.3 111.1 122.4 110.9"/><path d="M109.5,95.3c0.9-.9,1.2-1.2,1.8-1.3a3.7,3.7,0,0,0-1.5,2.4c0,0.8-.5,1.2-1,0.9a1,1,0,0,1-.5-0.6A5.6,5.6,0,0,1,109.5,95.3Z"/><path class="cls-1" d="M108.6,155.4v0.2c-2.5.4-3.4,0.8-2.8,1.3s-2.6,1.1-10.1-.6-10.2-1.9-8.1-.6-0.4,2.3-3.2,1.2a10.4,10.4,0,0,1-3.2-2c-0.9-1.6-5.1-1.3-6.5.4s-0.9,1.5-.1,1.5a1,1,0,0,1,1.1,1c0,0.5-1.3.7-2.9,0.4s-3.2-.2-4.5,2.2-1.5,2.6-1.6.9-0.1-1.9-1.1-.2a5.6,5.6,0,0,0-.6,3.8c0.7,2.6-.2,2.4-1.3-0.4s-0.9-2.2-.9-0.1,2.4,5,5.7,4.4l0.4,1.8c-2.2,1.1-4.5,1.3-5.9.5s-1.8-.4-2.8.9-0.8,1.2-.4,2.5,0.4,1.5,0,1.7-2.6-1.1-4.2-4.1S55,169.4,57,167a7.8,7.8,0,0,0,1.8-3.8c0.6-2.9.2-3.5-1.9-2.5a2.5,2.5,0,0,0-1.3,1.8c-0.3,1.1-.5,1.4-1.1,1.3s-1.8-4.8-.3-7.2a5.7,5.7,0,0,1,2.6-2.1c2.3-1,4.5-3.2,3.8-3.7s-2.2-.4-3.4.6-2.2.9-2.2-.3,1.7-3.4,3.2-4.5,5.1-1.4,6.6-.6,2,0.5,5.5.4,4.5-.2,6.8.9l4.4,2.3c2.6,1.6,5.4,2.5,10.8,3.6l4.8,1.2c1.7,0.9,5.8,1.5,9.1,1.4h2.5Z"/><path class="cls-2" d="M107.6,311.3c0.7,0,.6.8-0.1,2.3s-1.5,1.7-1.5.4S106.9,311.3,107.6,311.3Z"/><path class="cls-1" d="M105.5,175.2h0.1l-1,1.2a11.1,11.1,0,0,1-2.9,2.6,8.5,8.5,0,0,1-4.8,1.4c-3.3.2-4,0-3.3-1.1a3.7,3.7,0,0,1,1.5-1.2c1.3-.6,2.6-2.9,2.9-5.3s0.1-2.4-.2-2.6l0.9-1c2.3-2.9,3.2-2.4,3.2,1.6a7.2,7.2,0,0,0,1.4,4.4C103.9,176.1,104.5,176.2,105.5,175.2Z"/><path class="cls-1" d="M96.9,170.9c0.4-.5.7-0.7,0.9-0.5l-1.5,1.4Z"/><path class="cls-1" d="M96.1,171.8a33.8,33.8,0,0,1-5,4.4c-1.8,1.2-6.1,2.3-7.6,1.9a7.2,7.2,0,0,0-4.9.5c-2.3,1-3,.9-4.8-0.7s-2.5-3.6-2.1-4.9,0.7-.9,2,0.3,2.9,1.7,4.1.5a15.2,15.2,0,0,0,1.7-2.2,2.2,2.2,0,0,1,2.2-1.3c1.8-.1,2.7-1.2,1.6-1.8s-2.3-.1-5.5.8a12,12,0,0,1-4.4.5,6.5,6.5,0,0,0-4.4.9l-0.4-1.8a10.1,10.1,0,0,0,3.8-1.6c2.8-1.9,3.5-2.1,3-.8s-0.2,1.5,2,1c10.1-2.6,12-1.9,9.7,3.4-1.2,2.6-1.7,3.1-2,1.7s-2.3-1.2-2.3,1.4S90.9,175.8,96.1,171.8Z"/><path class="cls-3" d="M254.5,318.8a4.6,4.6,0,0,1,3,1.1c3.4,2.4,7.3,5.8,7.3,6.3s-1.6,1.4-2.9,1.4-4.2,2.4-3.9,3c1.7,2.9,3.4,3.8,6.4,3.1a5,5,0,0,0,3-1.6c1.2-1.3,1.9-1.5,2.3-.7a16.5,16.5,0,0,1-.9,4.2c-1,3.3-1.3,3.9-2.8,5.3a18.6,18.6,0,0,1-3.6,2.6l-1.9,1-0.2,2.3c-0.3,3.4-.8,4.2-3.7,6.4s-2.8,1.6-3.2,1h0"/><path class="cls-3" d="M319.6,236.2a19.5,19.5,0,0,0,2-1.9c1.5-1.5,2.2-2,2.5-1.7a0.7,0.7,0,0,1-.1,1,8.4,8.4,0,0,0-.8,1.3c-0.4.8-4.3,4.3-5.5,4.8s-3.7,4.5-3.7,5.2,0.6,0.8,2.4.4a13.6,13.6,0,0,0,6.6-3.9c2.9-3.4,3.4-3.8,3.4-2.4s-5.2,6.9-8.2,7.3a95.7,95.7,0,0,0-11.8,2.2,9.2,9.2,0,0,1-4.3.4l-2.5-.2-1.9,2.9a42.4,42.4,0,0,1-11.9,11.7l-2.5,1.5a31.9,31.9,0,0,1-10,3c-4.2.6-6.5,0.4-13.1-1.1-3.7-.9-12-4.7-13.3-6.2s-1.7-.9-2.9,1.3a45.7,45.7,0,0,1-3.1,4.8c-2.5,3.3-2.8,4.2-2.5,6a3,3,0,0,0,1.5,2.2c1.7,1.2,3.1,1.1,4.2-.1l1.9-2.2c0.9-1.1,1.1-1.2,1.3-.6a6.5,6.5,0,0,1-.4,2.8,7.1,7.1,0,0,1-3.6,4.4c-0.7.4-.7,0.5,0.3,2.3s1.2,3.9-.2,6.5-2.2,2.8-2.3.4a2.7,2.7,0,0,0-1.3-2.6,2.4,2.4,0,0,0-2.4-.7,4.1,4.1,0,0,0-3.2,2.4c-0.6,1.2-.6,1.3.2,3.3a8.6,8.6,0,0,0,3.1,4c2.1,1.8,2.3,1.9,3.7,1.7,3.1-.4,4.7-1.1,6.5-2.4a10.6,10.6,0,0,1,2.2-1.4c0.7,0,.7,1.2,0,2.8-2.6,5.7-3.9,7.4-6.2,8.3-0.7.3-1.2,0.6-1.1,1s3.5,1.7,7.4,2.5,5.5,3.4,5.5,7.3c0,1.7-.2,2.4-0.9,2.2"/><path class="cls-3" d="M318.3,235a2.7,2.7,0,0,0,.4,1.4"/><path class="cls-3" d="M317.9,229.4c0.1,0.8.1,1.5,0.2,2.4"/><path class="cls-3" d="M315.8,222.6l0.7,1.2"/><path class="cls-3" d="M312.8,219.2l2,2"/><path class="cls-3" d="M307.3,210.5a12.4,12.4,0,0,1,1.9,3.1,20.8,20.8,0,0,1,1.4,3.3l0.4,0.7"/><path class="cls-3" d="M297.7,201.8l1.3,2.8a7.3,7.3,0,0,0,2.4,1.9"/><path class="cls-3" d="M296.8,199.8l0.3,0.6"/><path class="cls-3" d="M295.4,196.5l0.6,1.3"/><path class="cls-3" d="M294.1,193.9V194l0.2,0.5"/><path class="cls-3" d="M305.1,162.2a13.4,13.4,0,0,1-.9,2.2c-1.2,2.3-4.7,4.9-7.6,5.6s-1.2-.6.8-2.6,3.2-4.4,3.2-5.9-1.2-3.4-2.7-4.7-3.9-2.3-6.9-.9l-0.7.3"/><path class="cls-3" d="M271.4,154.5a0.8,0.8,0,0,0,.4.4,1.8,1.8,0,0,0,.9-1c0.7-1.3,4.6-5,7.1-6.7a22.1,22.1,0,0,1,4.6-2.2c2.1-.7,2.9-0.8,6.6-0.6s4.3,0.3,6.3,1.3l0.3,0.2"/><path class="cls-3" d="M267.3,143.5l0.5,1.8"/><path class="cls-3" d="M297,101.1a18.2,18.2,0,0,1-4.5,2.5c-1.9.6-2.1,0.6-4.3,0s-4.3-1.8-6.1-4.6-1.4-2.3-1.3-4.3a7.3,7.3,0,0,1,1.2-3.9c1.8-2.9,3.1-2.3,1.6.8a7.6,7.6,0,0,0-.7,2.9c0,1.9.9,2.9,3.1,3.6l1.4,0.3a4.9,4.9,0,0,0,1.8-.5c2.4-1,4.6-3.7,5.7-7.1a21.8,21.8,0,0,0,.9-3.3,11.6,11.6,0,0,1,1.2-2.8c0.7-1.2,1.1-2.3.9-2.4l-3.4-.8a11.5,11.5,0,0,0-6.4,0c-4.8,1-7.7,2.1-11,4.5"/><path class="cls-3" d="M309.5,136.7v0.2c-0.4,2.4-.4,2.6.3,4.2a4.6,4.6,0,0,0,2.6,2.6l2.5,1.1c1.1,0.3.4,1.1-1.1,1.2s-8-3.1-10.4-6.4-2.8-9.3-.4-14c0.7-1.5.2-2.2-1-1.5a7.7,7.7,0,0,1-3.4.3,7.5,7.5,0,0,1-4.1-1.2c-3-1.9-4.9-6.3-4-9.3a8.9,8.9,0,0,1,.9-2.1c0.8-1.1,4.6-4.4,5.2-4.4s0.9,1,0,2.9-1.2,3.8.6,4.8a5.4,5.4,0,0,0,5.4-1,10.3,10.3,0,0,0,3-7c0-2.2-2-9.2-3-10.4"/><path class="cls-3" d="M348.9,107a9.6,9.6,0,0,1,.2,3.8c-0.1,2.8-.3,3.5-1.3,5.4s-3,4-3.8,4l-1.2.5c-1,.5-2.4.4-2.4-0.2a3.1,3.1,0,0,1,1.3-1,7.9,7.9,0,0,0,4.3-6.7c0-1.1-.3-1.6-2.3-3.5s-3.1-2.6-3.5-1.8l-0.3.4a7.6,7.6,0,0,1-4.1,2,2.5,2.5,0,0,0-1.6.4,6,6,0,0,0,.8,2.6,15,15,0,0,1,.6,10.3c-1,2.7-2.2,4.5-3.9,5.5l-0.7.5-2.5,2c-2.6,2.3-5.2,3.4-7.6,3.1s-5.1-1.2-6.2-2.3a1.9,1.9,0,0,0-1.5-.8"/><path class="cls-3" d="M308.8,77.8l0.4,0.3,1.3-.8a22.6,22.6,0,0,1,7.9-2.9c3.8-.8,5.8-1.8,7.7-3.9s1.9-2.2,1.6-3.8,0-2.5.9-2,2.6,3.9,2.8,5.9a5.4,5.4,0,0,1-.8,3.8c-1.7,3.4-3,4.5-6.2,5.6a3,3,0,0,0-1.6.9,12.3,12.3,0,0,0,3.2,1.9c2.9,1.4,3.5,1.6,6.2,1.7s3.1,0.1,4.2-.7,3.2-3.3,3.2-4.2-1.3-1.9-2.3-2.2a1.1,1.1,0,0,0-1.2.3c-0.4.5-1.8,0.8-1.8,0.3a6.2,6.2,0,0,1,.5-1.2c0.6-1.1,1.2-1.4,2.7-1.4s3.7,2.4,4,3.9-1,5.4-1.9,6.3-6.1,1.9-7.6,1.3-0.6-.2-0.1.8,5.5,5.4,7.2,5.4a1.6,1.6,0,0,0,1.1-.6c0.4-.5.6-0.5,1.1-0.2s2.7,1,4.8-.9,2.8-3.6,2.8-7.1,0.1-2.9.6-2.8a1.4,1.4,0,0,1,.9,1L351,85a9.8,9.8,0,0,1-.9,7"/><path class="cls-3" d="M272.2,223.5a19.1,19.1,0,0,0,4.8-1.3l2.2-1.1c1.4-.7,4-3.3,4-4s-0.3-.3-0.6-0.2l-1.6.3a8.4,8.4,0,0,0-2.7,1.8c-2.4,2.2-3.2,1.6-1.8-1.3a6.6,6.6,0,0,0,.7-2.4c0-1.5,2.9-5.6,4.7-6.8l3.7-2c1.6-.7,2.2-1.2,2.2-1.7s-2.2-6-4.3-10.2l-1.5-3-2.5-.2a25.5,25.5,0,0,1-4.5-.8c-2.6-.8-3.6-0.4-5.5,1.8s-1.9,3.4-1.1,5.8a5.8,5.8,0,0,1,.4,2.2c-0.5.8-1.3,0.1-2.3-1.9a6,6,0,0,1-.9-3.9,10.4,10.4,0,0,1,3.6-6l1.1-.9-1.2-.8a6.4,6.4,0,0,0-6.5.5c-2.1,1.5-2.8,2.8-3,5.9s-0.4,2.7-.6,2.8-1.8-2.3-2.2-4.5a9,9,0,0,1,1.8-7.7l1.9-2.5c0.3-.4,0-0.8-1.2-1.9a3.9,3.9,0,0,0-3.6-1.4c-3.6,0-5.6,1.1-6.8,3.7s-0.9,5-.3,5.3a1.5,1.5,0,0,1-.2,2.1c-1.4.5-3.8-5.6-3.7-9.8a16.7,16.7,0,0,1,1.9-8c1.5-3.1,2.5-4.5,4.8-6.1s8.9-2.8,11.5-1.8l0.8,0.2,0.5-.2c0.2-.2-0.6-2.8-2.3-7a152.4,152.4,0,0,1-7.4-25.5c-0.7-4.1-.8-5.7-0.8-13.7s0-9.2,1-13.1a42.7,42.7,0,0,1,12-20.7c4.1-3.9,5.5-4.9,8.8-6.9a31.4,31.4,0,0,1,11.6-4.2,18.5,18.5,0,0,1,7.6,0,30.9,30.9,0,0,1,11.8,3.7"/><path class="cls-3" d="M272.2,257.3a33.5,33.5,0,0,0,8.6-2.8A14.2,14.2,0,0,0,286,251c1.9-2.1,2.1-2.4,2.4-6.6a7.4,7.4,0,0,0-3.6-7.2c-3.1-2.1-4.9-2.5-9.1-2.1-10.9,1.1-11.2,1.1-13.4.3s-3.9-2.5-4.9-5.5-0.9-5.3,0-10.5,2.4-8.5,4.3-9.5,1.6,0.2.3,2.5a10.7,10.7,0,0,0-1.4,4.5l-0.2,2.3,1.4,1.3"/><path class="cls-3" d="M236.3,54.8c-0.4.7-.2,1.1,1,1.6a30,30,0,0,1,4.7,4.1c2.3,2.4,4,3.8,5,4.2a3.7,3.7,0,0,1,1.5.9,2.3,2.3,0,0,1-.9.8c-0.7.5-1.5,0.6-4.4,0.4s-3.5,0-3.5.1a8.9,8.9,0,0,0,1.6,2,12.9,12.9,0,0,1,2.1,2.9c0.7,1.6,2.9,3.5,4.1,3.5s3.6,0.5,3.6,1-3.1,2-5.9,2.2a7,7,0,0,0-2.6.4,18.3,18.3,0,0,0,.5,2,26.7,26.7,0,0,1,.8,3.7c0.3,2.6,3,7.5,4.9,9a4.7,4.7,0,0,1,1.3,1.3c0,0.7-1.4.7-3.8,0l-3.3-.7c-0.7,0-.6.2,0.8,1.6s3.1,3.1,4.1,5.2a8.6,8.6,0,0,1,1,4.6c0,2.4-.1,2.8-1,4.2a7.6,7.6,0,0,1-4.8,3.2l-1.3.2-0.3,5c-0.2,2.7-.2,5.8-0.1,6.8s1.4,4,2.3,4a5,5,0,0,0,2-1.4c1.4-1.5,2.7-1.9,2.7-.9a7,7,0,0,1-1.6,2.3c-1.3,1.4-1.6,1.9-1.4,2.6a1,1,0,0,1,0,.9,11.4,11.4,0,0,1-3.4-1.6,12.6,12.6,0,0,0-2.9-1.2c-2.5-.8-3.9-2-5.9-4.9a6.8,6.8,0,0,0-1.6-1.9c-0.5,0-.3,1.6.2,2.3s0.7,8.2.2,11.3-0.2,5.2,1.3,7a10,10,0,0,0,4.5,3.3c1.9,0.5,4.1-2.3,3.7-4.7s0.3-2.3.8-1.7a6.2,6.2,0,0,1,.9,4.1c-0.3,1.9-1.5,3.5-3.7,5.2s-6.3,2.8-10.2.7c-2.2-1.2-2.6-.8-2.6,2.3s0.1,2.8,1.5,5.4c3.5,6.7,3.4,10.3-.7,15-1.7,2-2.1,2.6-1.9,3.3l0.5,2.5c1,6,2.4,12.4,3.2,15.1,0.4,1.2,1.2,4.3,1.9,6.9a158.6,158.6,0,0,0,11.5,29.4c3.9,7.9,4.4,9.3,5.2,13.4s2.7,8.2,7,10.6a21.4,21.4,0,0,0,7.1,2.9"/><path class="cls-3" d="M230.6,52.6a9.9,9.9,0,0,0,2.8-1.9,4.5,4.5,0,0,0,1.1-2.5c0.3-1.9.7-2.2,1.8-.9s0.8,1.4.8,3.7c0,0.3,0,.5,0,0.8"/><path class="cls-3" d="M224.1,49.3l1-.5c2.8-1.8,3.5-4.1,2.2-6.6s-0.6-2.5.3-2.3a6.5,6.5,0,0,1,1.9,2.2,8.7,8.7,0,0,1,1.5,4.9v0.3"/><path class="cls-3" d="M166.7,73.4c2.7,0.4,5.1.5,5.4,0a1.9,1.9,0,0,0-.1-0.7c-0.2-.8-0.6-2.3-1.1-3.9-1.3-4.1-1.5-5-1.4-9.6a14,14,0,0,0-.2-2.1,1.6,1.6,0,0,1,.4-1.8c1.1-.9,8.5-2.5,14.5-3h1.3a5.8,5.8,0,0,0,3.4-1.5,25.7,25.7,0,0,0,3.4-3.1l1.5-1.8h4.8a78.9,78.9,0,0,1,8.7.5c5.2,0.7,6.8.7,8.6-.2s2.4-1.6,3.4-3.7,0.5-1.2-.5-3.3-1-2.3-.7-2.6,4.1,3.3,5,5.3a7.6,7.6,0,0,1,.6,2.3"/><path class="cls-3" d="M144.4,93.8l0.5-.2c0.9-.5,1.6.4,2.3,2.7a5.9,5.9,0,0,0,.6,1.6,1.4,1.4,0,0,0,.9.6,1.6,1.6,0,0,1,1.5,1.8,0.6,0.6,0,0,0,.7.8,1.2,1.2,0,0,0,.9-0.4,14.6,14.6,0,0,1,2.1-1.7c5.9-4.3,9.6-4.9,16.2-2.7,4.1,1.4,5.2,1.5,7.5.7a7.7,7.7,0,0,0,5-6.3V89.5l-3-.3c-3.7-.3-7.1-0.1-8.7.7s-1.3.5-1.8,0.1-0.5-4.9,1-7.8a18.2,18.2,0,0,0,1.1-2.5c0.3-1.1,2.3-3.2,2.9-3.2a2,2,0,0,1,1,1.2c0.7,1.8,1.9,2,3.6.6a3.8,3.8,0,0,1,1.6-.9,0.8,0.8,0,0,1,.9.9c0,0.7,1.9,2.1,2.9,2.1s1.3-3.9.2-4.7a15.8,15.8,0,0,0-4.2-.1h-0.6l-4.2.3h-1.5l-2.8.4-3.1.6a14.3,14.3,0,0,0-3,.8c-0.9.4-2.9,0.6-6.3,0.7s-5.2.1-7.3-.6a11.4,11.4,0,0,1-6.3-5c-1-2.1-1-5.4.2-6.9,3.1-4.1,9.1-5.4,13.2-3.1"/><path class="cls-3" d="M143.1,91.2a2.6,2.6,0,0,1,.8,1.5h0"/><path class="cls-3" d="M140.9,88.3a1,1,0,0,1,.8.8v0.2"/><path class="cls-3" d="M130.5,75.5h0c0.5-.6.6-0.7,1.1-0.3a2.4,2.4,0,0,1,.6,1.6,2.5,2.5,0,0,0,.8,1.8,6.6,6.6,0,0,1,1.2,1.6,3.4,3.4,0,0,0,1.6,1.4,1.8,1.8,0,0,1,1.1.8,5.6,5.6,0,0,0,.5,2"/><path class="cls-3" d="M126.5,70.1h0.4c1.2,0.2,1.2.3,1.1,1.4a3.3,3.3,0,0,0,.2,1.3"/><path class="cls-3" d="M123.8,66.7c1.3-.5,1.5-0.3,1.7,1.5s0.2,1.7,1,1.9"/><path class="cls-3" d="M123.7,43.5c0,2.5-.2,6.5-0.5,8.9a74,74,0,0,0-.5,10.3"/><path class="cls-3" d="M108.3,96.7a3.1,3.1,0,0,0-.2,1.4c0,1.2-.1,1.5-0.6,1.5s-5-3.6-5.8-5.1-0.5-4.9,1.6-7.2,1.1-2.2-.1-2.2a11.3,11.3,0,0,1-3.3-2c-4.1-3.2-5.8-3.6-8.1-2s-2.2.9-1.9-.6a6.6,6.6,0,0,1,3.3-4.3c1.4-.7,1.8-0.7,4.1-0.4l3.4,0.6c1.5,0.4.8-.5-2.8-3.8s-4.9-5-4.9-8.4a7.9,7.9,0,0,0-.9-4.3c-1.8-3.5-.9-5.6,3.4-8.5L97.6,50a1.5,1.5,0,0,1,.6.7,0.9,0.9,0,0,1,.1.8,3,3,0,0,1-.6,1,8.2,8.2,0,0,0-1.3,2.2c-0.5,1.4-.1,1.9,1.7,2l1.9,0.2c0.4,0.1.5-.3,0.5-2.4a9,9,0,0,1,.4-2.8l0.3-.5a3.3,3.3,0,0,0,.6-1.6c0-.7-2.4-3.4-3.1-3.4s-3.2-3-4-4.6a10.7,10.7,0,0,1-.3-7l0.4-1.6-1.4-1.2c-0.9-.8-1.7-1.1-2.1-1l-1.5.4c-0.7.2-.8,0.1-0.7-0.6s4-3.9,5.2-3.9,2.4,0.7,4.4,2.1a6.4,6.4,0,0,0,1.8,1c0.3,0,1.7-1.5,3.9-4.2s-0.2-4-2.1-4a1.5,1.5,0,0,1-1.1-.4c-0.4-.6.4-1.2,2.7-1.9l2.2-.6,1.3,0.9a3.9,3.9,0,0,1,1.8,2.3c0.5,1.8.9,2.4,2.2,2.7h1.3l2.6,0.2a1,1,0,0,0,.8-0.5c0.4-.6.2-0.8-1.1-2a4.6,4.6,0,0,1-1.5-1.9c0-1.4,4.3-.2,6,1.7s0.9,1.2.8,3.8,0.1,3,.7,4.1a25.1,25.1,0,0,1,1.5,4.1l0.3,0.9,0.4,1.6"/><path class="cls-3" d="M122.4,110.9v-0.2l-0.9.9a1.6,1.6,0,0,0-.7,1.7c0.2,0.8-.4,1.9-1,1.9a11.4,11.4,0,0,1-2.1-2.4c-1.7-2.2-1.8-2.5-1.8-4.5a5.7,5.7,0,0,1,.5-2.8c0.5-.7.7-2.3,0.3-2.3a7.3,7.3,0,0,1-1.3-2.3c-1-2.2-1-2.3-.4-4.2a4.4,4.4,0,0,0,.3-2.1,8.3,8.3,0,0,0-2.3-.5h-1.6"/><path class="cls-3" d="M96.1,171.8a33.8,33.8,0,0,1-5,4.4c-1.8,1.2-6.1,2.3-7.6,1.9a7.2,7.2,0,0,0-4.9.5c-2.3,1-3,.9-4.8-0.7s-2.5-3.6-2.1-4.9,0.7-.9,2,0.3,2.9,1.7,4.1.5a15.2,15.2,0,0,0,1.7-2.2,2.2,2.2,0,0,1,2.2-1.3c1.8-.1,2.7-1.2,1.6-1.8s-2.3-.1-5.5.8a12,12,0,0,1-4.4.5,6.5,6.5,0,0,0-4.4.9c-2.2,1.1-4.5,1.3-5.9.5s-1.8-.4-2.8.9-0.8,1.2-.4,2.5,0.4,1.5,0,1.7-2.6-1.1-4.2-4.1S55,169.4,57,167a7.8,7.8,0,0,0,1.8-3.8c0.6-2.9.2-3.5-1.9-2.5a2.5,2.5,0,0,0-1.3,1.8c-0.3,1.1-.5,1.4-1.1,1.3s-1.8-4.8-.3-7.2a5.7,5.7,0,0,1,2.6-2.1c2.3-1,4.5-3.2,3.8-3.7s-2.2-.4-3.4.6-2.2.9-2.2-.3,1.7-3.4,3.2-4.5,5.1-1.4,6.6-.6,2,0.5,5.5.4,4.5-.2,6.8.9l4.4,2.3c2.6,1.6,5.4,2.5,10.8,3.6l4.8,1.2c1.7,0.9,5.8,1.5,9.1,1.4h2.5c0.9-.1,1.1-0.3,1.1-0.6a1.3,1.3,0,0,0-.5-1.1c-0.5-.4-0.6-0.6-0.2-1s1.8-.7,2,0,1.1,0.7,1.3-.1,0.4-.6,2-0.3,2.5,0.2,1.6-.8-0.7-.7,0-1.2a1.7,1.7,0,0,1,1.3-.3,13.8,13.8,0,0,0,4.9,0c2-.3,2.1-1.4.2-2a11.3,11.3,0,0,1-3-1.8,5.9,5.9,0,0,1-2.4-5.2c0.1-1.1.3-1.2,1-1.2s0.9,0.2,1.2,1.7c0.5,3,3.3,4.9,7,4.9s6.6-3.1,6.2-4.6-3.2-1.1-4.3,0-1.9.7-1.9-.4a6.9,6.9,0,0,1,2.4-4.5c1.1-.9,1.7-1,4.7-1.2s3.4-.2,3.5-1,0-1-2-.2-1.7.6-4.1-.2-5.4-2.1-6.8-4-1.4-2.6.6-2.6a4.8,4.8,0,0,0,3.8-1.5c1.8-2.4-1.8-2.6-6.5-.4a38.2,38.2,0,0,1-4.4,1.8c-1.5.4-1.6,0.4-3.8-.8s-4.5-3.6-4.5-5.5a7.8,7.8,0,0,1,3-4.9c1.2-.7,1.2-0.5.4,2.3s-0.5,3.5.9,4.3a3,3,0,0,0,4.1-.5,37.3,37.3,0,0,1,3.6-3l2.6-1.9v-2.4c0-1.9-.2-2.6-0.7-3.3l-0.5-.6"/><path class="cls-3" d="M131.5,176.3l0.3,0.4c0.7,0.8,1.1,1.3,1,1.7s-1.1.5-3.1,0.2-4.3-1-8.1-4-4.4-3.3-5.7-1.8-1.2,2.3-.1,4a4.8,4.8,0,0,0,2.9,2c1.5,0.5,2,.8,2,1.4s-0.4.7-3.7,1c-5.1.4-7.5-.1-9.3-1.9s-1.3-1.6-1.3-2.6a1.5,1.5,0,0,0-.3-1.3l-0.3.3-1,1.2a11.1,11.1,0,0,1-2.9,2.6,8.5,8.5,0,0,1-4.8,1.4c-3.3.2-4,0-3.3-1.1a3.7,3.7,0,0,1,1.5-1.2c1.3-.6,2.6-2.9,2.9-5.3s0.1-2.4-.2-2.6"/><path class="cls-3" d="M143.1,178.2l-0.6.9a6.4,6.4,0,0,1-4,1.7,7.3,7.3,0,0,1-4.4-1.5c-0.3-.4-0.5-0.6-0.1-1l1.3-1.3c2.2-2,2.7-3.6,1.7-5.7a3.4,3.4,0,0,0-3.5-2.1h-0.6"/><path class="cls-3" d="M153.8,168.9a5.3,5.3,0,0,0-.8,2.3c-0.3,2.6-1.2,5.2-1.9,5.9s-3.1,1.3-3.4.8a2.8,2.8,0,0,1,1-1.6c1.7-1.8,2-3.6.8-4.8a2.9,2.9,0,0,0-1.9-.9"/><path class="cls-3" d="M202.9,232.1c1.7,1.2,2.7,1.6,2.7,1s-0.7-2.1-1.5-4.3c-3.9-11.1-8.4-17.5-18.9-26.7-6.1-5.4-11-10.1-12.7-12.3s-8.4-11.6-10.5-15.2a20.9,20.9,0,0,0-1.9-2.9l-1.1.7c-1.4,1-2.2,1.2-2.8.7s-0.6-1.1.4-2.6,1-2.8-.3-3h-0.4"/><path class="cls-3" d="M185.4,222.6c0.3,0,.3-0.3.3-0.9a1.2,1.2,0,0,1,.3-1.1,9.1,9.1,0,0,1,2,1.3l3.8,2.6"/><path class="cls-3" d="M251.2,354.5a6.2,6.2,0,0,1-.8,3.4,28.1,28.1,0,0,1-5,6c-0.8.5-1.5,0-1.9-1.6s-2-4.1-2.9-4.3-1.3.1-.8,1.7a12,12,0,0,1,.1,6.7,20.3,20.3,0,0,1-2.7,3.6,14.9,14.9,0,0,0-2.4,3.4,5.9,5.9,0,0,1-.7,1.6,2.7,2.7,0,0,0-.5,1.3c0,0.6-2.2,2.9-3.5,3.5a5.1,5.1,0,0,1-3.8.7c-1.2-.5-1.1-0.8.6-1.7s2.1-1.7,2.1-4.1a4.7,4.7,0,0,0-1.1-3.4,5.4,5.4,0,0,1-1.1-2.4,7.1,7.1,0,0,1,1.1-2.6c1.7-2.8,1.3-3.8-.7-1.5s-2.5,3.8-2.5,4.9-3.3,6.9-4.7,6.9-2.7,1.1-4.4,4a14.3,14.3,0,0,1-4.3,4.9,13.3,13.3,0,0,0-2.7,2.4c-0.1.3,0.3,1,1,1.7s1.4,1.1,2.7,1,1.5-.1,1.7.4-5.5,2.8-8.7,1.1-3.4-3.3-3-4.7-1.3-2.9-3.2-2.9a3.5,3.5,0,0,0-1.9.4c-0.6.6-.5,2.4,0.1,3.9s0.3,2-.7,2-3.6-2-4.4-3.1-0.7-1.2-.5-3.6a17.7,17.7,0,0,0,0-5.6c-0.3-2.1-.8-2.4-1.9-0.9a3.2,3.2,0,0,0-.5,2.6c0.3,2.2-.3,2.5-1.9,1s-1.2-1.3-1.2-3.7,0.1-2.7,1.2-4.2a19.5,19.5,0,0,0,2-3.9c1.1-3.1,2.7-4.8,6.3-7.1l7.4-4.7c7.7-4.9,10.4-7.6,13.2-13.1a15.1,15.1,0,0,0,1.5-5.8c0.4-3.5.4-3.6-.4-4.4a1.9,1.9,0,0,1-.6-1.9,2.3,2.3,0,0,0-.6-2c-1-1.2-1.8-1.1-2.3.3s-1.3,1.2-1.6.2,0.3-2.5.9-2.5,0.4-.8-0.6-1.9-1-1-1.8-.6-1.7.2-1.4-1.2a1.7,1.7,0,0,0-.7-2l-0.9-.8-0.8.8c-1.6,1.5-2.7.5-1.6-1.4s-0.1-2-1.8-1.9h-1.4l-0.2-2.1c-0.2-2.1-.2-2.1-1.4-2.1s-1.6-.5-1.4-1.8-1.2-3.5-2.1-3.5a2,2,0,0,0-1.2.9,24.1,24.1,0,0,1-6.5,6.1,11.4,11.4,0,0,0-3.6,3.3,23.5,23.5,0,0,1-2,2.8c-1.3,1.5-4.7,4.3-5.3,4.3s-0.4-1.4.8-2.3,4.2-4.1,3.6-4.7a4.3,4.3,0,0,0-1.7.6,10.3,10.3,0,0,1-7.2.1c-1.9-.9-1.6-2.2.4-1.5l2.7,0.6c1.5,0.3,1.8.2,3-.8s5.1-6.6,5.1-7.5a0.6,0.6,0,0,0-.7-0.5c-1.1,0-1.2-.6-0.2-2.8s1.6-5.7,1-5.7a2.9,2.9,0,0,0-1.2.9,2.8,2.8,0,0,1-1.3.9c-0.6,0-.6-0.8.2-2.7l1-2.2c1.4-2.9,1.6-3.7,1.6-5.6s-0.5-2.9-1.5-1.2a2,2,0,0,1-1.2,1.1c-0.9,0-.6-1.4.7-3.6s1.8-4.3,2.6-8.5a2.5,2.5,0,0,0-.4-1.7c-0.7-1-.5-2.5,1.1-6.9a70.1,70.1,0,0,1,3.3-7.9c0.7-1.4,1.4-2.8,2.2-3.9s1.7-2.8.7-3.3-6.4,1-6.4,3.6a3.5,3.5,0,0,0,.7,1.8c0.7,0.8.9,1.4,0.8,1.7s-1.6.2-3.2-1.3-1.9-1.5-2.1-1.4a2.3,2.3,0,0,0-.4,1.5,8.7,8.7,0,0,1-2.9,6.7,16.9,16.9,0,0,1-2.7,2.1c-1,.5-1,0.6-2,4.5-0.5,2.2-.5,2.3.2,3.1a2.7,2.7,0,0,0,2.2.8c2.7,0,3.1,1.1.6,1.8a12.1,12.1,0,0,1-10.7-2.3c-2.8-2.3-2.7-2.2-2.4-1.2s2.3,3,5.7,4.7,6.4,4.1,7.4,7.1a28.8,28.8,0,0,1,1.1,5.3c0.2,2.2.4,3,1.1,3.8a2.4,2.4,0,0,1,.7,1.3c0,1-2.1.7-3.9-1.1s-2.6-1.8-2.6-.6-1.3,3.6-2.7,5a16.5,16.5,0,0,1-3.4,2.4c-2.4,1.3-4.5,3.3-4.8,4.4a4.3,4.3,0,0,0,1.4,3.3c0.8,0.7.7,1.4-.3,1.4s-2.9-2-3.6-4a17,17,0,0,1,0-8.4c0.6-1.8.3-2.5-1.2-2.2s-3.9,3.1-6.8,10.1c-2,4.9-4.7,7.8-8.3,9a12.3,12.3,0,0,0-3.2,1.7,8.8,8.8,0,0,1-4.5,2.3c-2.3.5-6.7-.8-6.1-1.8a5.9,5.9,0,0,1,2.2-.5c2.2-.3,3-0.8,3.9-2.4a2.2,2.2,0,0,0,.1-2.1c-0.7-2-.5-4.4.6-5.6s0.8-1.2.6-1.5-1.8.1-5.1,3.8-3.8,4-6,5.3a12.3,12.3,0,0,1-3.7,1.6,1.6,1.6,0,0,0-1.5,1.1c-0.8,1.5-.7,2.1.5,3.7a6.6,6.6,0,0,1,1,1.7c0,0.6-1.9-.1-3.8-1.4s-3.3-3.4-3.2-5.3a8.7,8.7,0,0,0-.5-3c-0.6-1.5-.8-1.7-2.2-2.1l-1.7-.3-1.1,1.5a3.1,3.1,0,0,0-.8,2.9c0.2,1.3.1,1.6-.4,1.8s-2-1.3-3-3.8a9.4,9.4,0,0,0-2-3.1,7,7,0,0,1-2.3-4.6c0-1.2,2-4.5,3-5.1a9.4,9.4,0,0,0,2.1-2.6c3.1-5.3,8.3-9.1,15-11a65.4,65.4,0,0,1,11.9-2,11.5,11.5,0,0,0,6.3-2.9c1.7-2,1.8-2.3.9-5a14.4,14.4,0,0,0-1.2-2.8c-0.2-.2-0.8.1-1.7,1.1s-6.6,3.7-7.2,2.6a3.5,3.5,0,0,1,1.2-1.7c2.5-2.5,2.5-5,0-2.9s-1.7,1.2-1.7.3,1.7-3.3,2.8-4.4,1-1.6.5-1.9a6.5,6.5,0,0,0-2.2,1.8,8.8,8.8,0,0,1-2.4,1.9c-1,0-.4-1.6,1.4-4.1a38.2,38.2,0,0,0,2.5-3.6c0.7-1.3,2.1-6.9,1.9-7.1a18,18,0,0,0-3.2,2.9c-2.8,2.8-4.5,3.8-4.5,2.7A19,19,0,0,1,130,264c4.6-5.5,5.2-6.5,2.9-5.4a31.2,31.2,0,0,1-4.2,1.4c-3.4.9-5.5,0.9-10.8-.3s-4.1-1.7-.4-2.2,4.1-1.4,6.6-4,3.1-3.9,2.7-4.2l-1.9-1.1c-2.6-1.5-4.8-3.3-5.5-4.8a14.9,14.9,0,0,0-2.6-3.1c-1.9-1.7-2.7-3.1-2.2-4.2s0.7-.6,1.7,1.1,2,2.1,2,.2,0.7-2.4,1.4-2a7.4,7.4,0,0,1,.6,2.7c0.4,3.7.5,3.8,4.9,3.7a19.2,19.2,0,0,0,3.4-.2,6.5,6.5,0,0,0,2-.7,17.2,17.2,0,0,0,3.8-3.2l3.5-3.8a52.5,52.5,0,0,1,8.9-6.3l1.2-.7-1.6-.2-3.7-.8-2.6-.6c-0.7,0-2.9-1.6-2.9-2.1s1.4-.4,5.8.5,7.5,1.3,10.9.7l1.7-.3a26.9,26.9,0,0,0,4.7-1.2c0.5-.5,0-1-1.1-1.3s-2.6-1.5-2.6-2.2,0.3-.6,3.3.3,4,0.8,11.4,1,9.9,0.4,13.8,1.6h0"/><path class="cls-3" d="M107.5,313.6c0.7-1.5.8-2.3,0.1-2.3s-1.6,1.6-1.6,2.6S106.8,315.1,107.5,313.6Z"/><path class="cls-3" d="M176.1,270.4c1-1.9.8-3-.7-4.4s-2.4-1.5-3.6-1.1-0.8.5-.6,1.4a9,9,0,0,0,1.3,2.4l1.6,2.3a2.5,2.5,0,0,0,.9,1A4.9,4.9,0,0,0,176.1,270.4Z"/><path class="cls-3" d="M314.1,129.9l0.8,0.6c0.8,0.6,1.8.8,4.3,1a6.1,6.1,0,0,0,2.2-.5,5.7,5.7,0,0,0,2.2-1.9c0.9-1.3.9-1.6,0.7-4a11.3,11.3,0,0,0-.8-3.5,36.7,36.7,0,0,0-3.6-4.3"/><path class="cls-3" d="M175.6,73.4a0.8,0.8,0,0,0,.9-0.7,1.5,1.5,0,0,0-1.3-1.5c-0.3,0-.5.7-0.4,1.3a1.1,1.1,0,0,0,.2.6A1,1,0,0,0,175.6,73.4Z"/><path class="cls-3" d="M179,72a0.6,0.6,0,0,0,.2.4l3,0.2H185V71.1c0-2-1.6-4-3-3.6l-0.5.2C180.2,68.5,178.8,70.8,179,72Z"/><path class="cls-3" d="M199.2,54.4h0.3c0.7-.7-4.3-3.7-5.4-3.2s-1.4,2.7-.9,3.3h0.1a7.9,7.9,0,0,0,3.2.2Z"/></g></svg>