<svg id="Layer_1" data-name="Layer 1" xmlns="http://www.w3.org/2000/svg" viewBox="0 0 395 480"><defs><style>.cls-1{fill:#1b5f2e;}.cls-2{fill:#bca873;}</style></defs><title>renly-emblem</title><path class="cls-1" d="M395,1V141.5c0,96.5-.3,142.7-1.1,147.7-5.2,34.7-15,56.2-33.9,74.9-10.9,10.8-20.6,17.6-44.1,31.5-10.1,5.9-21.3,12.7-24.9,14.9-5.2,3.4-29.4,16-41.7,21.9-1.3.6-2.3,1.4-2.3,1.8a0.9,0.9,0,0,1-1,.8c-1.7,0-14.1,8.9-21.2,15.2s-18.1,19-23.2,26.6c-1.6,2.3-3.4,4.2-4.1,4.2s-2.5-1.9-4.1-4.3c-5.1-7.5-16.4-20.5-23.2-26.5S150.7,435,149,435a0.9,0.9,0,0,1-1-.8c0-.4-1-1.2-2.3-1.8-12.3-5.9-36.5-18.5-41.7-21.9-3.6-2.2-14.8-9-25-15C55.9,382,44.8,374,34.4,363.6,19.1,348.3,11.3,334.2,5,310.2c-4.4-16.6-4.4-16.4-4.7-166L0,1H395ZM354.5,108.7c2-8.5,2-29,0-34.8-5.1-14.5-13-23.6-27-30.6-5.4-2.8-17.5-6.6-17.5-5.5s2,2.2,4.5,4c6.5,5,15.3,14.1,18.2,19,5.3,8.9,4.9,15.4-1.2,23.4s-12.1,8.5-25.6,3.9c-4.6-1.5-9.3-3.2-10.4-3.7s0,1.5,3.1,5.1c13.8,16.2,17.8,28.3,11.8,35.5-3.9,4.6-7.8,6.3-12.7,5.5-7.8-1.3-12-4.7-17.8-14.6-4-6.9-8.7-11.7-14-14.5s-4.5-1.3-1.6,2.2c4.8,5.7,6.7,10.9,6.7,18.2,0,13.3-7.8,22.8-16.9,20.6l-3.6-.9,0.3-7.1c0.6-10.5-1.8-17-9-24.9C236.7,104,230.5,99,228.7,99c-0.3,0,1.3,3.9,3.6,8.7,3.8,8.3,4.1,9.3,4.1,18.1v9.4l-3.8,3.4c-3.7,3.4-5.7,3.7-5.7.9s-4.3-12.4-7.5-16.2-10.1-8.1-11.2-6.9,0.6,2.4,2,4.8a64.9,64.9,0,0,1,4.5,10.5c1.7,5.1,1.9,6.9,1,10-1.5,5.4-6.3,11-13.2,15.5l-6,3.8-5.3-5.2c-7.3-7.2-11.6-15-11.6-20.8s3.3-12.5,7.8-17.9c3.2-3.7,1.6-4.2-4.4-1.2s-10.8,9.2-14.3,16.7c-1.6,3.5-3.3,6.4-3.7,6.4s-4.6-4.2-5.9-7.3c-2.7-6.4-.1-18.5,6.3-29.1a59.7,59.7,0,0,0,3.5-6.3c0-.2-2.7,1.5-6.1,3.9-13.7,9.5-19.3,19.5-18.7,32.8l0.3,7.5-3,.3c-5.3.4-10.6-3.5-13.9-10.3s-4.4-13.7-1.6-20.3a28.2,28.2,0,0,1,5.6-8.2c1.9-1.6,3.4-3.2,3.4-3.5s-6.2-.1-10.1,2.3-5.7,5-9.2,11c-5.8,9.8-9,12.7-16.1,14.3-5,1.1-5.6,1-9.6-1.2s-8.5-8.7-7.6-14.1c1.2-7.7,6.3-16,16.9-27.7,2.2-2.5,2.6-3.2,1.1-2.7-15.8,6.4-26.9,7.8-32.1,4-8.5-6.3-11.1-15.3-6.9-24.6,2.5-5.6,13.2-17.6,21.6-24,4.1-3.1,3.5-3.3-4-.9-18.4,5.9-30.9,16.8-36.7,32-2.3,5.9-2.5,8-2.5,20.1,0.1,20.3,4.2,32.5,14.2,42.7,4.7,4.8,14.6,10.7,19.5,11.7l7.9,2c5.9,1.6,25.7,5.2,33.1,6.1,2.2,0.2,11.7.9,21,1.4,29.9,1.8,36.4,3.2,41.7,8.8,2.9,3.1,4.1,8.4,2,9.1a15.4,15.4,0,0,0-3.4,2.2l-2.3,1.9,5.3,4.8c4.6,4.4,6.5,7.3,4.5,7.3-0.4,0-3.2-2-6.2-4.4-7.6-5.9-13.3-8.6-18.1-8.6s-6.4.5-27.1,5.4c-5.9,1.5-12,2.6-13.7,2.6s-3.3.4-3.6,0.9,4.6,9.2,10.3,14.9c10.7,10.7,19.7,14.6,32.8,14.1,4.8-.2,7.8,0,8,0.7s-2.6,2.3-6.1,3.8c-5.6,2.4-6.8,3.4-8.5,7a85.9,85.9,0,0,1-7.6,10.9,62.2,62.2,0,0,0-5.5,7.2c0,0.3,1.6.5,3.5,0.5s3.5,0.4,3.5,1.8-4,8.3-8.6,13.9l-2.6,3.2,3.3-.9a24,24,0,0,1,4.1-1c1.2,0-4.4,11.3-8.9,17.8-2.4,3.5-4.1,6.7-3.8,7.2s2.7,0.7,5.2.3,4.4-.3,4,0.5,0.5,4.2,3.2,4.2a7.7,7.7,0,0,1,5.1,2.5c1.3,1.4,3.1,2.5,4,2.5s5,3,5,4.7a4,4,0,0,1-1.6,2.4c-1.2,1-1.4,2.3-1,5.2s0.2,4.7-.9,6.3-1.2,2.4-.3,2.4,11.4-5.6,12.3-7,1.8-1.2,3.3-.8l-0.3,2.1-6,4c-3.3,2.1-4.9,3.6-3.5,3.2a20.4,20.4,0,0,0,5.3-2.7l2.9-2,4.8,2.1a27,27,0,0,0,10.8,2.1c5.5,0,6.4-.3,11.2-4.1s5.3-3.9,6.8-2.6c3.4,3,11.6,6.7,14.9,6.7a25.2,25.2,0,0,0,8.3-2.1l4.8-2.1,2.9,2c2.1,1.5,5,2.1,12.1,2.5l9.2,0.6v-6.6l-5,2.5c-3.7,1.8-5,2.3-7.2,1.8V310c1.6,0,1.8-.6,1.5-3.6a11.5,11.5,0,0,0-2.4-5.6c-1.5-1.5-1.9-2.9-1.5-5.4s0-4.1-2.1-6.7c-7.9-9.4-16.2-25.8-16.2-32a7.5,7.5,0,0,1,2.1-4.3l2-2.2-6.2-1.1c-14.6-2.5-25.8-11.1-32.6-24.9-3.3-6.6-3.8-8.5-3.9-15.1s-0.2-7.6-3.3-9.5-7.4-2.4-12.7-3.1c-9-1.3-12.4-2.6-12.4-4.6s13-1.1,19.2.3a51.7,51.7,0,0,1,10.3,3.9l5,2.7v6.9c0.3,14.4,8.7,26.6,24,34.6,12,6.2,15.8,6.8,43.1,6.7,25.5,0,30.9.7,39.8,5,4.8,2.3,5.5,2.4,5.5.7,0-3.4-2.4-8.9-5-11.7s-2.7-3.7-2.4-4.2,3.7-.8,9.1-0.4l8.4,0.7,1.4-3.5c1.2-2.9,1.3-4.5.4-8.8-2.2-10.4-5.6-13.8-15.9-15.9-3-.6-10.2-2.5-15.9-4.1-9.1-2.6-11.3-3.7-18.1-8.9-14.7-11.4-33.3-22.3-39.7-23.4-2.4-.4-4.6-1.1-4.9-1.6s-0.2-2.8.1-5.1A13.9,13.9,0,0,1,225.6,155c2.2-.6,16.7-1.5,32.9-2,32-1,41.3-1.9,55.9-5.6C337.9,141.5,349.4,130.4,354.5,108.7Zm-84.9,68.5c6-3.1,11.2-7.6,9.7-8.5s-4.1.1-8,.9c-6.6,1.2-8.1,1.2-16.5-.6a78.2,78.2,0,0,0-14.8-1.8c-9.7.3-15,.9-15,1.7s2.9,2,6.4,3.5c7.6,3.3,22.6,12.3,22.6,13.7s2.2-.6,4.9-2.5A100.9,100.9,0,0,1,269.6,177.2Zm-5.2,119.9c3.7-3.9,3.4-8.5-.6-8.9-1.6-.2-2.8-0.9-2.8-1.6s-1-1.6-2.2-2c-3.5-.9-4.6-0.7-5.5.8s-2.1,1.6-3.8,1.8-3.1.9-3.3,2.5-1,2.3-3.2,2.3-4,1.5-4,5.2a2.6,2.6,0,0,0,2,2.5c1.6,0.4,2,1.4,2,4.4s2,6,4.5,3.9,1.8-6.6-1.2-8.9-2.4-3.9.9-1.7,4.3,0.9,2.2-2.2c-0.8-1.3-1.3-2.7-.9-3s1.3,0.2,3.4,3.7c1.2,1.9,4.1.6,4.1-1.8a3.6,3.6,0,0,1,1.1-2.7c0.8-.5,1,0.3.7,2.5s0.4,4.1,1.7,2.1a2.1,2.1,0,0,1,1.7-1c0.6,0,.4.8-0.5,1.8C256.9,301,260.4,301.3,264.4,297.1ZM249,329.5c0.7-2,1-3.8.8-4.1s-13-2.2-25.8-3.3-34.7-2.1-35.2-1.6-7.3.5-15.8,0.8-18.9,1-23,1.6c-12.7,2-12,1.6-12,6.6s-1.1,5.3,20.7,2.4c25.1-3.4,71.9-3,86.6.6C247.5,333.1,247.9,332.7,249,329.5Zm-0.7,9.3c1.9-2.9-.5-4.1-12.5-5.9-8.1-1.3-17.6-1.8-33.4-1.8-12.1-.1-22.3.1-22.5,0.3s-6.7.9-14.4,1.6c-16.5,1.4-26.7,3.1-27.2,4.5a4,4,0,0,0,.9,2.8c1.2,1.6,1.9,1.6,10.3.2,21.3-3.5,75.9-4.4,90-1.4C246.8,340.7,247.1,340.7,248.3,338.8Zm-97.9-41.1c2.2-.9,2-2.7-0.3-2.7s-3.4-1.2-5.2-2.7-4.2-2.6-5.6-2.5a2.6,2.6,0,0,1-2.9-1.2c-0.8-2-2.8-2-4.5,0s-2.2,1.4-4.6.9-3.3-.3-3.9,2.1a8.2,8.2,0,0,0,3.9,9.4c2.4,1.3,2.9,1.3,3.7,0s0.4-2-1.1-3.3-2-2-1.7-2.2,1.1,0.1,1.8,1,2.8,1.5,4.6,1.5,3.6-.5,4.4-2.5,2.4-3.1,1.7.5,0.8,4.9,2.6,3.1,3-1.1.9,1.2-2.8,4.5.1,5.7,2.1,0.9-.5.9-3.5,1.9.6,2.7,5.8,0,5.1-6.1C148.9,299.2,149.1,298.2,150.4,297.7Z" transform="translate(0 -1)"/><path class="cls-2" d="M354.5,73.9c2,5.8,2,26.3,0,34.8-5.1,21.7-16.6,32.8-40.1,38.7-14.6,3.7-23.9,4.6-55.9,5.6-16.2.5-30.7,1.4-32.9,2a13.9,13.9,0,0,0-10.1,10.8c-0.3,2.3-.4,4.6-0.1,5.1s2.5,1.2,4.9,1.6c6.4,1.1,25,12,39.7,23.4,6.8,5.2,9,6.3,18.1,8.9,5.7,1.6,12.9,3.5,15.9,4.1,10.3,2.1,13.7,5.5,15.9,15.9,0.9,4.3.8,5.9-.4,8.8l-1.4,3.5-8.4-.7c-5.4-.4-8.7-0.3-9.1.4s0.7,2.4,2.4,4.2,5,8.3,5,11.7c0,1.7-.7,1.6-5.5-0.7-8.9-4.3-14.3-5-39.8-5-27.3.1-31.1-.5-43.1-6.7-15.3-8-23.7-20.2-24-34.6v-6.9l-5-2.7a51.7,51.7,0,0,0-10.3-3.9c-6.2-1.4-19.2-1.6-19.2-.3s3.4,3.3,12.4,4.6c5.3,0.7,11,2.1,12.7,3.1s3.2,2.1,3.3,9.5,0.6,8.5,3.9,15.1c6.8,13.8,18,22.4,32.6,24.9l6.2,1.1-2,2.2a7.5,7.5,0,0,0-2.1,4.3c0,6.2,8.3,22.6,16.2,32,2.1,2.6,2.6,3.9,2.1,6.7s0,3.9,1.5,5.4a11.5,11.5,0,0,1,2.4,5.6c0.3,3,.1,3.6-1.5,3.6h-0.3c-1.1,0-4.2-1.8-6.8-4.1l-4.6-4.1-5.2,2.6a22.6,22.6,0,0,1-10,2.6c-5.3,0-5.8-.7-2.8-3.5,1.3-1.2,1.8-2.5,1.4-3.7a6.9,6.9,0,0,1,1-4.4c1.8-2.6,1-5.7-1.9-6.7a1.6,1.6,0,0,1-.9-2c0.8-2.1-2.7-5.5-6.1-6a32.2,32.2,0,0,1-5.8-1.8,5.2,5.2,0,0,0-5-.1,23.5,23.5,0,0,1-4.9,1.6,6.9,6.9,0,0,0-4.3,3.6c-0.9,1.7-2,3-2.5,3s-1,.9-1,2a13.6,13.6,0,0,1-1.2,4.6c-1.1,2.4-1,2.9,1.5,5s2.7,2.8,2.7,3.3,1.2,1.8,2.6,2.8,2.5,1.7.8,3-10.4,1.6-14.2-.7a12.9,12.9,0,0,0-4.3-1.8c-1.6-.3-2.8,0-3.3.8s-10.7,7-12.3,7-0.9-.6.3-2.4,1.4-3.5.9-6.3-0.2-4.2,1-5.2a4,4,0,0,0,1.6-2.4c0-1.7-3.2-4.7-5-4.7s-2.7-1.1-4-2.5a7.7,7.7,0,0,0-5.1-2.5c-2.7,0-4.5-2.3-3.2-4.2s-0.8-.9-4-0.5-4.9.2-5.2-.3,1.4-3.7,3.8-7.2c4.5-6.5,10.1-17.8,8.9-17.8a24,24,0,0,0-4.1,1l-3.3.9,2.6-3.2c4.6-5.6,8.6-12,8.6-13.9s-0.8-1.8-3.5-1.8-3.5-.2-3.5-0.5a62.2,62.2,0,0,1,5.5-7.2,85.9,85.9,0,0,0,7.6-10.9c1.7-3.6,2.9-4.6,8.5-7,3.5-1.5,6.3-3.2,6.1-3.8s-3.2-.9-8-0.7c-13.1.5-22.1-3.4-32.8-14.1-5.7-5.7-11.1-13.6-10.3-14.9s1.9-.9,3.6-0.9,7.8-1.1,13.7-2.6c20.7-4.9,23.1-5.4,27.1-5.4s10.5,2.7,18.1,8.6c3,2.4,5.8,4.4,6.2,4.4,2,0,.1-2.9-4.5-7.3l-5.3-4.8,2.3-1.9a15.4,15.4,0,0,1,3.4-2.2c2.1-.7.9-6-2-9.1-5.3-5.6-11.8-7-41.7-8.8-9.3-.5-18.8-1.2-21-1.4-7.4-.9-27.2-4.5-33.1-6.1l-7.9-2c-4.9-1-14.8-6.9-19.5-11.7C44,119.5,39.9,107.3,39.8,87c0-12.1.2-14.2,2.5-20.1,5.8-15.2,18.3-26.1,36.7-32,7.5-2.4,8.1-2.2,4,.9-8.4,6.4-19.1,18.4-21.6,24-4.2,9.3-1.6,18.3,6.9,24.6,5.2,3.8,16.3,2.4,32.1-4,1.5-.5,1.1.2-1.1,2.7-10.6,11.7-15.7,20-16.9,27.7-0.9,5.4,2.2,11,7.6,14.1s4.6,2.3,9.6,1.2c7.1-1.6,10.3-4.5,16.1-14.3,3.5-6,6-8.9,9.2-11S135,97,135,98.5s-1.5,1.9-3.4,3.5a28.2,28.2,0,0,0-5.6,8.2c-2.8,6.6-2.4,12.1,1.6,20.3s8.6,10.7,13.9,10.3l3-.3-0.3-7.5c-0.6-13.3,5-23.3,18.7-32.8,3.4-2.4,6.1-4.1,6.1-3.9a59.7,59.7,0,0,1-3.5,6.3c-6.4,10.6-9,22.7-6.3,29.1,1.3,3.1,4.7,7.3,5.9,7.3s2.1-2.9,3.7-6.4c3.5-7.5,9.1-14,14.3-16.7s7.6-2.5,4.4,1.2c-4.5,5.4-7.8,13-7.8,17.9s4.3,13.6,11.6,20.8l5.3,5.2,6-3.8c6.9-4.5,11.7-10.1,13.2-15.5,0.9-3.1.7-4.9-1-10a64.9,64.9,0,0,0-4.5-10.5c-1.4-2.4-2.3-4.5-2-4.8s7.9,3,11.2,6.9,7.5,13,7.5,16.2,2,2.5,5.7-.9l3.8-3.4v-9.4c0-8.8-.3-9.8-4.1-18.1-2.3-4.8-3.9-8.7-3.6-8.7,1.8,0,8,5,13.1,10.5,7.2,7.9,9.6,14.4,9,24.9l-0.3,7.1,3.6,0.9c9.1,2.2,16.9-7.3,16.9-20.6,0-7.3-1.9-12.5-6.7-18.2-2.9-3.5-2.4-4.2,1.6-2.2s10,7.6,14,14.5c5.8,9.9,10,13.3,17.8,14.6,4.9,0.8,8.8-.9,12.7-5.5,6-7.2,2-19.3-11.8-35.5-3.1-3.6-4.3-5.6-3.1-5.1s5.8,2.2,10.4,3.7c13.5,4.6,19.9,3.7,25.6-3.9s6.5-14.5,1.2-23.4c-2.9-4.9-11.7-14-18.2-19-2.5-1.8-4.5-3.6-4.5-4s12.1,2.7,17.5,5.5C341.5,50.3,349.4,59.4,354.5,73.9ZM233,207.3c2.5-3.2,2.5-5.4.3-8.1a7.5,7.5,0,0,0-9.5-1.7c-4.9,2.8-4.8,9.4.4,12.1C227.7,211.4,230.3,210.8,233,207.3Z" transform="translate(0 -1)"/><path class="cls-2" d="M279.3,168.7c1.5,0.9-3.7,5.4-9.7,8.5a100.9,100.9,0,0,0-10.7,6.4c-2.7,1.9-4.9,3-4.9,2.5s-15-10.4-22.6-13.7c-3.5-1.5-6.4-3.1-6.4-3.5s5.3-1.4,15-1.7a78.2,78.2,0,0,1,14.8,1.8c8.4,1.8,9.9,1.8,16.5.6C275.2,168.8,278.9,168.4,279.3,168.7Z" transform="translate(0 -1)"/><path class="cls-2" d="M263.8,288.2c4,0.4,4.3,5,.6,8.9s-7.5,3.9-3.7-.3c0.9-1,1.1-1.8.5-1.8a2.1,2.1,0,0,0-1.7,1c-1.3,2-2.1.9-1.7-2.1s0.1-3-.7-2.5a3.6,3.6,0,0,0-1.1,2.7c0,2.4-2.9,3.7-4.1,1.8-2.1-3.5-2.8-4.3-3.4-3.7s0.1,1.7.9,3c2.1,3.1.9,4.3-2.2,2.2s-4.1-.9-0.9,1.7,3.6,6.9,1.2,8.9-4.5.4-4.5-3.9-0.4-4-2-4.4a2.6,2.6,0,0,1-2-2.5c0-3.7,1.1-5.2,4-5.2s2.9-.5,3.2-2.3,1.1-2.3,3.3-2.5,3.4-1,3.8-1.8,2-1.7,5.5-.8c1.2,0.4,2.2,1.2,2.2,2S262.2,288,263.8,288.2Z" transform="translate(0 -1)"/><path class="cls-2" d="M251,311.6v3.3l-9.2-.6c-7.1-.4-10-1-12.1-2.5l-2.9-2-4.8,2.1a25.2,25.2,0,0,1-8.3,2.1c-3.3,0-11.5-3.7-14.9-6.7-1.5-1.3-2.2-1.1-6.8,2.6s-5.7,4.1-11.2,4.1a27,27,0,0,1-10.8-2.1l-4.8-2.1-2.9,2a20.4,20.4,0,0,1-5.3,2.7c-1.4.4,0.2-1.1,3.5-3.2l6-4,4.1,2.3c6.9,4,14.2,2.8,21.4-3.5a34.2,34.2,0,0,1,4.1-3.1c0.4,0,3,1.6,5.9,3.5,6.4,4.3,12,4.6,19.6,1.1l5-2.3,3.2,2.8a23.7,23.7,0,0,0,7.1,4l1.9,0.5c2.2,0.5,3.6,0,7.2-1.8l5-2.5v3.3Z" transform="translate(0 -1)"/><path class="cls-2" d="M249.8,325.4c0.2,0.3-.1,2.1-0.8,4.1s-1.5,3.6-3.7,3c-14.7-3.6-61.5-4-86.6-.6-21.8,2.9-20.7,3-20.7-2.4s-0.7-4.6,12-6.6c4.1-.6,14.5-1.3,23-1.6s15.6-.6,15.8-0.8,23.8,0.5,35.2,1.6S249.2,324.8,249.8,325.4Z" transform="translate(0 -1)"/><path class="cls-2" d="M235.8,332.9c12,1.8,14.4,3,12.5,5.9s-1.5,1.9-8.8.3c-14.1-3-68.7-2.1-90,1.4-8.4,1.4-9.1,1.4-10.3-.2a4,4,0,0,1-.9-2.8c0.5-1.4,10.7-3.1,27.2-4.5,7.7-.7,14.2-1.4,14.4-1.6s10.4-.4,22.5-0.3C218.2,331.1,227.7,331.6,235.8,332.9Z" transform="translate(0 -1)"/><path class="cls-1" d="M238.7,310v2.6l-1.9-.5a23.7,23.7,0,0,1-7.1-4l-3.2-2.8-5,2.3c-7.6,3.5-13.2,3.2-19.6-1.1-2.9-1.9-5.5-3.5-5.9-3.5a34.2,34.2,0,0,0-4.1,3.1c-7.2,6.3-14.5,7.5-21.4,3.5l-4.1-2.3,0.3-2.1a12.9,12.9,0,0,1,4.3,1.8c3.8,2.3,11.5,2.7,14.2.7s1.7-1.4-.8-3-2.6-2.2-2.6-2.8-1.2-2-2.7-3.3-2.6-2.6-1.5-5A13.6,13.6,0,0,0,179,289c0-1.1.4-2,1-2s1.6-1.3,2.5-3a6.9,6.9,0,0,1,4.3-3.6,23.5,23.5,0,0,0,4.9-1.6,5.2,5.2,0,0,1,5,.1,32.2,32.2,0,0,0,5.8,1.8c3.4,0.5,6.9,3.9,6.1,6a1.6,1.6,0,0,0,.9,2c2.9,1,3.7,4.1,1.9,6.7a6.9,6.9,0,0,0-1,4.4c0.4,1.2-.1,2.5-1.4,3.7-3,2.8-2.5,3.5,2.8,3.5a22.6,22.6,0,0,0,10-2.6l5.2-2.6,4.6,4.1c2.6,2.3,5.7,4.1,6.8,4.1h0.3Zm-30.2-15c2.2-2.4,1.2-4-2.7-4-2.1,0-2.8,0-2.4-.6a10.8,10.8,0,0,1,1.2-1.5c2.4-2.7.8-5.4-3.2-5.3a7,7,0,0,1-4.2-1.3c-1.6-1.5-3.8-1.7-4.7-.3s-2,1-3.6,1-3.2.6-4.2,2.7a9.7,9.7,0,0,1-1.9,3.3c-0.8.6-2.8,5.6-2.8,7s1,1,2.3,1.2a2.8,2.8,0,0,1,2.5,2.5,3.5,3.5,0,0,0,2.8,2.9c3.3,0.8,4,0,2.6-3.1a10.9,10.9,0,0,1-.6-5.4c0.4-1.6.1-3.2-.5-3.5a2.5,2.5,0,0,1-1.1-1.8c0-.6.9-0.3,1.9,0.6,2.7,2.4,5.7,1.7,5.3-1.2-0.2-1.2.2-2.2,0.7-2.2s1.1,0.9,1.1,1.9c0,2.8,2.1,3.7,3.6,1.6s2.7-1.4,1.8.7l-0.3.6c-1.2,2.3-.4,6.3,1.7,7.9s1.3,1.3-.5,1.3-3.8,1.7-2.3,3.5,2.2,1.9,4.7-.5a4.1,4.1,0,0,0,1.6-4A4.8,4.8,0,0,1,208.5,295Z" transform="translate(0 -1)"/><path class="cls-1" d="M233.3,199.2c2.2,2.7,2.2,4.9-.3,8.1s-5.3,4.1-8.8,2.3c-5.2-2.7-5.3-9.3-.4-12.1A7.5,7.5,0,0,1,233.3,199.2Z" transform="translate(0 -1)"/><path class="cls-2" d="M205.8,291c3.9,0,4.9,1.6,2.7,4a4.8,4.8,0,0,0-1.2,4,4.1,4.1,0,0,1-1.6,4c-2.5,2.4-3.1,2.4-4.7.5s-0.5-3.5,2.3-3.5,1.9-.2.5-1.3-2.9-5.6-1.7-7.9l0.3-.6h1C203,291,203.7,291,205.8,291Z" transform="translate(0 -1)"/><path class="cls-2" d="M201.4,283.6c4-.1,5.6,2.6,3.2,5.3a10.8,10.8,0,0,0-1.2,1.5h-1c0.9-2.2-.2-2.9-1.8-0.7s-3.6,1.2-3.6-1.6c0-1-.5-1.9-1.1-1.9s-0.9,1-.7,2.2c0.4,2.9-2.6,3.6-5.3,1.2-1-.9-1.9-1.2-1.9-0.6a2.5,2.5,0,0,0,1.1,1.8c0.6,0.3.9,1.9,0.5,3.5a10.9,10.9,0,0,0,.6,5.4c1.4,3.1.7,3.9-2.6,3.1a3.5,3.5,0,0,1-2.8-2.9,2.8,2.8,0,0,0-2.5-2.5c-1.3-.2-2.3-0.7-2.3-1.2s2-6.4,2.8-7a9.7,9.7,0,0,0,1.9-3.3c1-2.1,1.9-2.7,4.2-2.7s3.3-.5,3.6-1,3.1-1.2,4.7.3A7,7,0,0,0,201.4,283.6Z" transform="translate(0 -1)"/><path class="cls-2" d="M150.1,295c2.3,0,2.5,1.8.3,2.7s-1.5,1.5-.9,5.8c0.7,6.1,0,7-5.1,6.1s-4.5-2.6-.6-2.7,2.6-.1.5-0.9-2.9-2.7-.1-5.7,1.3-3.4-.9-1.2-3.3.1-2.6-3.1-0.4-3.9-1.7-.5-1.6,2.5-4.4,2.5-3.9-.7-4.6-1.5-1.5-1.3-1.8-1,0.5,1.2,1.7,2.2,1.8,2.2,1.1,3.3-1.3,1.3-3.7,0a8.2,8.2,0,0,1-3.9-9.4c0.6-2.4,1-2.6,3.9-2.1s3.7,0.2,4.6-.9,3.7-2,4.5,0a2.6,2.6,0,0,0,2.9,1.2c1.4-.1,3.6.8,5.6,2.5S149,295,150.1,295Z" transform="translate(0 -1)"/></svg>